<?xml version="1.0" encoding="UTF-8" standalone="no"?>
<svg
   xmlns:dc="http://purl.org/dc/elements/1.1/"
   xmlns:cc="http://creativecommons.org/ns#"
   xmlns:rdf="http://www.w3.org/1999/02/22-rdf-syntax-ns#"
   xmlns:svg="http://www.w3.org/2000/svg"
   xmlns="http://www.w3.org/2000/svg"
   xmlns:sodipodi="http://sodipodi.sourceforge.net/DTD/sodipodi-0.dtd"
   xmlns:inkscape="http://www.inkscape.org/namespaces/inkscape"
   width="975"
   height="520"
   version="1.1"
   id="svg5007"
   sodipodi:docname="us_electoral_college_2010.svg"
   inkscape:version="0.92.4 (5da689c313, 2019-01-14)"
   viewBox="0 0 800 193">
  <metadata
     id="metadata5011">
    <rdf:RDF>
      <cc:Work
         rdf:about="">
        <dc:format>image/svg+xml</dc:format>
        <dc:type
           rdf:resource="http://purl.org/dc/dcmitype/StillImage" />
        <dc:title>2020 US presidential election results</dc:title>
      </cc:Work>
    </rdf:RDF>
  </metadata>
  <sodipodi:namedview
     pagecolor="#ffffff"
     bordercolor="#666666"
     borderopacity="1"
     objecttolerance="10"
     gridtolerance="10"
     guidetolerance="10"
     inkscape:pageopacity="0"
     inkscape:pageshadow="2"
     inkscape:window-width="2400"
     inkscape:window-height="1271"
     id="namedview5009"
     showgrid="false"
     inkscape:zoom="3.3862745"
     inkscape:cx="848.5125"
     inkscape:cy="142.22832"
     inkscape:window-x="4791"
     inkscape:window-y="-9"
     inkscape:window-maximized="1"
     inkscape:current-layer="svg5007" />
  <title
     id="title4880">2020 US presidential election results</title>
  <defs
     id="defs4884">
    <style
       type="text/css"
       id="style4882">
    .state,
    {fill:#C0C0C0;}<!--Default-->
<!-- Trump win -->



    #AK,
    #AL,
    #AR,
    #FL,
    #IA,
    #ID,
    #IN,
    #KS,
    #KY,
    #LA,
    #MO,
    #MS,
    #MT,
    #NC,
    #NE, 
    #ND,
    #OH,
    #OK,
    #SC,
    #SD,
    #TN,
    #TX,
    #UT,
    #WV,
    #WY
    { fill: #F07763; }
    <!-- Biden win -->



    #AZ,
    #CA,
    #CO,
    #CT,
    #DC,
    #DE,
    #GA,
    #HI,
    #IL,
    #MA,
    #ME, 
    #MD,
    #MI,
    #MN,
    #NV,
    #NH,
    #NJ,
    #NM,
    #NY,
    #OR,
    #PA,
    #RI,
    #VA,
    #VT,
    #WA,
    #WI
    { fill: #698DC5; }
  </style>
  </defs>
  <path
     style="fill:#bbbbbb;fill-opacity:1;stroke-width:1"
     inkscape:connector-curvature="0"
     d="m 101.25885,161.48495 -0.18198,51.80082 0.97051,0.60657 1.88036,0.12132 0.90985,-0.66723 h 1.57707 l 0.12131,1.75904 4.24598,4.12466 0.30328,1.57707 2.06233,-1.15247 0.36393,-0.12132 0.18198,-1.88035 0.90985,-0.97051 0.66722,-0.12131 1.15248,-0.90986 1.88036,1.27379 0.36393,1.75905 1.15249,0.66723 0.66721,1.45575 2.36562,1.09183 2.06233,3.6394 1.63773,2.36561 1.3951,1.63773 0.90985,2.2443 3.03284,1.09182 3.15415,1.27379 0.60656,2.66889 0.30328,1.88037 -0.60656,2.06232 -1.09182,1.3951 -0.97051,-0.48525 -0.90984,-1.88036 -1.63774,-0.90985 -1.09182,-0.66722 -0.48525,0.48526 0.90985,1.63772 0.12131,2.2443 -0.66722,0.30329 -1.15248,-1.15249 -1.27379,-0.78853 0.30328,0.97051 0.78854,1.09181 -0.48526,0.48526 c 0,0 -0.48524,-0.18196 -0.78853,-0.60656 -0.30329,-0.36394 -1.2738,-2.06233 -1.2738,-2.06233 l -0.60656,-1.3951 c 0,0 -0.18197,0.78853 -0.60656,0.60656 -0.36395,-0.18197 -0.78854,-0.90985 -0.78854,-0.90985 l 1.09182,-1.15248 -0.90986,-0.90985 v -3.03283 h -0.48524 l -0.48526,2.06233 -0.66722,0.30328 -0.60657,-2.2443 -0.36394,-2.2443 -0.48526,-0.30328 0.18197,3.45743 v 0.66722 l -0.90984,-0.78853 -2.18365,-3.6394 -1.27379,-0.30329 -0.36394,-2.2443 -0.9705,-1.75904 -0.97051,-0.66722 v -1.39511 l 1.27379,-0.78854 -0.30328,-0.18196 -1.57708,0.36393 -2.06233,-1.45576 -1.57707,-1.75905 -2.91153,-1.57707 -2.42626,-1.57707 0.78854,-1.94101 v -0.97051 l -1.09182,0.97051 -1.75905,0.66722 -2.2443,-0.66722 -3.457428,-1.45577 h -3.336119 l -0.363937,0.30329 -3.942689,-2.36561 -1.27379,-0.18198 -1.637732,-3.51808 -2.183641,0.18197 -2.183641,0.90985 0.303283,2.72956 0.667224,-1.75905 0.606567,0.18196 -0.90985,2.6689 1.941014,-1.63773 0.36394,0.97051 -2.365611,2.6689 -0.788537,-0.18198 -0.303284,-1.15248 -0.788537,-0.48525 -0.788537,0.66722 -1.637731,-1.09181 -1.880358,1.27379 -1.09182,1.27379 -2.062328,1.27379 -2.850866,-0.12132 -0.303283,-1.27379 2.244299,-0.36394 v -0.78853 l -1.395105,-0.36395 0.606567,-1.45575 1.395104,-2.36561 v -1.09183 l 0.121314,-0.48525 2.668894,-1.39511 0.606568,0.78854 h 1.63773 l -0.788536,-1.57707 -2.244298,-0.18197 -3.032836,1.63773 -1.45576,2.06233 -1.091821,1.57707 -0.667224,1.3951 -2.547582,0.90986 -1.880357,1.57707 -0.181971,0.97051 1.395105,0.60656 0.485253,1.2738 -1.63773,1.94101 -3.942686,2.54758 -4.731223,2.54758 -1.273791,0.66723 -3.214805,0.66722 -3.214805,1.39511 1.091821,0.78853 -0.909851,0.90985 -0.303283,0.66723 -1.637732,-0.60657 -1.941014,0.12131 -0.485254,1.3951 h -0.606566 l 0.18197,-1.45575 -2.183642,0.78853 -1.759044,0.60657 -2.062328,-0.78854 -1.759044,1.15248 h -1.941015 l -1.273791,0.78854 -0.970507,0.48525 -1.27379,-0.18197 -1.577075,-0.66723 -1.395104,0.36395 -0.606567,0.60656 -0.970508,-0.66722 v -1.15248 l 1.880358,-0.78853 3.821373,0.36393 2.668895,-0.9705 1.27379,-1.27379 1.759045,-0.36394 1.09182,-0.48526 1.637732,0.12132 0.970506,0.78854 0.606568,-0.18198 1.395104,-1.63773 1.880358,-0.60657 2.062328,-0.36393 0.788536,-0.18198 0.363941,0.30328 h 0.485253 l 0.788538,-2.24429 2.426268,-0.90985 1.152477,-2.24429 1.395104,-2.72956 0.970508,-0.90985 0.18197,-1.57708 -0.970508,0.78854 -2.062328,0.36395 -0.36394,-1.45577 -0.788537,-0.18197 -0.606567,0.60657 -0.121313,1.75905 -0.909851,-0.12132 -0.909851,-3.51809 -0.788537,0.78854 -0.667223,-0.30329 -0.18197,-1.15247 -2.426268,0.12131 -1.273792,0.66723 -1.577074,-0.18198 0.909851,-0.90984 0.303283,-1.57708 -0.36394,-1.15248 0.90985,-0.60656 0.788538,-0.12132 -0.36394,-1.09182 v -2.66889 l -0.606568,-0.60657 -0.485253,0.90985 h -3.700059 l -0.90985,-0.78854 -0.36394,-2.36561 -1.273791,-2.18364 v -0.60656 l 1.273791,-0.48526 0.121313,-1.27379 0.667223,-0.66723 -0.485253,-0.30328 -0.788537,0.30328 -0.667224,-1.63773 0.606567,-3.03283 2.729551,-1.94101 1.577075,-0.97051 1.152477,-2.2443 1.637732,-0.78854 1.577074,0.66723 0.18197,1.45575 1.45576,-0.18196 1.941015,-1.45576 0.970507,0.36394 0.606567,0.36394 h 0.970508 l 1.395104,-0.78854 0.485253,-2.66889 c 0,0 0.181971,-1.75905 0.606567,-2.06233 0.36394,-0.30329 0.606568,-0.60657 0.606568,-0.60657 l -0.667224,-1.15248 -1.577075,0.48526 -1.941014,0.48525 -1.152478,-0.30329 -2.183641,-1.09182 -3.032835,-0.1213 -2.183642,-2.2443 0.303284,-2.36561 0.36394,-1.45577 -1.27379,-1.09182 -1.152478,-2.2443 0.303284,-0.48525 4.124656,-0.30328 h 1.27379 l 0.606568,0.60656 h 0.36394 l -0.121314,-0.9705 2.365612,-0.36395 1.577074,0.18198 0.909851,0.66721 -0.909851,1.2738 -0.303284,0.90985 1.637731,0.97051 3.032836,1.09182 1.09182,-0.60657 -1.395104,-2.6689 -0.606567,-1.94101 0.606567,-0.48525 -2.062328,-1.15248 -0.303284,-0.66722 0.303284,-0.97051 -0.485254,-2.36561 -1.759044,-2.85086 -1.455761,-2.54759 1.759045,-1.15248 h 1.941014 l 1.091821,0.36395 2.547581,-0.12132 2.244298,-2.18364 0.667224,-1.88035 2.244298,-1.45577 0.970507,0.60657 1.637731,-0.36394 2.244298,-1.27379 0.667224,-0.12132 0.606567,0.48525 2.729552,-0.1213 1.63773,-1.88036 h 0.667224 l 2.183642,1.45576 1.152476,1.27379 -0.303282,0.66722 0.36394,0.66722 0.970506,-0.9705 2.365612,0.18197 0.18197,2.2443 1.152478,0.90985 4.306625,0.36394 3.821372,2.54758 0.909848,-0.60657 3.154155,1.57708 1.273792,-0.36395 1.152473,-0.48525 2.911519,1.15248 z m -69.81587,17.52979 1.273791,3.21481 -0.121314,0.60656 -1.759044,-0.18197 -1.091821,-2.42627 -1.091821,-0.90985 h -1.45576 l -0.121314,-1.57708 1.091821,-1.45575 0.667223,1.45575 0.909851,0.90986 z m -1.577075,20.31999 2.244298,0.48526 2.244299,0.60656 0.485253,0.60657 -0.970507,2.2443 -1.880358,-0.12131 -2.062328,-2.18365 z m -12.555937,-8.55259 0.667224,1.57707 0.667224,0.97051 -0.667224,0.48526 -1.273791,-1.88037 v -1.15247 z M 9,235.12219 l 2.062328,-1.39511 2.062328,-0.60656 1.577074,0.18197 0.303284,0.97051 1.152477,0.30328 1.152477,-1.15248 -0.18197,-0.97051 1.637731,-0.36394 1.759044,1.57707 -0.667223,1.09182 -2.668895,0.66723 -1.637731,-0.30328 -2.244298,-0.66723 -2.668895,0.90986 -0.9705072,0.18196 z m 29.661128,-2.72956 0.970506,1.15249 1.273792,-0.97051 -0.909851,-0.78854 z m 1.759044,1.8197 0.667224,-1.3951 1.27379,0.18198 -0.485254,1.15247 h -1.45576 z m 14.314981,-1.15247 0.909851,1.09182 0.606567,-0.66723 -0.485254,-1.15247 z m 5.33779,-7.58209 0.667224,3.51809 1.759044,0.48525 3.032836,-1.75904 2.668894,-1.57707 -0.970507,-1.45577 0.303284,-1.45575 -1.273791,0.78853 -1.759044,-0.48525 0.970507,-0.66723 1.152477,0.48526 2.365611,-1.09182 0.303284,-0.90986 -1.455761,-0.48524 0.485254,-1.15249 -1.637731,1.15249 -2.850865,2.18363 -2.911522,1.75905 z m 25.657786,-12.01002 1.45576,-0.90986 -0.606567,-1.09182 -1.091821,0.60657 z"
     id="AK" />
  <path
     style="fill:#bbbbbb;fill-opacity:1;stroke-width:1"
     inkscape:connector-curvature="0"
     d="m 144.93167,201.27575 1.15248,-2.18364 1.3951,-0.18198 0.18197,0.48526 -1.27379,1.88036 z m 6.18698,-2.2443 3.70007,1.57707 1.27379,-0.18197 0.9705,-2.36561 -0.36394,-2.06233 -2.54758,-0.30328 -2.42627,1.09182 z m 18.62162,6.06567 2.24429,3.33612 1.45576,-0.18197 0.66722,-0.30329 0.90985,0.78854 2.2443,-0.12131 0.60657,-0.90986 -1.75905,-1.09181 -1.15247,-2.2443 -1.27379,-2.18364 -3.51809,1.75904 z m 12.25264,5.39844 0.78854,-1.15247 2.85087,0.60656 0.36394,-0.30328 3.70006,0.36394 -0.18198,0.78854 -1.57707,0.90985 -2.66889,-0.18197 z m 3.21481,3.15416 1.15248,2.36561 1.88035,-0.66723 0.18198,-0.97051 -0.97051,-1.27379 -2.2443,-0.18196 z m 4.24597,-0.72788 1.3951,-1.75905 2.85086,1.45577 2.6689,0.66721 2.6689,1.63773 v 1.15248 l -2.18364,1.09182 -2.91153,0.60657 -1.45575,-0.90985 z m 10.06901,9.46244 0.97051,-0.78854 2.06233,0.97051 4.60991,2.18364 2.06233,1.2738 0.9705,1.45575 1.15248,2.6689 2.42626,1.57708 -0.18196,0.78853 -2.36562,1.94101 -2.54757,0.90986 -0.90986,-0.36395 -1.88035,1.09183 -1.45577,1.94101 -1.3951,1.75904 -1.09182,-0.12131 -2.18364,-1.57708 -0.18197,-2.72954 0.36394,-1.45577 -0.97051,-3.45743 -1.27379,-1.09182 -0.12131,-1.57708 1.3951,-0.60656 1.27379,-1.88036 0.30329,-0.60657 -0.97051,-1.09182 z"
     id="HI" />
  <path
     style="fill:#bbbbbb;fill-opacity:1;stroke-width:1"
     inkscape:connector-curvature="0"
     d="m 384.76827,169.18835 0.36394,0.12131 0.78854,-1.63773 0.90985,-2.66889 1.3951,0.36394 1.88036,3.6394 v 0.60657 l -1.63773,1.15247 1.63773,0.18198 3.15415,-1.51642 -0.18197,-4.60991 -1.51642,-1.09182 -1.21314,-1.21314 0.24263,-2.42626 6.36896,-0.90986 15.58877,-1.75904 4.064,-0.36394 3.39677,0.0606 -0.30328,-1.33445 -0.90985,-0.48525 -0.54591,-0.66722 0.60657,-1.57708 -0.24263,-3.15415 -0.97051,-2.72954 0.48526,-3.0935 1.03116,-2.91152 -0.12131,-1.03117 -1.09183,-0.42459 -0.30328,-2.18365 -1.63773,-2.06232 -1.21313,-3.94269 -0.84919,-4.064 -1.09182,-3.03283 -2.30496,-9.70507 -2.12299,-4.79188 -0.48525,-3.39678 0.0606,-1.33444 -5.4591,0.48525 -14.19367,1.33445 -7.40012,0.48525 -0.12132,3.88203 0.12132,10.12967 -0.4246,18.80357 -0.18196,8.5526 1.69838,11.40346 0.97051,8.91653 z"
     id="AL" />
  <path
     style="fill:#bbbbbb;fill-opacity:1;stroke-width:1"
     inkscape:connector-curvature="0"
     d="m 359.77771,96.218339 -3.88203,-0.4246 0.54591,-1.880355 1.88036,-1.577073 0.36394,-1.39511 -1.09182,-1.759037 -19.34949,0.727874 -14.13302,0.4246 -14.31497,0.181972 0.90984,4.185311 0.0606,5.155819 0.84919,6.61158 0.18198,23.17087 1.27379,0.9705 1.8197,-0.72788 1.75903,0.72788 0.24263,6.12632 15.2855,-0.1213 16.25599,-0.48526 0.54591,-1.15248 -0.18197,-2.30496 -1.03116,-1.88035 0.90985,-0.84919 -0.8492,-1.33445 0.4246,-1.45576 0.66723,-3.57875 1.63773,-1.3951 -0.48526,-1.33445 2.42627,-3.39678 1.51641,-0.66722 -0.0606,-1.03116 -0.30329,-1.03116 1.75905,-3.5181 1.51642,-0.66722 0.12131,-2.00167 1.27379,-0.8492 0.54591,-2.48692 -0.84919,-2.42627 2.54758,-1.45576 0.18197,-1.27379 0.72788,-2.547579 0.5459,-1.880356 z"
     id="AR" />
  <path
     style="fill:#bbbbbb;fill-opacity:1;stroke-width:1"
     inkscape:connector-curvature="0"
     d="m 85.488101,122.66467 -0.18197,0.90984 0.303284,0.60656 11.46412,6.49028 7.339455,4.6099 8.91654,5.21648 10.19032,6.06567 7.46078,1.45576 15.4068,1.63773 3.6394,-24.02005 4.24598,-32.208711 2.66889,-18.80358 -14.92155,-2.183637 -36.81862,-6.672238 -0.12131,0.667219 -1.57707,10.008357 -1.2738,2.304957 -1.69839,-0.121309 -0.727879,-1.577073 -1.577073,-0.24263 -0.727882,-0.667227 -0.667219,0.06063 -1.273791,1.031166 -0.181973,4.124655 -0.181972,0.909855 -0.303282,7.582084 -0.909846,1.455764 -0.242627,2.001673 1.698382,3.032829 0.667227,3.336119 0.4246,0.667227 0.667219,0.54591 -0.242627,1.45576 -1.031164,0.72788 -2.062328,0.9705 -0.97051,1.09183 -0.9705,2.18364 -0.303291,2.97218 -1.819697,1.75904 -1.152477,0.54591 -0.06066,3.51809 -0.36394,0.97051 0.303284,0.48525 2.365612,0.24263 -0.545909,1.8197 -1.031167,1.45576 -2.244298,0.24262 z"
     id="AZ" />
  <path
     style="fill:#bbbbbb;fill-opacity:1;stroke-width:1"
     inkscape:connector-curvature="0"
     d="m 77.96667,120.35971 -11.94937,-1.63774 -6.065671,-0.90984 -0.303282,-1.09183 v -5.70173 l -0.18197,-1.94101 -1.577075,-2.54758 -0.485253,-1.3951 -2.365612,-2.54758 -1.759044,-2.850869 -1.637731,-0.121318 -1.941015,-0.485255 -0.18197,-0.606564 0.909851,-0.363945 -0.363941,-1.94101 -0.90985,-1.273791 -2.911522,-0.485255 -2.365611,-1.273791 -0.667224,-1.3951 -1.577074,-2.911528 -1.759044,-1.880356 h -1.759045 l -2.365611,-1.273791 -2.729552,-1.091818 -2.547581,-0.303282 -1.455762,-1.637737 0.303284,-1.152473 1.091821,-4.306629 0.485253,-1.152475 v -1.455764 l -0.970507,-0.606563 -0.303283,-1.759046 -0.909851,-1.577074 -2.062327,-3.518091 -0.788538,-1.880356 -0.90985,-2.850864 -0.970508,-3.21481 -1.941014,-2.668892 -0.303284,-1.759046 0.485254,-2.36561 h 0.667224 l 1.27379,-0.970509 0.667224,-2.183637 -0.606566,-1.637737 -1.637732,-0.303282 -1.152477,-1.577073 -1.273791,-2.2443 -0.121313,-4.973847 0.36394,-1.152474 0.36394,-1.395109 0.303284,-1.455755 -3.457432,-3.821374 v -1.273791 l 0.18197,-0.303282 0.18197,-1.941019 -0.788537,-2.426264 -1.395104,-2.911528 -1.637731,-2.729546 -1.091821,-2.36561 0.606567,-2.244301 0.36394,-3.518092 1.091821,-1.8803549 0.18197,-3.9426831 -0.667224,-2.1836459 -0.970507,-2.54758258 -1.637731,-2.54757362 0.485253,-1.9410189 0.909851,-2.5475825 1.091821,-0.4852547 0.18197,-0.6672185 1.880358,-1.5770732 3.154148,-7.1574931 0.121314,-4.488601 1.025098,-2.972174 23.468078,7.157493 15.528116,4.003338 -4.852537,18.985551 -5.258936,20.077369 7.660942,11.646086 25.572866,37.78912 10.372293,15.831406 -0.242627,1.880355 1.698391,3.154147 0.667228,3.275464 0.606563,0.90986 0.4246,0.36393 -0.121318,0.84919 -0.849191,0.60658 -2.062328,0.9705 -1.152482,1.27379 -1.031164,2.36562 -0.303282,2.85086 -1.577073,1.51641 -1.395104,0.66723 -0.06066,3.76072 -0.363941,1.15247 0.606568,1.03116 1.819696,0.18198 -0.242622,0.97051 -0.849194,1.21312 -2.365611,0.36395 z m -44.825303,-29.661127 0.788538,0.909846 -0.121314,0.788536 -1.941014,-0.06063 -0.36394,-0.727882 -0.363941,-0.909846 z m 1.152478,0 0.72788,-0.363945 2.183641,1.273791 1.880358,0.727882 -0.54591,0.363936 -2.729552,-0.121309 -0.970507,-0.970509 z m 12.555937,12.010017 1.091821,1.39511 0.485253,0.60657 0.909851,0.36393 0.36394,-0.90984 -0.606567,-1.09182 -1.637731,-1.21314 -0.667223,0.12131 v 0.72788 z m -0.849194,5.27714 1.091821,1.94101 0.727881,1.15248 -0.909851,0.12131 -0.788537,-0.72788 c 0,0 -0.424597,-0.90984 -0.424597,-1.15247 v -1.33445 z"
     id="CA" />
  <path
     style="fill:#bbbbbb;fill-opacity:1;stroke-width:1"
     inkscape:connector-curvature="0"
     d="m 234.15767,29.132027 -21.8364,-2.122991 -47.97945,-5.216475 -1.33446,13.405131 -4.24596,30.570982 -1.15248,8.309966 20.62327,2.36561 22.74628,2.668902 21.04787,1.819701 8.67391,0.363936 z"
     id="CO" />
  <path
     style="fill:#ffffff;fill-opacity:1;stroke:#000000;stroke-width:0.5;stroke-miterlimit:4;stroke-dasharray:none;stroke-opacity:1"
     d="m 527.31152,-57.776472 -0.42412,0.04857 -0.36489,0.97027 -0.3637,-0.303283 -0.60657,-0.606567 -0.90985,1.152714 -0.12084,1.38847 -0.48573,1.831548 -15.83116,4.119204 -0.60657,0.12084 -4.48883,1.335157 -2.72955,0.909852 -1.94054,-0.122024 -3.33612,0.789011 -1.88012,0.727407 -1.456,1.092293 -1.27355,1.455998 -1.63844,2.243825 -1.75929,2.729551 -0.90985,1.759281 -0.3637,0.484545 -3.51738,3.336118 0.12085,1.57802 0.48572,0.666987 1.09111,0.484544 h 1.09229 v 0.909851 l -0.66699,1.274737 0.18126,0.909851 0.90986,1.27355 -0.12084,1.394397 -1.15271,0.668171 h -1.27356 l -0.97027,1.151529 -1.09229,1.941722 -1.27356,1.091115 -3.15486,0.303282 -1.57683,0.668171 -1.27356,0.787825 -0.97027,-0.120838 -1.15272,-0.789008 -3.82184,0.122021 -1.94054,0.303282 -2.42627,0.787834 -2.66914,0.909845 -1.75927,1.092291 1.15271,3.699824 1.09229,0.120846 0.78783,1.8812992 0.12203,0.6065728 -0.66699,0.6065639 -1.27474,1.6372559 -0.30328,0.970269 -1.15154,1.0922993 -1.09229,0.666987 -0.60656,0.9702691 -0.78902,0.666987 -0.97027,0.7285854 0.30328,3.9426919 19.16729,-3.63940109 23.29241,-4.91296111 1.45599,1.4548114 2.00215,0.3032909 1.27356,3.57897811 1.21313,0.90985473 1.63726,0.18243567 0.3637,0.2428677 3.63941,1.57684179 3.94268,1.2131277 1.8197,0.9098547 0.12202,1.4559955 -0.30328,1.637256 0.18126,2.305427 0.60657,0.2416835 2.42627,-0.6669869 3.51855,-1.1527135 1.57685,-0.6065639 4.30638,-3.2140977 2.36585,-1.7592863 2.06256,-2.18340559 -2.5471,-0.97026896 -0.78901,0.90985472 -1.75928,1.63725593 -4.79212,2.3658502 -1.3944,-0.1220214 -0.97026,-0.3637051 -0.66818,0.3637051 -1.39438,1.5780169 -0.90986,0.7878244 -0.78901,0.1824446 -0.18126,-0.7890085 1.15153,-1.0911152 -0.30328,-0.5461408 0.48573,-0.363705 3.03283,-2.0625683 2.1834,-1.94172197 1.15272,-1.27355093 0.48573,0.36370511 1.63726,-0.90985471 3.15367,-0.666987 4.24596,-2.1229827 0.60658,-0.1812605 1.69885,-0.6681711 1.45601,-1.1515294 0.66698,-1.0922993 0.78901,0.1208462 1.69768,-0.8482475 0.48573,-0.2428677 1.27355,-0.5461496 -0.30328,-1.3955726 0.48572,-0.909854 1.7581,-0.909846 0.48573,1.881299 -0.30329,1.0911148 -1.45599,0.9098458 v 0.6065728 l 1.15271,-0.9098548 2.36585,-2.7295466 2.36585,-1.152713 2.5471,-0.909855 -0.18243,-1.454811 -0.60658,-1.759287 -1.15153,-1.455995 -1.09229,-0.485727 -1.27356,0.122022 -0.30328,0.303291 0.60656,0.787824 0.90986,-0.484542 1.27355,0.970269 0.48573,1.637255 -1.09229,1.092291 -1.39558,0.606573 -2.1834,-0.303282 -2.36585,-3.639401 -1.3944,-1.576842 h -1.09229 l -0.66699,0.484542 -1.15271,-1.576832 0.18245,-0.909855 1.45599,-3.153675 -1.75929,-2.669131 -0.24285,-0.546147 0.42411,-0.484544 0.66818,-1.941724 -1.63844,-0.727407 -0.30329,-1.880121 -2.48668,-0.66817 -0.18245,-1.819702 z m 23.77696,48.0882057 -0.30328,1.0306921 -1.33398,0.4253034 -0.30329,0.363705 2.36585,-0.06045 0.78783,-0.303282 -0.60657,-1.3955812 z m -5.94366,0.3637051 -1.39557,1.5768417 0.66699,0.5461407 1.33516,-0.6065638 1.45599,-0.6065728 -1.09229,-0.9098458 z"
     id="CT"
     inkscape:connector-curvature="0"
     sodipodi:nodetypes="cccccccccccccccccccccccccccccccccccccccccccccccccccccccccccccccccccccccccccccccccccccccccccccccccccccccccccccccccccccccccccccccccccccccccccccccccccccccccccccccccccc" />
  <path
     style="fill:#ffffff;fill-opacity:1;stroke:#000000;stroke-width:0.5;stroke-miterlimit:4;stroke-dasharray:none;stroke-opacity:1"
     d="m 502.62472,23.976207 -0.36489,0.06045 -1.0307,0.606564 -1.21312,1.031876 -0.12085,0.181261 -0.60656,-0.06045 -13.4665,2.608709 -22.80669,4.60967 1.21314,6.308533 2.91199,-2.972414 1.51642,-0.425303 0.84825,-0.909855 1.0923,-1.637256 0.97027,0.424128 1.57683,-0.120846 1.57803,-1.273551 1.21312,-0.909855 1.27356,-0.363696 0.90985,0.666987 1.63726,0.849432 1.15272,1.091106 0.78901,0.849432 2.9108,0.970269 -0.36369,1.759277 4.88096,1.835102 0.98212,1.413351 -0.52483,1.96779 -1.09229,1.576841 v 1.274735 l 0.18245,0.484543 1.21313,0.789008 2.06138,0.666987 2.60872,-0.06045 1.88011,0.606572 1.27356,0.181261 0.60656,-1.27356 -0.90985,-1.273551 v -1.09229 l -1.45481,-1.27356 -1.27474,-3.336119 0.78901,-3.214098 -0.12084,-1.274735 -0.789,-0.787833 c 0,0 0.90984,-0.970981 0.90984,-1.395573 0,-0.363945 0.30328,-1.273559 0.30328,-1.273559 l 1.15272,-0.789009 1.15271,-0.970269 0.30329,0.606564 -0.90985,0.970269 -0.78901,2.245013 0.18244,0.666987 1.09111,0.182445 0.30328,3.336119 -1.27355,0.606564 0.18244,2.183405 0.30329,-0.122021 0.66698,-1.15153 0.97027,1.091107 -0.97027,0.789008 -0.18244,2.062568 1.57684,2.061384 2.36584,0.303282 0.97028,-0.484542 1.94172,2.547102 0.60657,0.242867 4.48883,-1.759286 1.03069,-2.304243 0.30328,-2.911991 -0.18244,-0.606573 -1.39439,-4.428409 -0.60657,0.303282 -2.18341,-1.454812 -1.09229,-2.851576 -1.15271,-2.183406 -1.3944,-0.606564 -1.27474,-2.183405 0.30329,-1.213137 0.30328,-1.395572 z m -0.36489,22.382556 -1.15153,0.242868 0.66698,1.516419 0.12084,1.091106 0.66699,1.152714 c 0,0 0.54615,-0.545438 0.54615,-0.727411 0,-0.181963 -0.42412,-1.881298 -0.42412,-1.881298 z"
     id="DE"
     inkscape:connector-curvature="0"
     sodipodi:nodetypes="cccccccccccccccccccccccccccccccccccccccccccsccccccccccccccccccccccccccccccccccccccccscc" />
  <path
     style="fill:#bbbbbb;fill-opacity:1;stroke-width:1"
     inkscape:connector-curvature="0"
     d="m 458.58748,156.32913 -3.15415,-0.4246 -0.4246,0.48525 0.90986,2.6689 -0.24263,3.15415 -2.48693,-0.60656 -0.12131,-1.69839 h -2.48693 l -3.2148,0.4246 -19.65278,1.15247 -4.97384,-0.18197 -1.03117,-1.03117 -1.51642,-2.54757 h -3.57874 l -4.00334,0.30328 -21.47248,2.54758 -0.18196,1.69839 0.9705,0.97051 1.75904,1.21313 0.18198,5.09516 2.00167,-0.36394 3.6394,-1.27379 3.6394,-0.30328 2.66889,-0.36395 4.60991,1.09183 4.9132,2.36561 0.97051,0.90985 1.75904,0.66722 0.97051,1.15249 0.18196,1.63772 1.94102,-0.78853 h 2.36561 l 2.18365,-1.15249 2.24429,-2.18363 1.88036,0.12131 0.30329,-0.66722 -0.48526,-0.60657 0.12131,-1.15248 2.42627,-0.48525 h 1.57708 l 1.75904,0.90985 2.54759,0.90985 1.45575,2.2443 1.63774,0.60656 0.66722,2.06233 2.06232,0.97051 0.97051,1.57707 1.15248,0.36394 3.15415,0.78855 0.78854,1.88035 1.8197,2.2443 v 5.76238 l -0.90986,2.85087 0.18198,1.63773 0.78853,2.91152 1.09182,2.42627 0.48526,-0.30328 0.90985,-2.72956 -1.57708,-0.60656 -0.18196,-0.36395 0.97051,-0.36393 2.72954,0.60656 0.12132,0.97051 -1.94102,3.33612 -1.27379,1.45576 2.18365,2.24429 1.57707,1.88037 1.75904,3.2148 1.75904,2.36561 1.27379,3.03284 1.09183,0.18197 0.9705,-1.27379 1.09183,0.66723 1.57707,2.42626 0.36394,2.18364 1.88035,2.6689 0.48526,-0.78854 2.36561,0.18196 2.18364,1.39511 2.06233,3.15415 0.48526,2.06233 0.18196,1.75904 0.66723,0.60657 0.78853,0.30328 1.45577,-0.60656 0.90984,-0.97051 2.36561,-0.12131 1.88037,-0.90986 1.63773,-1.94101 -0.30329,-1.15248 -0.18197,-1.45575 0.36395,-1.15249 -0.18198,-1.15247 1.45577,-0.78854 0.18196,-2.06232 -0.36393,-1.09183 -0.30329,-7.2788 -0.78853,-4.60991 -2.72956,-4.97385 -2.18364,-3.51809 -1.57708,-3.2148 -1.75903,-1.75905 -1.75905,-4.48859 0.42459,-0.8492 0.66723,-0.78854 -0.97051,-1.75904 -2.42627,-2.2443 -2.91152,-3.33612 -2.2443,-3.82137 -3.21481,-5.70173 -2.24429,-5.8837 -1.39511,-4.42794 z m 10.73624,80.49144 1.45575,-0.36394 0.78854,-0.1213 0.90985,-1.39511 1.3951,-0.97051 0.78854,0.30329 1.03116,0.18196 0.24263,0.66723 -2.12298,0.72788 -2.54758,0.90985 -1.3951,0.72788 z m 8.18864,-3.03283 0.72789,0.66722 1.63773,-1.27379 3.2148,-2.54758 2.2443,-2.36561 1.51642,-4.00334 0.60657,-1.03116 0.12132,-2.06233 -0.4246,0.30328 -0.60657,1.69838 -0.90985,2.79021 -1.94102,3.21481 -2.66889,2.54759 -2.06233,1.15247 z"
     id="FL" />
  <path
     style="fill:#bbbbbb;fill-opacity:1;stroke-width:1"
     inkscape:connector-curvature="0"
     d="m 458.58748,155.72257 -3.39678,-0.4246 -0.84919,0.9705 0.9705,2.85087 -0.18196,2.36561 -1.33446,-0.36394 -0.12131,-1.8197 h -3.15414 l -3.21481,0.42459 -19.59212,1.15249 -4.67056,-0.18198 -0.84919,-0.72788 -1.51642,-2.60824 -0.48526,-2.00167 -0.97051,-0.54591 -0.30328,-0.30328 0.54591,-1.33445 -0.24263,-3.33612 -0.9705,-2.72955 0.48525,-2.97217 1.03116,-2.91152 -0.12131,-1.51642 -1.15247,-0.4246 -0.24263,-1.94102 -1.69839,-2.12298 -1.15247,-3.76071 -0.90986,-4.24598 -1.03116,-2.91152 -2.30495,-9.70507 -2.12299,-4.85254 -0.48525,-3.2148 0.0606,-1.3951 2.00167,-0.18197 8.24931,-0.97051 11.28215,-1.21314 3.82137,-0.66722 0.30329,0.84919 -1.33445,0.54591 -0.54592,1.33445 0.24263,1.21313 0.8492,0.97051 2.60824,1.63773 1.94101,-0.0606 1.94101,2.85087 0.36394,0.97051 1.39511,1.69838 0.30328,1.03116 2.85087,1.09183 1.8197,1.33445 1.3951,1.8197 1.39511,0.78853 1.21313,1.09182 0.8492,1.63773 1.27379,1.15248 2.48692,1.09182 1.63773,3.6394 1.03117,3.09349 1.69838,0.4246 1.27379,1.15248 1.21314,3.45743 1.75904,0.97051 1.03117,-0.48525 0.24262,0.72788 -2.00167,3.76071 0.30328,1.57707 -0.90984,2.54759 -1.39511,6.06567 0.48525,3.82137 z"
     id="GA" />
  <path
     style="fill:#bbbbbb;fill-opacity:1;stroke-width:1"
     inkscape:connector-curvature="0"
     d="m 341.27742,-2.3488005 1.27379,1.2737913 0.18197,0.42459117 -1.21314,1.81970053 0.18198,2.4262733 1.57707,2.4869191 1.88035,0.9705093 1.45577,0.1819727 0.54591,1.0918186 0.12131,1.455764 1.51641,0.6065635 0.54591,0.667228 0.30329,0.9705 2.30495,2.001673 0.36395,1.152482 -0.4246,1.819701 -1.03117,2.244292 -0.36393,1.455764 -1.2738,0.970509 -0.9705,0.303282 -3.45743,0.909846 -0.97051,2.911528 0.48525,1.091818 1.03117,0.909855 -0.12132,2.122983 -1.15247,0.849191 -0.4246,1.091818 v 1.455764 l -0.8492,0.242628 -1.03116,0.849191 -0.30328,1.031164 0.24263,1.031164 -0.78854,0.606573 -1.39511,-1.637737 -0.84919,-1.698383 -5.03451,0.485246 -6.06567,0.363946 -29.8431,0.727882 -0.97051,-2.608238 -0.24262,-4.064001 -0.8492,-2.547582 -0.4246,-3.154147 -1.33444,-2.2443 -0.60657,-2.79021 -1.63773,-4.73122 -0.66722,-3.3967735 -0.84919,-1.1524821 -0.78854,-1.7590459 1.03117,-2.3049552 0.72787,-3.70005573 -1.63773,-1.33444587 -0.18197,-1.455764 0.4246,-1.4557553 1.09182,-0.1819727 37.06124,-0.3639454 12.85923,-0.4245912 z"
     id="IA" />
  <path
     style="fill:#bbbbbb;fill-opacity:1;stroke-width:1"
     inkscape:connector-curvature="0"
     d="m 109.87209,-96.955063 -2.91152,10.560333 -2.72955,12.652988 -2.06233,9.838516 -0.24263,5.865504 0.72789,2.693157 2.12299,1.613469 -0.12132,2.371677 -2.36561,2.668894 -2.729556,4.003343 -0.545909,1.759044 -0.727882,0.667224 -1.091819,0.485254 -2.608237,3.214805 -0.242628,1.880357 -0.242627,0.667224 0.363946,0.606568 1.577073,-0.06065 0.667218,1.395104 -1.455755,3.518089 -0.727882,2.547582 -5.337791,21.4118115 12.555939,2.7295553 23.9594,4.79187438 21.10853,3.70006462 2.97217,-17.7117598 2.30496,-14.618263 -1.63773,-1.455761 -0.24263,-1.577074 -0.48525,-0.667224 -1.27379,0.606567 -0.4246,1.577075 -1.94101,0.303283 -2.36561,-0.970507 -2.30496,0.06066 -1.51641,0.424597 -2.06233,-0.909851 -1.45577,0.121314 -1.45576,1.213134 -1.21313,-0.667224 -0.4246,-2.426268 0.4246,-1.759044 -1.51642,-1.759045 -2.00167,-1.577075 -1.63773,-7.946027 -0.0606,-2.850865 -0.18197,-0.06065 -0.12132,0.242627 -3.09349,2.122984 -1.03116,-0.121313 -1.75904,-2.062328 -0.12132,-1.880358 4.24598,-10.390493 -0.24263,-1.17674 -2.06233,-0.697552 -0.36394,-0.715749 -1.57708,-2.098722 -2.79021,-6.20518 -1.94101,-0.928048 -1.21313,-3.002507 0.78853,-2.808406 -1.94101,-4.597777 2.66889,-13.053322 z"
     id="ID" />
  <path
     style="fill:#bbbbbb;fill-opacity:1;stroke-width:1"
     inkscape:connector-curvature="0"
     d="m 378.82392,16.272805 -0.48526,-1.577073 -0.78853,-2.244301 -0.97051,-1.091818 -0.90986,-1.5770735 -0.24263,-3.3361192 -9.64441,1.0918186 -10.55426,0.6065638 h -7.46078 l 0.12132,1.2737913 1.33444,0.5459093 0.66722,0.8491997 0.24263,0.849192 2.36562,2.062327 0.42459,1.455764 -0.42459,2.001665 -1.03116,2.2443 -0.48526,1.637728 -1.45576,1.152482 -1.15248,0.363937 -3.15415,0.788536 -0.78854,2.486928 0.36395,0.667228 1.15247,1.091818 -0.12131,2.608237 -1.27379,0.97051 -0.30328,0.788536 v 1.698383 l -1.09183,0.363945 -0.84919,0.727882 -0.24263,0.727873 0.24263,1.213137 -0.97051,0.788537 -0.54591,1.698391 0.18197,2.36561 1.3951,4.245965 4.24598,4.60991 3.45743,2.244301 v 2.668892 l 0.4246,0.727882 4.00333,0.363945 1.63774,0.849191 -0.4246,2.122983 -1.33445,3.760719 -0.48525,1.8197 1.21314,2.244292 3.88202,3.21481 2.91152,0.485255 1.33445,3.093492 1.21314,2.062327 -0.54591,1.698385 0.90984,2.304955 1.03117,1.273791 0.97051,-0.181964 0.60656,-1.334455 1.45576,-1.031163 1.6984,-0.606564 3.70005,1.516418 0.30328,-0.121318 V 78.93118 l -0.72788,-1.637728 0.24263,-1.698393 1.45576,-0.97051 2.06233,-0.727882 -0.30328,-0.788536 -0.48526,-1.213128 0.72789,-0.788537 0.60656,-1.637736 v -2.426265 l 0.24263,-2.972182 1.51642,-1.819701 1.09181,-2.304955 1.51642,-2.426264 -0.30328,-3.21481 -1.09182,-1.94101 -0.18197,-2.001673 0.48525,-3.214801 -0.4246,-4.367284 -0.66721,-9.583766 -0.8492,-9.280475 -0.54591,-7.09683 z"
     id="IL" />
  <path
     style="fill:#ffffff;fill-opacity:1;stroke:#000000;stroke-width:0.5;stroke-miterlimit:4;stroke-dasharray:none;stroke-opacity:1"
     d="m 447.24467,4.808924 -3.76023,2.2438287 -2.36586,1.3955724 -2.06256,2.2438289 -2.42627,2.365841 -1.94054,0.485727 -1.75928,0.30329 -3.33612,1.576833 -1.27355,0.120838 -2.06257,-1.880115 -3.15486,0.363705 -1.57683,-0.909855 -1.33398,-0.787824 -14.53394,2.124709 -0.084,-0.669898 -11.16107,1.092291 -8.67438,0.666987 -1.51642,1.092299 -1.27355,1.152713 -0.66699,0.181261 -0.90985,-0.606564 -1.8197,-0.484551 1.51641,18.257437 0.54615,7.642507 0.42412,4.306389 -0.48572,3.215272 0.18244,1.940547 1.09229,1.880124 0.30328,3.518555 -1.63844,2.54711 -1.0911,2.365851 -1.39558,1.759277 -0.24286,2.850393 v 1.578025 l 1.51642,-0.789017 3.45814,-0.606564 2.66794,-0.303282 0.97146,1.092291 0.72741,0.363705 0.84942,-1.759278 2.18341,-0.909854 1.456,1.030692 0.30328,0.546149 0.54614,-0.120846 -0.12202,-1.880115 3.15486,-1.8197 0.84825,1.030683 h 2.12298 l 0.30329,-0.849423 -0.12085,-1.456004 1.75929,-2.426265 2.85039,-2.183405 0.30329,-2.910816 1.94172,-0.242859 2.1834,-1.031876 1.3944,-0.970269 -0.12085,-0.787824 -0.789,-0.971453 0.36488,-1.758102 0.60657,-0.303282 2.36466,-0.122022 1.39559,-0.484542 2.1834,1.091106 1.03187,2.548295 3.27452,0.06045 1.09229,1.213127 h 1.03069 l 1.456,-0.849431 1.88012,0.303291 0.90985,0.789008 1.0923,-1.213137 1.39557,-0.849431 1.45482,-0.242859 0.36488,1.637256 0.97028,0.606564 1.57683,1.213137 0.48573,0.122021 1.21313,-0.06045 0.72741,-0.36488 v -1.27356 l 1.03069,-0.909846 0.0616,-2.910815 0.66699,-2.548295 1.15271,-0.787825 0.60657,0.424129 0.60657,0.666987 0.42412,0.122021 0.24287,-0.242868 -0.54615,-1.63844 v -1.333974 l 0.66698,-0.849431 1.51642,-2.183406 0.78901,-0.909846 1.33398,0.303282 1.27355,-0.909846 1.81971,-2.002145 1.33515,-2.243828 0.12084,-3.275696 0.30328,-3.032838 v -2.789969 l -0.72741,-1.940547 0.72741,-1.09229 0.78901,-0.727411 -0.3637,-1.698854 z"
     id="IN"
     inkscape:connector-curvature="0"
     sodipodi:nodetypes="ccccccccccccccccccccccccccccccccccccccccccccccccccccccccccccccccccccccccccccccccccccccccccccccccccccccccc" />
  <path
     style="fill:#bbbbbb;fill-opacity:1;stroke-width:1"
     inkscape:connector-curvature="0"
     d="m 298.27181,43.689631 -26.56763,-0.363936 -24.62662,-0.727882 -13.16251,-0.54591 -2.60824,39.305541 14.73959,0.606573 27.11354,1.273791 28.08405,0.363937 7.64274,-0.181973 0.4246,-21.229844 -0.72788,-6.732893 -1.51642,-1.213137 -1.45575,-1.819701 -1.39511,-2.183637 0.36394,-1.8197 1.03117,-0.8492 v -1.273792 l -0.48526,-0.424591 -1.57707,-0.121318 -2.12299,-2.062328 z"
     id="KS" />
  <path
     style="fill:#bbbbbb;fill-opacity:1;stroke-width:1"
     inkscape:connector-curvature="0"
     d="m 371.8484,87.544428 7.64274,-0.424591 0.0606,-2.486928 h 2.60825 l 18.43963,-1.941019 27.35617,-2.608237 3.39678,-2.183637 2.36562,-1.273793 0.0606,-1.152482 3.63941,-4.73122 2.48692,-2.183637 1.27379,-1.455764 -2.00167,-1.213137 -1.51642,-1.637728 -1.8197,-2.304955 -0.30328,-1.334446 -1.57707,-0.849191 -0.54592,-1.152482 -0.12131,-3.700056 -1.57707,-1.213136 -1.15249,-0.667228 -0.30328,-1.3951 -0.78853,0.121309 -1.21314,0.727882 -1.51641,1.637737 -1.15248,-1.031164 -1.51642,-0.303291 -1.45576,0.8492 h -1.39511 l -1.09181,-1.213137 -3.39678,-0.06063 -1.09183,-2.729556 -1.75903,-0.909846 -1.27379,0.485255 -2.54759,0.121309 -0.30328,1.273792 0.72787,0.909854 0.18198,1.273783 -1.69838,1.213136 -2.30496,1.091819 -1.57707,0.242627 -0.30329,2.729556 -2.97218,2.183637 -1.57707,2.2443 0.12131,1.334446 -0.54591,1.395109 -2.72956,-0.06063 -0.78853,-0.788537 -2.36561,1.334455 0.12132,2.001664 -1.45577,0.363946 -0.48525,-0.849201 -1.03117,-0.727873 -1.63773,0.667219 -1.09181,2.122982 -1.33446,-0.606564 -0.84919,-0.970509 -2.2443,0.242627 -3.39677,0.606573 -1.69839,0.788537 -0.72788,2.062328 -0.60657,0.606564 0.90985,2.2443 -2.54758,0.849191 -1.15247,0.849192 -0.24263,1.334456 0.72788,1.455755 v 1.334446 l -0.97051,0.242627 -3.70006,-1.516418 -1.3951,0.545918 -1.21314,0.849191 -0.48525,1.091819 1.03116,1.455764 -0.54591,1.091818 -0.0606,2.001674 -1.45576,0.788536 -1.27379,1.031164 z"
     id="KY" />
  <path
     style="fill:#bbbbbb;fill-opacity:1;stroke-width:1"
     inkscape:connector-curvature="0"
     d="m 323.14106,181.01641 4.9132,-0.18197 6.24764,2.18364 3.94268,0.66722 2.2443,-0.90984 1.94101,0.66721 1.94102,0.60658 0.48525,-1.27379 -1.94102,-0.66723 -1.57707,0.30328 -1.63773,-0.9705 0.48526,-0.90986 1.88035,-0.60656 1.09182,0.90985 1.09183,-0.60657 1.94101,0.36394 0.90985,1.45576 0.18197,1.3951 2.72955,0.18198 1.09182,1.09182 -0.48525,0.9705 -0.78854,0.48526 0.97051,0.97051 5.09516,2.18364 2.18364,-0.78854 0.60657,-1.45577 1.57708,-0.36393 1.09181,-0.90985 0.78854,0.60657 0.48526,1.75904 -1.39511,0.48526 0.36394,0.36393 2.06233,-0.78853 1.3951,-2.06233 0.48526,-0.30328 -1.2738,-0.18198 0.48526,-0.9705 -0.12131,-0.90985 1.27379,-0.30328 0.66722,-0.78854 0.36394,0.48525 0.36394,1.88036 2.54758,0.36394 2.42627,1.15248 0.60657,0.90985 h 1.75904 l 0.66723,0.60656 1.3951,-1.88036 v -0.90984 h -0.78854 l -2.06233,-1.63774 -3.51808,-0.48525 -1.94102,-1.3951 0.66723,-1.63773 1.3951,0.18196 0.12132,-0.36393 -1.09183,-0.60657 v -0.30329 h 1.94102 l 1.09182,-1.88035 -0.78854,-1.15248 -0.18197,-1.63773 -0.90985,0.12131 -1.15248,1.2738 -0.36394,1.57707 -1.88035,-0.36395 -0.60658,-1.09182 1.09183,-1.15247 1.15247,-1.03116 -1.33444,-3.94269 -2.06233,-2.06233 0.60656,-4.42794 -0.1213,-0.30328 -0.78854,0.12131 -20.07737,0.8492 -0.48526,-1.45577 0.48526,-5.15582 5.21647,-8.97719 -0.54591,-1.57707 0.8492,-0.24263 0.24262,-1.21313 -1.33444,-1.21313 0.0606,-1.15249 -1.21312,-2.72954 -0.24263,-3.0935 0.0606,-0.4246 -16.01337,0.48526 -15.2855,0.0606 0.24263,5.8837 0.4246,5.76238 0.30328,2.2443 1.57708,2.72956 0.54591,2.66889 2.60823,3.6394 0.18198,1.88036 0.36394,0.48525 -0.4246,5.03451 -1.69839,2.79021 0.72788,1.45576 -0.30328,1.57708 -0.48525,4.42794 -0.78854,1.8197 0.12132,2.24429 z"
     id="LA" />
  <path
     style="fill:#bbbbbb;fill-opacity:1;stroke-width:1"
     inkscape:connector-curvature="0"
     d="m 528.70662,-57.971 0.90986,0.242627 v -1.577074 l 0.48525,-3.336119 1.57708,-2.850865 0.90984,-2.426269 -1.15247,-1.45576 v -3.639402 l 0.48525,-0.606567 0.48525,-1.637731 -0.12131,-0.909851 -0.12132,-2.911522 1.09183,-2.911521 1.75905,-5.398447 1.27378,-2.547581 h 0.78854 l 0.78854,0.121313 v 0.667224 l 0.78854,1.395104 1.63773,0.36394 0.48525,-0.485253 v -0.606567 l 2.42626,-1.759044 1.09183,-1.091821 0.90985,0.121313 3.6394,1.455761 1.15248,0.606567 5.51976,18.136354 h 3.6394 l 0.48525,1.152477 0.12132,2.911522 1.75904,1.395104 h 0.48525 l 0.12132,-0.303284 -0.30328,-0.667223 1.69838,-0.303283 1.15248,1.27379 1.3951,2.244298 v 1.152478 l -1.27379,2.850865 -1.15247,0.36394 -2.06233,1.880358 -2.91153,3.336118 h -0.78853 c -0.36394,0 -0.60657,-1.27379 -0.60657,-1.27379 l -1.09182,0.121313 -0.60657,0.909851 -1.45575,0.90985 -0.60658,0.90985 0.97051,0.909851 -0.30328,0.363941 -0.30328,1.63773 -1.15248,-0.121314 v -0.970506 l -0.18197,-0.788538 -0.90985,0.18197 -1.09182,-1.941014 -1.27379,0.788538 0.78854,0.90985 0.18197,0.667224 -0.48526,0.788536 0.18197,1.880358 0.12132,0.970508 -0.97051,1.577074 -1.75905,0.303283 -0.18196,1.759045 -3.21481,1.880357 -0.78854,0.303284 -0.97051,-0.909851 -1.88035,2.183642 0.60656,1.941015 -0.90985,0.788536 -0.12131,2.668896 -0.66722,3.821372 -1.33445,-0.545911 -0.30329,-1.880357 -2.42626,-0.667224 -0.12131,-1.516418 -7.09684,-22.703804 z m 22.1397,9.462445 0.90985,-0.90985 0.8492,0.667224 0.36393,1.45576 -1.03116,0.545911 z m 4.064,-3.578744 1.09182,1.152476 c 0,0 0.78854,0.06066 0.78854,-0.121313 0,-0.18197 0.12131,-1.213134 0.12131,-1.213134 l 0.54592,-0.485253 -0.48526,-1.091822 -1.21314,0.424598 z"
     id="ME" />
  <path
     style="fill:#bbbbbb;fill-opacity:1;stroke-width:1"
     inkscape:connector-curvature="0"
     d="m 394.47334,14.271132 11.58543,-1.152473 0.12132,0.667218 6.00501,-0.909846 7.2788,-1.031164 0.0606,-0.363945 0.12131,-0.909846 1.27379,-2.2443005 1.21314,-1.031164 -0.12132,-3.0934918 0.97051,-0.9705093 0.66723,-0.1819638 0.1213,-2.18364603 0.90986,-1.81970054 0.66722,0.36393655 0.12132,0.36394545 0.48524,0.12130921 1.15248,-0.60656388 -0.24262,-5.51975636 -1.94102,-4.973856 -1.3951,-5.519756 -1.45577,-1.941019 -1.57707,-1.091818 -0.9705,0.667227 -2.36562,1.091819 -1.15247,3.032837 -1.63773,2.244291 -0.66723,0.363946 -0.90985,-0.363946 c 0,0 -1.57708,-0.909845 -1.45576,-1.273791 0.12131,-0.363936 0.30328,-3.032828 0.30328,-3.032828 l 2.06233,-0.788537 0.48526,-2.062328 0.36393,-1.577082 1.45577,-0.9705 -0.18197,-6.065673 -0.97051,-1.395104 -0.78854,-0.485253 -0.48526,-1.273791 0.48526,-0.485254 0.97051,0.181971 0.12132,-0.970508 -1.57709,-1.334448 -0.78853,-1.577074 h -1.57708 l -2.72954,-0.90985 -3.33612,-2.062328 h -1.63774 l -0.36393,0.36394 -0.60657,-0.303284 -1.88036,-1.395104 -1.75904,1.091821 -1.75905,1.395105 0.18197,2.18364 0.60657,0.18197 1.27379,0.303284 0.30328,0.485254 -1.57707,0.485254 -1.57707,0.18197 -0.90986,1.09182 -0.18197,1.273791 0.18197,0.970507 0.18198,3.336119 -2.18365,1.27379 -0.36394,-0.121313 v -2.547581 l 0.78854,-1.455761 0.36394,-1.455761 -0.48525,-0.485253 -1.15248,0.485253 -0.60656,2.547581 -1.63774,0.667224 -1.09182,1.152477 -0.12131,0.606568 0.36394,0.485253 -0.36394,1.577075 -1.39511,0.303282 v 0.667227 l 0.48526,1.455755 -0.66722,3.700065 -0.97051,2.426264 0.36393,2.850865 0.30329,0.667227 -0.48526,1.455755 -0.18196,0.485255 -0.18197,1.6377364 2.18364,3.6394011 1.75904,3.9426832 0.90985,2.9115191 -0.48525,2.8508645 -0.60657,3.63941 -1.45576,3.1541467 -0.18197,1.637727 -1.94101,1.880356 z m -20.19868,-43.915452 -0.78854,-0.667224 -1.09181,-6.308296 -2.2443,-0.788538 -1.03117,-1.395104 -7.64275,-1.698388 -1.69838,-0.667224 -4.91319,-1.334447 -4.73123,-0.606567 -2.36561,-3.214805 0.4246,-0.303284 1.63773,-0.485254 2.18364,-1.395104 v -0.606566 l 0.36394,-0.36394 3.6394,-0.606568 1.45577,-1.152477 2.66889,-1.273791 0.12132,-0.788537 1.15247,-1.759044 1.09182,-0.485254 0.78853,-1.091821 1.39511,-1.395104 2.6689,-1.455761 2.85086,-0.303283 0.66723,0.667224 -0.18198,0.606567 -2.2443,0.606567 -0.90984,1.880358 -1.39511,0.485253 -0.30328,1.455761 -1.45576,1.941014 -0.18197,1.577074 0.48525,0.303284 0.60657,-0.667224 2.18364,-1.759044 0.78854,0.788538 h 1.3951 l 1.94102,0.606566 0.90985,0.667224 0.90985,1.880358 1.63773,1.63773 2.36561,-0.121312 0.90985,-0.606568 0.97051,0.788538 0.9705,0.303283 0.78854,-0.485253 h 0.66723 l 0.97051,-0.606568 2.42626,-2.183641 2.06233,-0.667223 4.00334,-0.18197 2.72955,-1.152478 1.57707,-0.788538 0.90986,0.121314 v 3.457432 l 0.30328,0.18197 1.75905,0.485254 1.15247,-0.303284 3.70006,-0.970507 0.66722,-0.667223 0.90986,0.303282 v 4.24597 l 1.94101,1.880358 0.78853,0.36394 0.78854,0.606567 -0.78854,0.18197 -0.48524,-0.18197 -2.2443,-0.303283 -1.27379,0.36394 -1.39511,-0.121314 -1.94101,0.909851 h -1.09182 l -3.51809,-0.788537 -3.15415,0.121313 -1.15248,1.577074 -4.24597,0.363941 -1.45576,0.485253 -0.66722,1.880358 -0.78854,0.667224 -0.30329,-0.121314 -0.90984,-0.970507 -2.72956,1.455761 h -0.36393 l -0.66723,-0.970507 -0.48526,0.121313 -1.15247,2.668895 -0.60656,2.426268 -1.94102,4.185313 z m -17.95439,-34.271037 1.09183,-1.273791 1.33445,-0.485254 3.27545,-2.36561 1.39511,-0.36394 0.30328,0.303282 -3.09349,3.093492 -2.00167,1.152478 -1.27379,0.54591 z m 52.28608,19.470802 0.36395,1.516417 1.94101,0.121314 0.78853,-0.727881 c 0,0 -0.0606,-0.90985 -0.24262,-0.970507 -0.18197,-0.121313 -0.97051,-1.152477 -0.97051,-1.152477 l -1.33445,0.121313 -0.9705,0.121313 -0.18197,0.667224 z"
     id="MI" />
  <path
     style="fill:#bbbbbb;fill-opacity:1;stroke-width:1"
     inkscape:connector-curvature="0"
     d="m 285.35194,-73.201898 -0.36394,2.371677 v 6.229443 l 0.9705,3.051032 1.15248,2.013803 0.30328,6.02321 1.09182,8.158327 1.09182,4.42794 0.24263,3.882028 v 3.214806 l -0.9705,1.09182 -1.09183,0.788538 v 0.90985 l 0.54592,1.031164 2.48692,2.122984 0.4246,1.941015 v 21.7757598 l 36.57599,-0.3639454 12.85922,-0.4246001 -0.30329,-3.6394011 -1.09182,-1.2737912 -4.36728,-2.790201 -2.18364,-3.21481 -2.06233,-0.545909 -1.21313,-1.698392 h -1.94101 l -2.12299,-2.304955 -0.30329,-4.245965 0.0606,-2.365611 0.90986,-1.819701 -0.4246,-1.637731 -1.69839,-1.880358 1.33445,-3.700058 3.27546,-2.426268 0.72788,-0.849194 -0.12131,-4.852537 0.12131,-1.8197 1.57707,-1.819702 2.30496,-1.759044 0.78853,-0.121314 2.72956,-3.032834 1.09182,-0.485254 1.39511,-2.365612 1.45575,-2.183641 1.88037,-1.577074 2.91151,-1.213134 5.58042,-2.486925 2.36561,-1.091821 0.36394,-1.395104 -2.66889,0.242627 -0.4246,0.667223 h -0.36394 l -1.09182,-1.880357 -5.39844,0.18197 -0.60658,0.485253 h -0.60656 l -0.30328,-0.788536 -0.48526,-1.091821 -1.57707,0.303283 -1.94102,1.941015 -0.97051,0.485253 h -1.88035 l -1.57708,-0.606566 v -1.273792 l -0.78853,-0.121312 -0.30328,0.303282 -1.57708,-0.788536 -0.30329,-1.759044 -0.90984,0.303283 -0.30329,0.606567 -1.45576,-0.303284 -3.2148,-1.45576 -2.36562,-1.577074 h -1.75904 l -0.78853,-0.606568 -1.39511,0.36394 -0.66722,0.667224 -0.18197,0.788538 h -2.91152 v -1.273792 l -3.82138,-0.18197 -0.18197,-0.90985 h -2.91152 l -0.97051,-0.970507 -0.90985,-3.700059 -0.48525,-3.336119 -1.15248,-0.485254 -1.3951,-0.303283 -0.36395,0.121313 -0.18196,4.97385 -18.25767,-0.0182 z"
     id="MN" />
  <path
     style="fill:#bbbbbb;fill-opacity:1;stroke-width:1"
     inkscape:connector-curvature="0"
     d="m 363.29579,91.729747 0.3033,-3.578747 2.54757,-2.062327 1.15248,-0.606573 v -1.759046 l 0.4246,-0.970501 -0.66723,-0.970509 -1.45576,0.181973 -1.27379,-1.516419 -1.03117,-2.729555 0.54592,-1.577075 -1.21313,-1.94101 -1.09182,-2.79021 -2.79021,-0.4246 -4.12466,-3.396773 -1.33444,-2.547583 0.48524,-2.001673 1.33446,-3.639401 0.36393,-1.819701 -1.15247,-0.606564 -4.18532,-0.363945 -0.66722,-1.152473 v -2.486928 l -3.21481,-2.122983 -4.36728,-4.731219 -1.3951,-4.427947 -0.30328,-2.547574 0.42459,-1.455764 -1.57708,-1.880355 -0.72788,-1.455764 -4.67056,0.485255 -6.06567,0.363936 -29.60047,0.727882 0.78854,1.577074 -0.0606,1.334446 1.3951,2.183646 1.8197,2.365609 1.88036,1.819701 1.57708,0.121318 0.84919,0.667218 v 1.759046 l -1.09182,0.97051 -0.30328,1.3951 1.27378,1.941019 1.45576,1.8197 1.57708,1.273792 0.78853,7.036175 -0.48525,24.262681 0.30329,3.457429 14.37563,-0.12131 14.13301,-0.4246 19.71344,-0.788536 1.33444,2.2443 -0.48525,1.880355 -1.88036,1.516419 -0.30328,1.091819 3.15415,0.30329 2.48692,-0.667227 z"
     id="MO" />
  <path
     style="fill:#bbbbbb;fill-opacity:1;stroke-width:1"
     inkscape:connector-curvature="0"
     d="m 370.08935,172.88841 1.57707,-2.54759 1.09182,0.48526 4.12466,-1.15247 1.27379,0.18197 0.90985,0.48524 h 3.15415 l 0.24263,-0.9705 -1.03117,-8.97719 -1.69839,-11.52478 0.60658,-27.35617 -0.12132,-10.12966 0.12132,-3.82138 -2.91153,0.18198 -11.88871,0.9705 -7.88537,0.24262 -0.12132,1.94102 -1.69839,0.78854 -1.57707,3.09349 0.30329,0.97051 0.0606,1.45575 -1.75905,0.66723 -2.12298,3.09349 0.48525,1.3951 -1.8197,1.51642 -0.60657,3.45744 -0.36394,1.15247 0.97051,1.51642 -0.90985,0.84919 0.90985,1.69839 0.18196,2.54759 -0.72788,1.51642 -0.12131,0.5459 0.24263,3.03284 1.21314,2.72955 -0.0606,1.03116 1.39511,1.21314 -0.4246,1.88035 -0.54591,0.18198 0.36394,1.15247 -5.21648,9.09851 -0.48525,4.97385 0.30328,0.90984 14.67892,-0.42459 4.97386,-0.4246 1.15247,-0.18197 0.36395,0.8492 -0.60658,4.30662 2.00168,2.00167 1.33444,3.88203 z"
     id="MS" />
  <path
     style="fill:#bbbbbb;fill-opacity:1;stroke-width:1"
     inkscape:connector-curvature="0"
     d="m 222.57224,-70.787761 -3.2148,34.653173 -0.78853,9.21982 -35.84811,-4.003343 -29.72179,-4.306625 -0.8492,6.79355 -1.15247,-1.031164 -0.24263,-1.516418 -0.78853,-1.152477 -2.00168,0.909851 -0.4246,1.516417 -1.3951,0.181971 -2.30495,-0.970508 -2.48693,0.06066 -1.45575,0.424596 -1.94102,-0.90985 -1.8197,0.121313 -1.2738,1.152477 -0.5459,-0.36394 -0.4246,-2.062328 0.4246,-1.941014 -1.63773,-1.941015 -2.00168,-1.516417 -1.51641,-7.642745 -0.0606,-3.214805 -0.97051,-0.485253 -0.36394,0.606566 -2.72955,1.941014 -0.72789,-0.06065 -1.3951,-1.698388 -0.12131,-1.698388 4.24597,-10.402624 -0.36395,-1.619534 -2.12298,-0.679354 -0.24263,-0.551977 -1.63772,-2.122984 -2.79021,-6.314363 -1.94101,-0.958376 -1.09183,-2.583976 0.78854,-2.808404 -1.94101,-4.591714 2.66889,-12.913811 19.83474,4.179247 11.16083,2.062328 19.59212,3.214805 17.77241,2.426268 17.71176,2.122985 18.68227,1.86216 z"
     id="MT" />
  <path
     style="fill:#bbbbbb;fill-opacity:1;stroke-width:1"
     inkscape:connector-curvature="0"
     d="m 480.72717,103.25451 -7.7034,-4.670561 -1.88035,-0.485255 -10.06902,1.273792 -0.9705,-1.819701 -1.6984,-1.334446 -10.12966,0.303282 -4.48859,0.545909 -5.58042,2.729556 -4.12466,1.637724 -3.94268,0.72789 -8.12801,0.84919 0.0606,-2.48692 1.03117,-0.788539 1.63773,-0.4246 0.42459,-2.304955 2.36562,-1.516419 2.36561,-0.909846 2.72955,-2.2443 2.6689,-1.39511 0.42459,-1.941009 2.48693,-2.304955 0.4246,0.606563 1.51642,0.121319 1.45575,-2.183646 1.03117,-0.242628 1.57707,0.181973 1.09183,-2.426265 1.51641,-1.455764 0.30329,-1.091818 0.0606,-2.122983 2.66889,0.06063 23.35283,-3.396775 34.8776,-7.460775 1.21314,2.911519 2.18364,3.942683 1.45576,1.455764 0.36394,1.395102 -1.45576,0.121318 0.48526,0.363937 -0.18198,2.547583 -1.57707,0.788536 -0.36395,1.273791 -0.78853,1.759046 -2.24429,0.97051 -1.45577,-0.181973 -0.90985,-0.121309 -0.9705,-0.788546 0.18196,0.788546 v 0.606564 h 1.15248 l 0.48526,0.788536 -1.15248,3.821374 h 2.54758 l 0.36393,0.970509 1.39511,-1.395109 0.78854,-0.303282 -1.15248,2.183637 -1.88036,2.911528 h -0.78853 l -0.66722,-0.303282 -1.63774,0.363937 -3.15414,1.455764 -3.94269,3.214801 -2.06233,2.850858 -1.15248,3.94269 -0.30328,1.45576 -2.85086,0.30328 -3.0935,0.90986 z m 29.90376,-15.892046 1.57707,-1.516419 1.94102,-1.577073 0.90985,-0.363945 0.12131,-1.213137 -0.36394,-3.700056 -0.90985,-1.3951 -0.36394,-1.152484 0.4246,-0.121309 1.63773,3.336121 0.24262,2.668891 -0.12131,2.062328 -2.06232,0.909855 -1.6984,1.455755 -0.66721,0.727882 z"
     id="NC" />
  <path
     style="fill:#bbbbbb;fill-opacity:1;stroke-width:1"
     inkscape:connector-curvature="0"
     d="m 289.23396,-37.044438 -0.24262,-3.760715 -1.09182,-4.42794 -1.09182,-8.255377 -0.30329,-5.8837 -1.15247,-1.928883 -0.97051,-3.226936 v -6.314363 l 0.36394,-2.335284 -1.09183,-3.360381 -17.34781,-0.357874 -11.28215,-0.36394 -16.07402,-0.788538 -15.28549,-1.310184 -0.54591,8.746696 -2.85086,30.898525 34.453,2.36561 34.51366,1.031164 z"
     id="ND" />
  <path
     style="fill:#bbbbbb;fill-opacity:1;stroke-width:1"
     inkscape:connector-curvature="0"
     d="m 288.80936,10.207131 -0.60656,-1.3951009 -0.30328,-0.9705093 -1.75905,-0.9705093 -2.91152,-0.9098458 -1.33444,-0.727882 -1.57709,0.060628 -2.24429,0.2426273 -2.54758,0.727882 -3.6394,-2.4869279 -1.33445,-1.2131278 -6.49027,0.3639365 -25.17253,-1.455764 -21.59378,-1.33444583 -2.60824,26.50698003 20.07737,2.001674 -0.8492,12.798558 13.16251,0.606573 24.62662,0.727882 26.56763,0.363936 h 2.72956 l -1.33445,-1.8197 -1.57708,-2.36561 0.0606,-1.395109 -0.8492,-1.637728 -1.15248,-3.154147 -0.24262,-4.064001 -0.84919,-2.486928 -0.3033,-3.032828 -1.3951,-2.244301 -0.60656,-2.850864 -1.69839,-4.791883 -0.60657,-3.214801 z"
     id="NE" />
  <path
     style="fill:#bbbbbb;fill-opacity:1;stroke-width:1"
     inkscape:connector-curvature="0"
     d="m 503.17015,24.764744 0.0606,-0.909855 1.63774,-0.788536 1.03116,-1.698383 1.03117,-1.455764 2.00166,-1.941019 v -0.727873 l -3.70006,-2.486928 -0.60656,-1.637727 -1.63774,-0.181973 -0.0606,-0.545909 -0.4246,-1.334446 1.33445,-0.667228 0.12131,-1.7590456 -0.78854,-0.7885366 0.12131,-0.727882 1.15248,-1.8803551 V 3.3529285 l 1.51642,-1.880364 3.39678,1.5164186 3.88203,1.152482 1.51641,0.727882 0.0606,1.0918186 -0.30328,1.6377278 0.24263,2.7295555 -1.27379,1.152473 -0.66723,0.606573 0.30329,0.303282 1.63773,-0.181973 0.66722,-0.485255 0.97051,2.062328 0.12131,5.701729 0.36394,0.667227 -0.66722,3.33612 -1.88036,3.942683 -1.63773,2.426273 -0.48526,2.911519 -1.27379,1.455755 h -0.48525 l -0.18196,-1.637728 0.48524,-0.606564 -0.12131,-0.909854 -2.42626,-0.363937 -2.91153,-1.395109 -1.94101,-1.759037 -0.60657,-1.213137 z"
     id="NJ" />
  <path
     style="fill:#bbbbbb;fill-opacity:1;stroke-width:1"
     inkscape:connector-curvature="0"
     d="m 167.43531,146.74537 -10.12968,-1.57707 -0.72788,5.82304 -9.58376,-1.21313 3.63941,-24.08072 4.24597,-32.269361 2.66889,-18.742925 20.62328,2.365621 22.68561,2.668891 19.41015,1.698392 -0.18197,6.55092 -0.8492,-0.06063 -4.4886,59.261602 -17.2265,-1.09183 -23.1102,-2.24429 0.42459,3.82136 z"
     id="NM" />
  <path
     style="fill:#bbbbbb;fill-opacity:1;stroke-width:1"
     inkscape:connector-curvature="0"
     d="m 78.209297,-8.414475 23.474153,5.1558198 15.77074,3.15414644 -6.42961,32.20870976 -3.27547,18.075696 -2.00167,9.401793 -1.27379,6.732893 -1.57708,9.947703 -1.03116,1.880357 -0.97051,-0.06063 -0.72787,-1.577084 -1.698395,-0.303282 -0.788536,-0.667218 -1.091819,0.06063 -0.545909,0.485254 -1.091828,0.788539 -0.181963,4.427937 -0.181973,0.909855 -0.303282,7.52143 -0.667228,1.091818 L 83.48643,75.352431 57.949959,37.68462 50.41033,26.159844 55.596479,6.3857568 60.45508,-12.599785 Z"
     id="NV" />
  <path
     style="fill:#bbbbbb;fill-opacity:1;stroke-width:1"
     inkscape:connector-curvature="0"
     d="m 253.38585,89.424792 -1.09182,14.739578 -0.5459,10.9182 0.1213,0.97051 2.42628,2.18364 1.03116,0.54591 h 0.54591 l 0.54591,-1.27378 0.90985,1.15247 0.97051,0.0606 0.18197,-0.12131 0.12131,-0.66723 1.69839,0.84919 -0.24263,2.12299 2.30496,0.30328 1.51642,0.60657 2.54758,0.36394 1.3951,0.9705 1.51642,-1.03116 2.12298,0.4246 1.33445,1.88036 0.72788,0.0606 v 1.3951 l 1.27379,0.4246 1.51642,-1.27379 1.09182,0.36394 1.63773,0.0606 0.42459,1.39511 2.6689,1.09181 1.03117,-0.18197 1.15247,-2.54758 h 0.78854 l 0.66723,1.27379 2.54758,0.48526 2.06233,0.78853 1.8197,0.48526 0.9705,-0.42459 0.4246,-1.63774 h 2.72955 l 1.15248,0.54591 1.63772,-1.15247 h 0.8492 l 0.36394,0.84919 h 2.18365 l 1.21312,-1.09182 1.39511,0.36393 1.03117,1.33445 1.8197,1.03116 2.06233,0.54592 1.15247,0.72788 -0.18197,-22.80692 -0.8492,-6.611584 -0.0606,-5.216474 -0.90986,-4.003338 -0.36393,-4.124656 0.0606,-2.608246 -7.64274,0.181973 -28.08405,-0.303282 -27.11354,-1.273791 -25.17254,-1.091819 -0.24263,6.490266 z"
     id="OK" />
  <path
     style="fill:#bbbbbb;fill-opacity:1;stroke-width:1"
     inkscape:connector-curvature="0"
     d="m 44.447777,-17.331014 17.129453,4.367283 16.692724,3.9426921 10.311639,2.2442917 5.337786,-21.2904988 0.727882,-2.668894 1.455764,-3.33612 -0.4246,-0.788536 -1.516418,0.06065 -0.788537,-1.09182 0.363946,-0.90985 0.242627,-2.001672 2.850864,-3.457432 1.152474,-0.54591 0.545909,-0.485254 0.4246,-1.637731 0.485255,-0.667224 2.365605,-3.457432 2.2443,-2.426268 0.12131,-1.977408 -2.06232,-1.510352 -0.72789,-2.75988 -7.946016,-2.323151 -9.28048,-2.104788 -8.977192,0.22443 -0.667224,-0.794603 -3.093492,1.116083 -2.729551,-0.291152 -1.455761,-0.958376 -0.788537,0.327546 -2.838734,-0.175904 -1.188871,-0.867391 -2.935785,-1.073624 -0.667223,-0.04246 -2.699223,-0.77034 -1.067558,0.921981 -3.79711,-0.145576 -3.220871,-2.335283 0.127379,-5.628942 -1.243462,-2.122984 -2.486925,-0.363941 -0.424597,-1.516417 -1.455761,-0.303284 -3.518088,1.273791 -1.395104,3.942685 -1.941015,6.06567 -1.941014,3.942686 -3.032836,8.552595 -3.942686,8.249312 -4.913192,7.642745 -1.152478,1.759044 -0.485253,5.216476 -0.788537,3.639402 1.643796,2.122981 z"
     id="OR" />
  <path
     style="fill:#bbbbbb;fill-opacity:1;stroke-width:1"
     inkscape:connector-curvature="0"
     d="m 450.33817,2.8676738 0.78853,-0.3032819 3.45744,-3.33611914 0.42459,4.18531034 20.32,-3.94268301 22.38232,-4.73122869 1.3951,1.3951094 1.88037,0.2426273 1.21312,3.39677393 1.45577,1.15247315 1.69838,0.24262732 0.0606,0.060628 -1.57707,1.9410187 v 1.8803551 l -1.15249,1.8803641 -0.12131,1.1524731 0.78854,0.7885366 -0.12132,1.1524819 -1.45575,0.667219 0.60656,2.062327 0.12131,0.667228 1.69839,0.181964 0.54591,1.516418 3.57875,2.365619 v 0.242618 l -1.88036,1.81971 -0.90985,1.334446 -1.03117,1.698382 -1.63772,0.727882 -0.8492,0.181973 -1.27379,0.788536 -0.97051,0.849192 -13.5871,2.608237 -23.47414,4.731228 -6.85421,0.849192 -2.36561,0.4246 -3.0935,-13.587104 -2.60823,-15.7100866 z"
     id="PA" />
  <path
     style="fill:#bbbbbb;fill-opacity:1;stroke-width:1"
     inkscape:connector-curvature="0"
     d="m 463.92527,137.16161 -1.27379,-0.60657 -1.15248,-3.39677 -1.51642,-1.3951 -1.51641,-0.30328 -0.90986,-2.79021 -1.8197,-3.94269 -2.54758,-1.09182 -1.15247,-1.09182 -0.72789,-1.57708 -1.45576,-1.21313 -1.3951,-0.78854 -1.33445,-1.75905 -1.94101,-1.45575 -2.6689,-1.03116 -0.24262,-0.8492 -1.39511,-1.69839 -0.30328,-0.90985 -2.30496,-3.27546 -2.06233,0.0606 -2.36561,-1.51642 -0.72788,-0.72788 -0.12131,-0.84919 0.36394,-0.97051 1.63773,-0.78854 -0.48525,-1.21313 3.88203,-1.63773 5.58041,-2.729557 4.30663,-0.545909 9.9477,-0.303282 1.3951,1.152482 1.09182,2.122986 2.79021,-0.485258 7.64275,-0.909855 1.63772,0.485255 7.5821,4.488598 6.12632,5.0345 -3.2148,3.27547 -1.57708,3.70005 -0.30328,3.82138 -0.97051,0.48525 -0.66723,1.63773 -1.45575,0.36395 -1.27379,2.18363 -1.63774,1.63774 -1.3951,2.06233 -0.97051,0.48524 -2.18364,2.06233 -1.75904,0.12132 0.60656,1.94101 -3.03283,3.21481 -1.3951,0.97051 z"
     id="SC" />
  <path
     style="fill:#bbbbbb;fill-opacity:1;stroke-width:1"
     inkscape:connector-curvature="0"
     d="m 289.23396,-3.8652192 -0.54591,1.9410099 0.24263,1.81970054 1.57707,1.21313666 -0.72788,3.2754645 -1.09182,2.4869191 0.90985,2.0016732 0.4246,0.6672274 -0.78854,0.060628 -0.4246,-0.9705093 -0.36393,-1.2131367 -2.00168,-1.0918185 -2.91152,-0.9098458 -1.51641,-0.7885366 -1.75905,0.060628 -2.36561,0.2426273 -2.30495,0.727882 -3.21481,-2.3049552 -1.63773,-1.455764 -6.61158,0.4852547 -25.17253,-1.45576403 -21.59379,-1.33444588 0.90985,-15.04285909 1.69839,-20.623281 0.24262,-3.032835 34.51367,2.365612 34.51366,1.031163 v 1.637731 l -0.78853,0.909851 -1.21314,0.90985 -0.0606,1.334448 0.66723,1.334448 2.48692,2.062328 0.30328,1.63773 V -4.1079 Z"
     id="SD" />
  <path
     style="fill:#bbbbbb;fill-opacity:1;stroke-width:1"
     inkscape:connector-curvature="0"
     d="m 410.42605,104.407 -7.94603,0.72788 -14.133,1.33444 -22.80692,1.63773 -7.1575,0.24263 0.54591,-0.36394 0.54592,-2.72955 -0.72788,-2.18364 2.36561,-1.39511 0.24262,-1.51642 0.72789,-2.608235 1.8197,-5.762383 0.30328,-3.396774 0.18197,-0.121318 7.46078,-0.12131 8.24931,-0.485254 0.0606,-2.36561 2.12298,-0.06063 18.43964,-2.001664 32.75462,-3.154156 6.24764,-0.909845 4.60991,-0.121319 1.45575,-1.152473 0.78854,0.181973 -0.0606,2.001664 -0.24263,0.97051 -1.45575,1.334446 -0.97051,2.183646 -1.21314,-0.242628 -1.45575,0.54591 -1.33446,2.001673 -0.84919,-0.121318 -0.48525,-0.727882 -0.66722,0.242627 -2.60825,2.426273 -0.48524,1.880356 -2.54759,1.334445 -2.60823,2.183646 -2.30496,0.909846 -2.6689,1.698392 -0.36394,2.183637 -1.51641,0.303282 -1.21314,1.031163 -0.12131,2.91153 z"
     id="TN" />
  <path
     style="fill:#bbbbbb;fill-opacity:1;stroke-width:1"
     inkscape:connector-curvature="0"
     d="m 175.07805,144.44042 22.44298,2.18363 17.77241,1.15249 4.4886,-59.261603 32.99725,1.455764 -1.03116,14.133009 -0.60658,10.91821 0.12132,1.21313 2.66889,2.48692 1.21314,0.66723 h 1.09182 l 0.30328,-0.72788 0.4246,0.54591 1.45576,0.12132 0.66722,-0.36395 v -0.12131 l 0.60657,0.30328 -0.24262,2.2443 2.72954,0.42459 1.45577,0.54591 2.54758,0.4246 1.57707,1.09182 1.69839,-1.15247 1.63773,0.36394 1.33445,1.88035 0.48525,0.0606 v 1.27379 l 2.00168,0.66722 1.51641,-1.27379 0.90985,0.30328 1.27379,0.0606 0.36394,1.27379 3.15415,1.21313 1.3951,-0.30329 1.15248,-2.42626 h 0.0606 l 0.66721,1.15247 2.79021,0.54591 2.06233,0.78854 1.94102,0.60657 1.45576,-0.72788 0.4246,-1.3951 h 2.18363 l 1.27379,0.60656 1.8197,-1.21313 h 0.24263 l 0.30328,0.84919 h 2.85088 l 1.15247,-1.09182 0.78854,0.24263 1.03116,1.27379 2.00167,1.15248 2.06233,0.60656 1.51642,0.8492 1.63773,1.21313 1.88035,-0.72788 1.2738,0.48525 0.4246,12.13134 0.4246,5.76239 0.36393,2.48693 1.57707,2.66889 0.54591,2.72955 2.54759,3.57875 0.18197,1.88035 0.36394,0.48526 -0.4246,4.67056 -1.75904,2.91152 0.78854,1.57709 -0.30329,1.45575 -0.48525,4.36728 -0.78854,1.8197 0.18197,2.54759 -3.39678,0.97051 -6.00501,2.72955 -0.60656,1.15247 -1.57708,1.15248 -1.27379,0.90985 -0.78854,0.48526 -3.45743,3.2148 -1.63773,1.27379 -3.21481,1.94102 -3.45743,1.45575 -3.82137,2.06233 -1.09182,0.90986 -3.51809,2.18363 -2.06233,0.36395 -2.36561,3.33612 -2.42626,0.18197 -0.60658,1.15247 1.39511,1.15248 -0.90985,3.33612 -0.78854,2.72955 -0.66723,2.36561 -0.48524,2.72956 0.48524,1.45575 1.09183,4.24597 0.60657,3.70006 1.09181,1.63774 -0.60656,0.90984 -1.88035,1.15249 -3.45744,-2.36562 -3.33612,-0.66722 -0.78854,0.30328 -1.94101,-0.36394 -2.54758,-1.88036 -3.15415,-0.66722 -4.60991,-2.06233 -1.27379,-2.36561 -0.78853,-3.94269 -1.94102,-1.15247 -0.36394,-1.39511 0.36394,-0.36394 0.18197,-2.06233 -0.78854,-0.36393 -0.36394,-0.60658 0.78853,-2.66889 -0.9705,-1.39511 -1.94101,-0.78853 -2.06233,-2.66889 -2.18364,-4.00335 -2.54758,-1.57707 0.12131,-1.15248 -3.2148,-7.46077 -0.48526,-2.54758 -1.09182,-1.15248 -0.12132,-0.90985 -3.6394,-3.2148 -1.57707,-1.88037 v -0.66722 l -1.57707,-1.27379 -4.12466,-0.66723 -4.4886,-0.36393 -1.88036,-1.39511 -2.72954,1.09183 -2.18365,0.90984 -1.3951,1.94102 -0.60657,2.24429 -2.66889,3.70007 -1.45577,1.45575 -1.57707,-0.60656 -1.09182,-0.66723 -1.15248,-0.36394 -2.36561,-1.3951 v -0.36394 l -1.09182,-1.15247 -3.15415,-1.2738 -4.4886,-4.73122 -1.3951,-2.85087 v -4.91319 l -1.94102,-3.94268 -0.30328,-1.63773 -0.9705,-0.60657 -0.66723,-1.2738 -3.03283,-1.27379 -0.78854,-0.9705 -4.30663,-4.79188 -0.78853,-1.94102 -2.85087,-1.3951 -0.90984,-2.66889 -1.57708,-1.75905 -1.03116,-0.30328 z m 105.78529,85.95054 -0.36394,-4.30662 -1.63773,-4.36728 -0.36395,-4.24598 0.90986,-4.97384 2.00167,-4.18531 2.12298,-3.27547 1.94101,-2.18364 0.36395,0.12131 -2.91152,4.00335 -2.6689,3.94268 -1.21313,4.00334 -0.18197,3.15416 0.54591,3.70005 1.57707,4.36729 0.30328,3.15414 0.12132,0.90986 z"
     id="TX" />
  <path
     style="fill:#bbbbbb;fill-opacity:1;stroke-width:1"
     inkscape:connector-curvature="0"
     d="m 142.0808,71.83434 14.92155,2.183646 1.15248,-8.309967 4.24597,-30.631636 1.3951,-13.344476 -19.53145,-2.122983 1.33444,-7.946029 1.09182,-6.4296113 -21.04788,-3.7000557 -7.58208,-1.51641864 -6.42961,32.08739164 -3.27547,18.197014 -2.00166,9.34113 -1.03116,5.58042 z"
     id="UT" />
  <path
     style="fill:#bbbbbb;fill-opacity:1;stroke-width:1"
     inkscape:connector-curvature="0"
     d="m 509.84239,47.147069 -0.12132,1.698382 -1.75903,2.304955 -0.24263,2.79021 0.30328,2.062328 -1.09182,3.032837 -1.33445,1.152473 -0.90985,-2.79021 0.24263,-3.275455 0.97051,-2.547583 0.42459,-2.001673 -0.0606,-1.031164 z m -36.57599,27.052889 -23.41349,3.396776 -2.91152,-0.06063 -1.33444,-0.181964 -1.51642,1.152473 -4.42794,0.06063 -6.24765,0.970509 -4.06399,0.363946 2.48692,-1.577073 2.48693,-1.39511 v -1.273793 l 3.45743,-4.427937 2.48692,-2.244301 1.33445,-1.516419 2.18365,2.608246 2.30495,0.54591 1.63773,-0.606573 1.21313,-0.909846 1.45576,0.727882 2.79021,-0.788537 1.03116,-2.6689 1.45577,0.4246 1.94101,-1.39511 0.97051,0.242628 1.69839,-1.94101 0.12131,-1.637737 -0.48526,-0.727873 2.91153,-6.368956 1.09182,-3.154147 0.30328,-2.850864 0.4246,-0.121318 0.66722,1.031164 0.90985,0.727882 2.36561,-0.121309 1.03117,-4.913202 1.8197,-0.363936 0.48525,-1.577073 1.69839,-1.334446 0.66722,-1.273792 1.09182,-2.608237 0.0606,-2.79021 2.18365,0.849192 4.00333,1.880355 0.18198,-3.154147 2.06232,0.727882 -0.36393,1.759046 5.21647,1.880355 0.84919,1.091819 -0.48525,2.001673 -0.78854,0.788537 -0.30328,1.031164 0.30328,1.455764 1.21314,0.788536 2.36561,0.849192 1.75904,0.606572 2.97219,0.54591 1.33444,1.273791 1.94101,0.242627 0.54591,0.727873 -0.24263,2.850865 0.8492,0.667227 -0.30328,1.152482 0.72788,0.485246 -0.12131,0.8492 -1.63773,-0.06063 0.0606,0.97051 1.3951,0.909854 0.0606,0.849192 1.09183,1.091818 0.30328,1.516419 -1.57707,0.849191 0.97051,0.909855 3.51808,-1.031164 2.2443,3.760719 z"
     id="VA" />
  <path
     style="fill:#bbbbbb;fill-opacity:1;stroke-width:1"
     inkscape:connector-curvature="0"
     d="m 48.73014,-72.649922 -1.395104,-2.608238 -2.486925,-0.424597 -0.242627,-1.455761 -1.516418,-0.36394 -1.759044,-0.303284 -1.09182,0.606567 -1.395104,-1.759044 0.18197,-1.759044 1.63773,-0.18197 0.970508,-2.426268 -1.577074,-0.667224 0.121313,-2.244298 2.668895,-0.36394 -1.637731,-1.637732 -0.909851,-4.306625 0.36394,-1.759045 v -4.791879 l -1.09182,-1.941016 1.395104,-5.70173 1.27379,0.30329 1.455762,1.75904 1.63773,1.57708 1.941015,1.15247 2.729552,1.27379 1.880358,0.36394 1.759044,0.909852 2.062328,0.606568 1.395104,-0.121314 v -1.455756 l 0.788537,-0.66723 1.273791,-0.78854 0.18197,0.66723 0.18197,1.09182 -1.395104,0.303282 -0.18197,1.273791 1.09182,0.909851 0.667224,1.45576 0.36394,1.152478 0.90985,-0.121314 0.121314,-0.788537 -0.606567,-0.788537 -0.303283,-1.941014 0.485254,-1.091822 -0.363941,-0.909848 v -1.57708 l 1.091821,-2.18363 -0.667224,-1.57709 -1.45576,-2.91152 0.18197,-0.48525 0.849193,-0.48525 2.668895,0.90985 5.8837,1.63773 5.216477,1.15248 12.13134,3.45743 13.951048,3.457432 9.0985,2.116919 -2.91152,10.651318 -2.72956,12.634791 -2.06232,9.856713 -0.24263,5.568286 -7.824712,-2.256429 -9.280477,-2.104788 -8.795222,0.194101 -0.667223,-0.928048 -3.457432,1.267726 -2.365612,-0.254758 -1.577074,-1.085755 -1.031164,0.394268 -2.517253,-0.151641 -1.043296,-0.800669 -3.129886,-1.103952 -0.715749,-0.09705 -2.911522,-0.843127 -1.164608,1.000834 -3.427104,-0.151641 -2.796274,-2.031999 z m 5.823043,-33.603818 1.213134,-0.12131 0.303284,0.84919 0.90985,-0.97051 h 1.395104 l 0.485254,0.90986 -0.90985,1.03116 0.36394,0.48526 -0.424597,1.21313 -0.849193,0.24262 c 0,0 -0.545911,0.0606 -0.545911,-0.12131 0,-0.18197 0.909851,-1.57707 0.909851,-1.57707 l -1.031164,-0.36394 -0.18197,0.90985 -0.424598,0.36394 -0.90985,-1.3951 z"
     id="WA" />
  <path
     style="fill:#bbbbbb;fill-opacity:1;stroke-width:1"
     inkscape:connector-curvature="0"
     d="m 331.93629,-47.052793 1.75904,0.303283 1.75904,-0.363941 4.4886,-1.941014 1.75905,-1.152478 1.27379,-0.485252 1.15247,0.90985 -0.66723,0.667224 -1.15247,1.880358 -0.36394,1.152476 0.60657,0.363941 1.09182,-0.606567 0.66722,-0.121314 1.63773,0.485254 0.36395,0.667224 0.66721,0.121313 0.36395,-0.667223 2.42626,3.214805 4.97385,0.72788 4.97386,1.334448 1.57707,0.667224 7.46077,1.577074 0.97051,1.395104 2.18364,0.72788 1.03117,6.186984 0.9705,0.849194 0.90985,0.54591 -0.66722,1.395104 -1.09183,0.970507 -1.27379,2.850866 -0.78853,1.455764 0.12131,1.091818 0.90985,0.181973 0.66723,-1.152482 0.90984,-0.485255 0.48526,-1.3951 1.15248,-1.091819 1.63773,-2.426272 2.54758,-3.821372 0.48526,-0.303284 0.18197,0.606568 -0.12132,1.395104 -1.75905,4.124656 -1.63772,3.457429 -0.30329,1.941018 -0.36394,1.577073 0.48525,0.788537 -0.12131,1.637728 -1.15248,1.455764 -0.30328,1.091818 0.36395,2.183646 0.36393,2.0623281 -0.90985,1.5770732 -0.48525,1.7590459 -0.60657,1.8803552 0.66723,1.4557641 0.36393,3.7000557 0.97051,2.7295553 -0.12132,1.8197005 -9.64441,1.0918186 -10.61492,0.6065639 h -7.7034 l -0.4246,-0.9098458 -1.75904,-0.2426274 -1.57708,-0.7885366 -1.3951,-2.2443006 -0.18197,-2.183646 1.21313,-1.75903701 -0.30328,-0.84920009 -1.27379,-1.3344459 -0.48525,-2.0016734 -0.36394,-4.1246558 -1.27379,-1.5164099 -4.24598,-2.729555 -2.30495,-3.275465 -2.06233,-0.606563 -1.33445,-1.698392 h -1.94101 l -1.75904,-2.001664 -0.30329,-3.942692 0.0606,-2.304952 0.90984,-1.880358 -0.48525,-1.941014 -1.51642,-1.698388 1.09183,-3.275462 3.15414,-2.304955 0.97051,-1.152477 -0.12132,-4.913193 0.12132,-1.698388 1.45576,-1.698388 z"
     id="WI" />
  <path
     style="fill:#bbbbbb;fill-opacity:1;stroke-width:1"
     inkscape:connector-curvature="0"
     d="m 463.86461,40.535485 3.51809,-3.639401 1.57707,-0.485255 0.97051,-0.909855 0.90985,-1.334445 0.66722,0.181972 1.88036,-0.121318 2.79021,-2.183637 0.90985,-0.303282 0.78854,0.606564 1.57707,0.727882 1.8197,1.819701 -0.24262,2.608237 -3.27547,-1.577074 -2.91152,-1.091818 -0.0606,3.578746 -1.57707,3.457429 -1.75904,1.455764 -0.48526,1.3951 -1.8197,0.303282 -1.03116,4.913193 -1.6984,0.121318 -0.66721,-0.606564 -0.72789,-1.213137 -1.33444,0.303282 -0.30328,3.093492 -1.09183,3.093492 -3.03283,6.672238 0.54591,0.849191 -0.0606,1.213137 -1.33445,1.516418 -0.9705,-0.242627 -1.88037,1.395101 -1.69838,-0.485255 -1.09183,2.972183 -2.30494,0.606563 -1.51642,-0.788536 -1.51642,1.152482 -1.39511,0.424591 -1.94101,-0.485255 -2.30495,-2.729546 -2.12299,-1.334446 -1.51642,-1.516419 -1.75904,-2.2443 -0.30328,-1.395101 -1.6984,-1.031164 -0.36393,-0.788536 -0.12132,-3.396783 0.18197,0.06063 1.45577,-0.121318 1.09182,-0.606564 v -1.334446 l 1.03116,-0.909854 0.0606,-3.154147 0.54591,-2.183646 0.66722,-0.424591 0.24263,0.181964 0.60657,0.667227 1.03116,0.303282 0.66723,-0.788537 -0.60658,-1.880355 v -0.970509 l 1.88037,-2.79021 0.72787,-0.788536 1.21314,0.303281 1.57707,-1.091818 1.88036,-2.062328 1.45576,-2.486919 0.12132,-3.396783 0.30328,-2.911519 V 25.73522 l -0.66723,-1.81971 0.54591,-0.788536 0.48526,-0.424592 2.60823,11.70674 2.60825,-0.485254 6.79355,-0.788537 z"
     id="WV" />
  <path
     style="fill:#bbbbbb;fill-opacity:1;stroke-width:1"
     inkscape:connector-curvature="0"
     d="m 217.65905,-15.511304 -0.90984,15.40679524 -2.6689,26.68895276 -1.63773,-0.181972 -50.52704,-5.519757 -16.92321,-1.8197 1.21313,-7.278811 4.18531,-24.869244 2.30495,-14.678922 0.78854,-6.793551 29.23654,4.245969 35.84811,3.942686 z"
     id="WY" />
  <path
     id="path5608"
     d="m 436.34221,-98.656511 0.90985,0.606567 0.66722,-0.18197 1.27379,-1.152477 1.51642,-1.091819 8.67391,-0.66723 11.16084,-1.09182 0.9705,9.401792 2.97218,25.839755 -0.36395,1.759045 0.78855,0.970507 0.12131,0.788537 -1.3951,0.970508 -2.18365,1.031164 -1.94101,0.242626 -0.30329,2.911522 -2.85086,2.183642 -1.75904,2.426268 0.12131,1.455758 -0.30328,0.849193 h -2.12299 l -0.8492,-1.031164 -3.15414,1.819702 0.12132,1.880358 -0.54592,0.121313 -0.30328,-0.54591 -1.45576,-1.031164 -2.18365,0.90985 -0.84919,1.759045 -0.72788,-0.36394 -0.97051,-1.091821 -2.66889,0.303283 -3.45744,0.606567 -1.51641,0.788537 v -1.577074 l 0.24263,-2.850865 1.3951,-1.759042 1.09182,-2.365611 1.63774,-2.547581 -0.30329,-3.518089 -1.09182,-1.880358 -0.18198,-1.941014 0.48526,-3.214806 -0.42459,-4.306626 -0.54591,-7.642744 -1.51642,-18.257668 z"
     inkscape:connector-curvature="0"
     style="fill:#bbbbbb;fill-opacity:1;stroke-width:1" />
  <path
     id="path5610"
     d="m 461.1508,-101.62869 1.03116,9.40179 2.91152,24.929904 2.36561,-0.121313 1.39511,-0.485254 2.18364,1.091821 1.03116,2.547581 3.27547,0.06065 1.09182,1.213134 h 1.03116 l 1.45576,-0.849194 1.88036,0.303283 0.90985,0.788537 1.09182,-1.213134 1.3951,-0.849194 1.45577,-0.242626 0.36393,1.63773 0.97051,0.606568 1.57708,1.213134 0.48525,0.121313 1.21314,-0.06065 0.72788,-0.36394 v -1.273791 l 1.03116,-0.909851 0.0606,-2.911522 0.66723,-2.547581 1.15247,-0.788537 0.60657,0.424597 0.60657,0.667223 0.42459,0.121314 0.24263,-0.242626 -0.54591,-1.637732 v -1.334447 l 0.66722,-0.849194 1.51642,-2.183641 0.78854,-0.909851 1.33445,0.303284 1.27379,-0.909851 1.8197,-2.001671 1.33444,-2.244298 0.12132,-3.275462 0.30328,-3.032835 v -2.790209 l -0.72788,-1.941014 0.72788,-1.09182 0.78854,-0.727881 -0.36395,-1.698388 -2.60823,-15.528116 -3.76071,2.2443 -2.36562,1.3951 -2.06233,2.2443 -2.42626,2.36561 -1.94101,0.48526 -1.75905,0.30328 -3.33612,1.57707 -1.27379,0.12132 -2.06233,-1.88036 -3.15414,0.36394 -1.57709,-0.90985 -1.33444,-0.78854 z"
     inkscape:connector-curvature="0"
     style="fill:#bbbbbb;fill-opacity:1;stroke-width:1" />
  <path
     style="fill:none;fill-rule:evenodd;stroke:#000000;stroke-width:1px;stroke-linecap:butt;stroke-linejoin:miter;stroke-opacity:1"
     d="m 463.80304,116.11399 17.64383,7.79194"
     id="path5878"
     inkscape:connector-type="polyline"
     inkscape:connector-curvature="0"
     sodipodi:nodetypes="cc" />
  <path
     id="path6008"
     d="m 698.92662,37.010582 3.81081,-3.387443 2.01132,-2.223014 0.84689,0.63515 2.85809,-1.587863 5.50459,-1.16443 7.41007,-3.705023 -0.63515,-4.44601 -0.84688,-4.657736 -1.69366,-6.351463 -4.55191,1.164439 -23.07697,4.975307 0.6352,3.281589 1.58781,7.727591 v 8.786185 l -0.95274,2.223005 1.79956,2.328868 z"
     inkscape:connector-curvature="0"
     style="fill:#bbbbbb;fill-opacity:1;stroke-width:1" />
  <path
     id="path6010"
     d="m 736.50599,17.532779 -0.52929,-2.434713 0.8469,-1.587863 3.06982,-1.587864 0.84696,3.281581 -0.52935,1.905434 -2.54061,1.587864 v 1.058575 l 2.01131,-1.587863 4.12848,-4.76359 4.12848,-2.011289 4.44601,-1.5878629 -0.31766,-2.5405849 -1.05851,-3.0698728 -2.01132,-2.540576 -1.90547,-0.84685873 -2.22301,0.21170803 -0.52922,0.5292878 1.05852,1.3761553 1.58792,-0.8468586 2.22301,1.6937173 0.84683,2.858147 -1.90547,1.9054431 -2.43464,1.0585756 -3.81093,-0.5292878 -4.12842,-6.3514624 -2.4347,-2.75228401 h -1.90547 l -1.16449,0.84685868 -2.01125,-2.75230187 0.31759,-1.5878635 2.54061,-5.5045948 -3.06996,-4.6577275 -3.91667,1.905434 -1.90546,3.0698733 -19.37187,4.975307 -14.60838,2.6464391 -0.6352,11.2208886 0.74104,5.187033 23.28867,-5.081161 11.85607,-2.9640188 2.11716,1.6937173 3.59913,4.5518825 3.06983,4.975307 z m 13.23226,1.48201 2.32879,-0.740996 0.5293,-1.79958 1.05864,0.105862 1.05852,2.434714 -1.37618,0.529296 -4.12836,0.105854 z m -9.95061,0.846858 2.43471,-2.752293 h 1.69365 l 1.90547,1.587864 -2.54055,1.058575 -2.32891,1.058576 z"
     inkscape:connector-curvature="0"
     style="fill:#bbbbbb;fill-opacity:1;stroke-width:1" />
  <path
     id="path6012"
     d="m 730.36632,-15.494763 1.16437,-3.387453 -2.85815,-1.270292 -0.52922,-3.281581 -4.34024,-1.164429 -0.31753,-3.175725 -12.38531,-39.675416 -0.74104,0.08468 -0.63514,1.693721 -0.63514,-0.529288 -1.05858,-1.058576 -1.58787,2.011294 -0.21176,2.424138 0.5293,8.902621 2.01138,2.964009 v 4.551879 l -4.12849,5.081164 -2.54054,0.952716 v 0.741001 l 1.16437,2.011297 v 9.103747 l -0.84683,9.738899 -0.21175,4.975298 1.05858,1.48201 -0.21175,4.9753067 -0.52924,1.5878634 1.05859,1.1644385 5.39868,-1.2703014 14.60838,-3.7050056 1.79963,-3.0698726 4.23426,-2.011297 z"
     inkscape:connector-curvature="0"
     style="fill:#bbbbbb;fill-opacity:1;stroke-width:1" />
  <path
     id="path6014"
     d="m 689.82284,46.643617 0.52928,-2.858156 -0.21175,-2.540585 -3.17568,-1.587855 -6.88072,-2.117151 -6.35148,-2.752302 -0.63513,-0.423433 -2.85815,-0.317562 -2.11722,-1.587864 -2.22295,-6.245599 -3.49333,-0.529288 -2.54055,-2.540585 -40.64933,8.574459 -33.45094,6.351453 -0.52928,-6.880732 1.69371,-1.270302 1.37611,-1.164429 1.05865,-1.693718 1.90535,-1.164429 2.01131,-1.905443 0.52935,-1.693718 2.22302,-2.858156 1.16435,-1.058575 -0.21169,-1.058576 -1.37612,-3.281589 -1.90547,-0.211708 -2.01125,-6.4573079 3.06984,-1.9054432 4.65771,-1.5878634 4.23432,-1.3761465 3.38743,-0.5292877 6.66906,-0.211708 2.01126,1.3761375 1.69371,0.2117169 2.22301,-1.3761464 2.7523,-1.16442963 5.50459,-0.52928779 2.22301,-1.90544318 1.90547,-3.3874349 1.69372,-2.0112972 h 2.223 l 2.01133,-1.1644385 0.21169,-2.4347221 -1.58788,-2.223005 -0.31759,-1.587863 1.16448,-2.223006 v -1.587863 h -1.90547 l -1.90547,-0.846868 -0.84682,-1.164429 -0.21169,-2.752302 6.13972,-5.822154 0.63508,-0.846865 1.58793,-3.069866 3.06984,-4.763595 2.85821,-3.916725 2.223,-2.540582 2.54054,-1.905439 3.28159,-1.270291 5.82219,-1.376143 3.38738,0.211711 4.76361,-1.587859 7.83346,-2.328872 0.74104,5.187022 2.54054,6.880744 0.84689,5.292874 -1.05865,4.446027 2.75237,4.763574 0.84682,2.11716 -0.95273,3.387435 3.91679,1.79958 2.85808,10.7974728 v 6.1397368 l -0.63508,11.5384684 0.84683,5.716312 0.74098,3.810877 1.58794,7.7276 v 8.574468 l -1.16449,2.434722 2.22301,2.858147 0.52929,0.952721 -2.01126,1.905444 0.31754,1.376137 1.37618,-0.317571 1.58781,-1.376146 2.43476,-2.752293 1.16443,-0.635151 1.69378,0.635151 2.43463,0.211708 8.3628,-4.12844 3.0699,-2.858155 1.37611,-1.587864 4.44602,1.693718 -3.59912,3.810886 -4.12848,3.069855 -7.51585,5.610458 -2.75236,1.058575 -6.13967,2.011297 -4.23432,1.16443 -1.05865,-0.423434 z"
     inkscape:connector-curvature="0"
     style="fill:#bbbbbb;fill-opacity:1;stroke-width:1" />
  <path
     id="path6016"
     d="m 721.79183,20.920232 -0.84683,-4.657736 -1.69377,-6.3514539 6.03388,-1.5878634 1.58793,1.3761465 3.59907,4.5518728 2.96405,4.657737 -2.96405,1.482009 -1.37606,-0.211726 -1.16448,1.905443 -2.54055,2.011289 -2.96406,1.164438 z"
     inkscape:connector-curvature="0"
     style="fill:#bbbbbb;fill-opacity:1;stroke-width:1" />
  <path
     id="path6018"
     d="m 678.49605,-47.252038 2.54066,6.880744 0.84683,5.610447 -1.05858,4.128448 2.6464,4.657737 0.95273,2.434719 -0.74098,2.752293 3.49328,1.587863 3.06989,11.4326149 v 5.6104579 l 12.17362,-2.2230142 -1.05858,-1.1644385 0.63514,-2.0112883 0.21169,-4.5518818 -1.05853,-1.482001 0.2117,-4.975298 0.84683,-9.84475 v -8.997894 l -1.16443,-1.90544 v -1.693723 l 2.96399,-1.164433 3.70503,-4.65773 v -3.810873 l -2.01125,-2.858153 -0.3176,-6.129153 -27.62883,7.187731 z"
     inkscape:connector-curvature="0"
     style="fill:#bbbbbb;fill-opacity:1;stroke-width:1" />
  <path
     style="fill:none;fill-rule:evenodd;stroke:#000000;stroke-width:1px;stroke-linecap:butt;stroke-linejoin:miter;stroke-opacity:1"
     d="m 724.49317,14.950752 12.9194,27.358691"
     id="path6043"
     inkscape:connector-type="polyline"
     inkscape:connector-curvature="0"
     sodipodi:nodetypes="cc" />
  <path
     style="fill:none;fill-rule:evenodd;stroke:#000000;stroke-width:1px;stroke-linecap:butt;stroke-linejoin:miter;stroke-opacity:1"
     d="M 724.23987,-2.7817335 747.79876,-29.63379"
     id="path6045"
     inkscape:connector-type="polyline"
     inkscape:connector-curvature="0"
     sodipodi:nodetypes="cc" />
  <g
     id="g6258"
     transform="matrix(0.59560733,0.11478439,-0.11478439,0.59560733,67.786596,-237.01121)"
     style="stroke-width:1.64862239">
    <path
       style="fill:#bbbbbb;fill-opacity:1;stroke-width:1.64862239"
       inkscape:connector-curvature="0"
       d="m 1230.4618,448.29961 -3.043,1.52151 -10.9549,-7.30326 -5.4775,-14.30221 -5.7817,-10.95488 -6.999,-3.04303 -6.3903,-10.95488 1.5215,-6.08605 1.5215,-6.99896 0.3043,-3.34732 -1.8258,0.3043 -5.1731,3.04302 -6.0861,5.17314 -0.6086,0.91291 4.2602,12.4764 6.999,17.04093 11.2592,48.99268 15.2151,-0.9129 18.2581,-3.34733 z"
       id="path6223" />
    <path
       style="fill:#bbbbbb;fill-opacity:1;stroke-width:1.64862239"
       inkscape:connector-curvature="0"
       d="m 1231.679,499.72671 5.1731,-11.56349 1.5216,-14.60652 -19.1711,3.34733 -17.6495,0.91291 -11.5635,-51.1228 -6.999,-16.73663 -4.5645,-13.99791 -67.5551,13.085 -114.41769,23.12698 6.08599,31.64745 14.6065,-14.91082 7.6076,-2.13011 4.2602,-4.56454 5.4775,-8.21616 4.8688,2.13011 7.9119,-0.6086 7.9118,-6.39035 6.0861,-4.56454 6.3903,-1.82581 4.5646,3.34732 8.2161,4.26024 5.7818,5.47744 3.9559,4.26023 14.6065,4.86884 -1.8258,8.82477 24.489,9.20594 4.9252,7.09058 -2.6356,9.87348 -5.4774,7.91187 v 6.39034 l 0.9129,2.43442 6.086,3.95593 10.3463,3.34733 13.085,-0.3043 9.4334,3.04302 6.3903,0.91291 3.043,-6.39035 -4.5645,-6.39035 v -5.47744 l -7.3032,-6.39035 -6.3904,-16.73663 3.9559,-16.12803 -0.6086,-6.39035 -3.9559,-3.95593 c 0,0 4.5645,-4.86884 4.5645,-6.99895 0,-1.82582 1.5215,-6.39035 1.5215,-6.39035 l 5.7818,-3.95593 5.7817,-4.86884 1.5216,3.04302 -4.5646,4.86884 -3.9559,11.25919 0.9129,3.34732 5.4774,0.91291 1.5215,16.73663 -6.3903,3.04302 0.9129,10.95489 1.5215,-0.60861 3.3473,-5.78174 4.8689,5.47744 -4.8689,3.95593 -0.9129,10.34628 7.9119,10.34628 11.8678,1.52152 4.8688,-2.43442 9.7377,12.7807 3.043,1.21721 z m -44.1238,0.6086 3.3473,7.60756 0.6086,5.47744 3.3473,5.78175 c 0,0 2.7387,-2.73872 2.7387,-3.65163 0,-0.91291 -2.1301,-9.43337 -2.1301,-9.43337 l -2.1301,-6.99896 z"
       id="path6225"
       sodipodi:nodetypes="cccccccccccccccccccccccccccccccccccccccccccccsccccccccccccccccccccccccccsccc" />
  </g>
  <path
     style="fill:#bbbbbb;fill-opacity:1;stroke:#ffffff;stroke-width:2;stroke-linecap:butt;stroke-linejoin:miter;stroke-miterlimit:4;stroke-dasharray:none;stroke-opacity:1"
     d="m 688.62032,172.54176 -6.11753,-3.11282 -5.83409,3.52396 1.06519,-6.78361 -5.15005,-4.46368 6.77226,-1.08655 2.64833,-6.28438 3.11739,6.11797 6.78203,0.57754 -4.84714,4.86502 z"
     id="path6228"
     inkscape:connector-curvature="0" />
  <path
     style="fill:none;fill-rule:evenodd;stroke:#000000;stroke-width:1px;stroke-linecap:butt;stroke-linejoin:miter;stroke-opacity:1"
     d="M 682.58037,163.84331 622.5975,200.48194"
     id="path6260"
     inkscape:connector-type="polyline"
     inkscape:connector-curvature="0" />
  <path
     style="fill:none;fill-rule:evenodd;stroke:#000000;stroke-width:1px;stroke-linecap:butt;stroke-linejoin:miter;stroke-opacity:1"
     d="m 477.41655,56.823548 38.51191,-3.940751"
     id="path6420"
     inkscape:connector-type="polyline"
     inkscape:connector-curvature="0"
     sodipodi:nodetypes="cc" />
  <path
     style="fill:none;fill-rule:evenodd;stroke:#000000;stroke-width:1px;stroke-linecap:butt;stroke-linejoin:miter;stroke-opacity:1"
     d="M 511.89815,19.923762 540.02081,18.84901"
     id="path6430"
     inkscape:connector-type="polyline"
     inkscape:connector-curvature="0" />
  <path
     style="fill:none;fill-rule:evenodd;stroke:#000000;stroke-width:1px;stroke-linecap:butt;stroke-linejoin:miter;stroke-opacity:1"
     d="m 703.84751,24.956937 -6.07974,45.344505"
     id="path6464"
     inkscape:connector-type="polyline"
     inkscape:connector-curvature="0" />
  <path
     style="opacity:1;fill:none;fill-opacity:1;fill-rule:evenodd;stroke:#000000;stroke-width:1.64050877;stroke-miterlimit:4;stroke-dasharray:none;stroke-dashoffset:0;stroke-opacity:1"
     d="m 419.94415,-116.01308 h 102.28749 v 41.814579 l -44.16295,29.975135 h -58.12454 z"
     id="rect5959"
     inkscape:connector-curvature="0"
     sodipodi:nodetypes="cccccc" />
  <rect
     style="opacity:1;fill:none;fill-opacity:1;fill-rule:evenodd;stroke:#000000;stroke-width:1.64050877;stroke-miterlimit:4;stroke-dasharray:none;stroke-dashoffset:0;stroke-opacity:1"
     id="rect5962"
     width="210.08598"
     height="184.63678"
     x="582.73743"
     y="-84.639961" />
  <rect
     y="123.50043"
     x="582.73779"
     height="102.49522"
     width="210.08598"
     id="rect5964"
     style="opacity:1;fill:none;fill-opacity:1;fill-rule:evenodd;stroke:#000000;stroke-width:1.64050877;stroke-miterlimit:4;stroke-dasharray:none;stroke-dashoffset:0;stroke-opacity:1" />
</svg>
