<?xml version="1.0" encoding="UTF-8" standalone="no"?>
<svg xmlns:svg="http://www.w3.org/2000/svg"
xmlns="http://www.w3.org/2000/svg" version="1.1"
width="360" height="185">
<!-- Created with the Wikimedia parliament diagram creator (http://parliamentdiagram.toolforge.org/parliamentinputform.html) -->
<g>
<text x="175" y="175" id="seat_number" style="font-size:36px;font-weight:bold;text-align:center;text-anchor:middle;font-family:sans-serif">447</text>
  <rect width="360" height="185" fill="#dddddd00" id="hover-rectangle" />
  <g style="fill:#000000; stroke:none" id="Results" onmouseover="hover(event)">
    <circle cx="9.58" cy="176.36" r="3.64" fill="#000000"/>
    <circle cx="18.68" cy="176.36" r="3.64" fill="#000000"/>
    <circle cx="27.77" cy="176.36" r="3.64" fill="#000000"/>
    <circle cx="36.86" cy="176.36" r="3.64" fill="#000000"/>
    <circle cx="45.96" cy="176.36" r="3.64" fill="#000000"/>
    <circle cx="55.05" cy="176.36" r="3.64" fill="#000000"/>
    <circle cx="64.15" cy="176.36" r="3.64" fill="#000000"/>
    <circle cx="73.24" cy="176.37" r="3.64" fill="#000000"/>
    <circle cx="82.34" cy="176.37" r="3.64" fill="#000000"/>
    <circle cx="91.44" cy="176.37" r="3.64" fill="#000000"/>
    <circle cx="100.54" cy="176.37" r="3.64" fill="#000000"/>
    <circle cx="19.18" cy="166.77" r="3.64" fill="#000000"/>
    <circle cx="10.12" cy="166.02" r="3.64" fill="#000000"/>
    <circle cx="28.30" cy="166.77" r="3.64" fill="#000000"/>
    <circle cx="37.43" cy="166.76" r="3.64" fill="#000000"/>
    <circle cx="46.56" cy="166.76" r="3.64" fill="#000000"/>
    <circle cx="55.70" cy="166.75" r="3.64" fill="#000000"/>
    <circle cx="64.85" cy="166.75" r="3.64" fill="#000000"/>
    <circle cx="74.01" cy="166.74" r="3.64" fill="#000000"/>
    <circle cx="83.18" cy="166.74" r="3.64" fill="#000000"/>
    <circle cx="20.25" cy="157.22" r="3.64" fill="#000000"/>
    <circle cx="11.28" cy="155.73" r="3.64" fill="#000000"/>
    <circle cx="29.44" cy="157.22" r="3.64" fill="#000000"/>
    <circle cx="92.36" cy="166.73" r="3.64" fill="#000000"/>
    <circle cx="38.64" cy="157.22" r="3.64" fill="#000000"/>
    <circle cx="101.57" cy="166.72" r="3.64" fill="#000000"/>
    <circle cx="47.86" cy="157.22" r="3.64" fill="#000000"/>
    <circle cx="57.09" cy="157.22" r="3.64" fill="#000000"/>
    <circle cx="66.35" cy="157.22" r="3.64" fill="#000000"/>
    <circle cx="21.89" cy="147.76" r="3.64" fill="#000000"/>
    <circle cx="13.07" cy="145.53" r="3.64" fill="#000000"/>
    <circle cx="31.18" cy="147.77" r="3.64" fill="#000000"/>
    <circle cx="75.64" cy="157.23" r="3.64" fill="#000000"/>
    <circle cx="40.49" cy="147.78" r="3.64" fill="#000000"/>
    <circle cx="84.96" cy="157.24" r="3.64" fill="#000000"/>
    <circle cx="49.83" cy="147.80" r="3.64" fill="#000000"/>
    <circle cx="94.33" cy="157.25" r="3.64" fill="#000000"/>
    <circle cx="59.21" cy="147.82" r="3.64" fill="#000000"/>
    <circle cx="24.09" cy="138.40" r="3.64" fill="#000000"/>
    <circle cx="15.47" cy="135.46" r="3.64" fill="#000000"/>
    <circle cx="33.51" cy="138.44" r="3.64" fill="#000000"/>
    <circle cx="68.64" cy="147.86" r="3.64" fill="#000000"/>
    <circle cx="103.77" cy="157.28" r="3.64" fill="#000000"/>
    <circle cx="42.97" cy="138.49" r="3.64" fill="#000000"/>
    <circle cx="78.12" cy="147.90" r="3.64" fill="#000000"/>
    <circle cx="52.48" cy="138.54" r="3.64" fill="#000000"/>
    <circle cx="26.84" cy="129.20" r="3.64" fill="#000000"/>
    <circle cx="18.48" cy="125.55" r="3.64" fill="#000000"/>
    <circle cx="87.67" cy="147.96" r="3.64" fill="#000000"/>
    <circle cx="62.05" cy="138.62" r="3.64" fill="#000000"/>
    <circle cx="36.42" cy="129.28" r="3.64" fill="#000000"/>
    <circle cx="46.06" cy="129.38" r="3.64" fill="#000000"/>
    <circle cx="71.69" cy="138.71" r="3.64" fill="#000000"/>
    <circle cx="97.32" cy="148.04" r="3.64" fill="#000000"/>
    <circle cx="30.14" cy="120.17" r="3.64" fill="#000000"/>
    <circle cx="22.08" cy="115.84" r="3.64" fill="#000000"/>
    <circle cx="55.78" cy="129.50" r="3.64" fill="#000000"/>
    <circle cx="81.43" cy="138.83" r="3.64" fill="#000000"/>
    <circle cx="39.91" cy="120.32" r="3.64" fill="#000000"/>
    <circle cx="107.10" cy="148.17" r="3.64" fill="#000000"/>
    <circle cx="65.59" cy="129.66" r="3.64" fill="#000000"/>
    <circle cx="49.77" cy="120.50" r="3.64" fill="#000000"/>
    <circle cx="91.29" cy="139.00" r="3.64" fill="#000000"/>
    <circle cx="33.96" cy="111.36" r="3.64" fill="#000000"/>
    <circle cx="26.27" cy="106.37" r="3.64" fill="#000000"/>
    <circle cx="75.50" cy="129.85" r="3.64" fill="#000000"/>
    <circle cx="59.72" cy="120.72" r="3.64" fill="#000000"/>
    <circle cx="43.95" cy="111.60" r="3.64" fill="#000000"/>
    <circle cx="101.30" cy="139.22" r="3.64" fill="#000000"/>
    <circle cx="85.55" cy="130.10" r="3.64" fill="#000000"/>
    <circle cx="69.80" cy="121.00" r="3.64" fill="#000000"/>
    <circle cx="54.05" cy="111.89" r="3.64" fill="#000000"/>
    <circle cx="38.31" cy="102.79" r="3.64" fill="#000000"/>
    <circle cx="31.02" cy="97.17" r="3.64" fill="#000000"/>
    <circle cx="48.54" cy="103.15" r="3.64" fill="#000000"/>
    <circle cx="64.29" cy="112.25" r="3.64" fill="#000000"/>
    <circle cx="80.03" cy="121.34" r="3.64" fill="#000000"/>
    <circle cx="95.77" cy="130.43" r="3.64" fill="#000000"/>
    <circle cx="111.52" cy="139.53" r="3.64" fill="#000000"/>
    <circle cx="43.15" cy="94.50" r="3.64" fill="#000000"/>
    <circle cx="58.91" cy="103.59" r="3.64" fill="#000000"/>
    <circle cx="36.33" cy="88.28" r="3.64" fill="#000000"/>
    <circle cx="74.67" cy="112.68" r="3.64" fill="#000000"/>
    <circle cx="90.44" cy="121.78" r="3.64" fill="#000000"/>
    <circle cx="106.22" cy="130.88" r="3.64" fill="#000000"/>
    <circle cx="53.65" cy="95.01" r="3.64" fill="#000000"/>
    <circle cx="69.44" cy="104.12" r="3.64" fill="#000000"/>
    <circle cx="85.25" cy="113.23" r="3.64" fill="#000000"/>
    <circle cx="48.48" cy="86.50" r="3.64" fill="#000000"/>
    <circle cx="42.16" cy="79.72" r="3.64" fill="#000000"/>
    <circle cx="64.31" cy="95.63" r="3.64" fill="#000000"/>
    <circle cx="101.08" cy="122.36" r="3.64" fill="#000000"/>
    <circle cx="80.17" cy="104.77" r="3.64" fill="#000000"/>
    <circle cx="59.27" cy="87.21" r="3.64" fill="#000000"/>
    <circle cx="116.95" cy="131.50" r="3.64" fill="#000000"/>
    <circle cx="96.06" cy="113.93" r="3.64" fill="#000000"/>
    <circle cx="75.17" cy="96.38" r="3.64" fill="#000000"/>
    <circle cx="54.28" cy="78.84" r="3.64" fill="#000000"/>
    <circle cx="48.51" cy="71.54" r="3.64" fill="#000000"/>
    <circle cx="112.02" cy="123.13" r="3.64" fill="#000000"/>
    <circle cx="91.13" cy="105.59" r="3.64" fill="#000000"/>
    <circle cx="70.24" cy="88.05" r="3.64" fill="#000000"/>
    <circle cx="65.36" cy="79.78" r="3.64" fill="#000000"/>
    <circle cx="86.26" cy="97.31" r="3.64" fill="#000000"/>
    <circle cx="107.16" cy="114.84" r="3.64" fill="#000000"/>
    <circle cx="60.52" cy="71.54" r="3.64" fill="#000000"/>
    <circle cx="81.44" cy="89.08" r="3.64" fill="#000000"/>
    <circle cx="55.34" cy="63.75" r="3.64" fill="#000000"/>
    <circle cx="102.37" cy="106.63" r="3.64" fill="#000000"/>
    <circle cx="76.66" cy="80.89" r="3.64" fill="#000000"/>
    <circle cx="123.32" cy="124.18" r="3.64" fill="#000000"/>
    <circle cx="97.62" cy="98.46" r="3.64" fill="#000000"/>
    <circle cx="71.91" cy="72.74" r="3.64" fill="#000000"/>
    <circle cx="67.19" cy="64.62" r="3.64" fill="#000000"/>
    <circle cx="92.91" cy="90.34" r="3.64" fill="#000000"/>
    <circle cx="118.62" cy="116.05" r="3.64" fill="#000000"/>
    <circle cx="62.63" cy="56.39" r="3.64" fill="#000000"/>
    <circle cx="88.22" cy="82.24" r="3.64" fill="#000000"/>
    <circle cx="113.95" cy="107.97" r="3.64" fill="#000000"/>
    <circle cx="83.55" cy="74.18" r="3.64" fill="#000000"/>
    <circle cx="78.90" cy="66.14" r="3.64" fill="#000000"/>
    <circle cx="109.31" cy="99.92" r="3.64" fill="#000000"/>
    <circle cx="74.26" cy="58.11" r="3.64" fill="#000000"/>
    <circle cx="104.68" cy="91.90" r="3.64" fill="#000000"/>
    <circle cx="70.35" cy="49.50" r="3.64" fill="#000000"/>
    <circle cx="100.07" cy="83.89" r="3.64" fill="#000000"/>
    <circle cx="95.47" cy="75.91" r="3.64" fill="#000000"/>
    <circle cx="90.87" cy="67.94" r="3.64" fill="#000000"/>
    <circle cx="130.54" cy="117.70" r="3.64" fill="#000000"/>
    <circle cx="86.28" cy="59.98" r="3.64" fill="#000000"/>
    <circle cx="125.96" cy="109.74" r="3.64" fill="#000000"/>
    <circle cx="81.70" cy="52.03" r="3.64" fill="#000000"/>
    <circle cx="121.39" cy="101.80" r="3.64" fill="#000000"/>
    <circle cx="78.48" cy="43.08" r="3.64" fill="#000000"/>
    <circle cx="116.83" cy="93.86" r="3.64" fill="#000000"/>
    <circle cx="112.27" cy="85.94" r="3.64" fill="#000000"/>
    <circle cx="107.71" cy="78.02" r="3.64" fill="#000000"/>
    <circle cx="103.15" cy="70.12" r="3.64" fill="#000000"/>
    <circle cx="98.60" cy="62.21" r="3.64" fill="#000000"/>
    <circle cx="94.04" cy="54.31" r="3.64" fill="#000000"/>
    <circle cx="89.49" cy="46.41" r="3.64" fill="#000000"/>
    <circle cx="86.98" cy="37.16" r="3.64" fill="#000000"/>
    <circle cx="138.49" cy="112.15" r="3.64" fill="#000000"/>
    <circle cx="133.95" cy="104.27" r="3.64" fill="#000000"/>
    <circle cx="129.41" cy="96.39" r="3.64" fill="#000000"/>
    <circle cx="124.86" cy="88.51" r="3.64" fill="#000000"/>
    <circle cx="120.32" cy="80.64" r="3.64" fill="#000000"/>
    <circle cx="115.78" cy="72.76" r="3.64" fill="#000000"/>
    <circle cx="111.23" cy="64.89" r="3.64" fill="#000000"/>
    <circle cx="106.69" cy="57.01" r="3.64" fill="#000000"/>
    <circle cx="102.14" cy="49.14" r="3.64" fill="#000000"/>
    <circle cx="97.60" cy="41.26" r="3.64" fill="#000000"/>
    <circle cx="95.82" cy="31.78" r="3.64" fill="#000000"/>
    <circle cx="106.00" cy="36.60" r="3.64" fill="#000000"/>
    <circle cx="110.56" cy="44.48" r="3.64" fill="#000000"/>
    <circle cx="115.11" cy="52.37" r="3.64" fill="#000000"/>
    <circle cx="119.67" cy="60.25" r="3.64" fill="#000000"/>
    <circle cx="124.23" cy="68.13" r="3.64" fill="#000000"/>
    <circle cx="128.78" cy="76.02" r="3.64" fill="#000000"/>
    <circle cx="104.98" cy="26.94" r="3.64" fill="#000000"/>
    <circle cx="133.35" cy="83.91" r="3.64" fill="#000000"/>
    <circle cx="137.91" cy="91.80" r="3.64" fill="#000000"/>
    <circle cx="142.48" cy="99.70" r="3.64" fill="#000000"/>
    <circle cx="147.05" cy="107.60" r="3.64" fill="#000000"/>
    <circle cx="114.67" cy="32.45" r="3.64" fill="#000000"/>
    <circle cx="119.25" cy="40.37" r="3.64" fill="#000000"/>
    <circle cx="123.83" cy="48.30" r="3.64" fill="#000000"/>
    <circle cx="114.41" cy="22.67" r="3.64" fill="#000000"/>
    <circle cx="128.41" cy="56.23" r="3.64" fill="#000000"/>
    <circle cx="133.01" cy="64.17" r="3.64" fill="#000000"/>
    <circle cx="137.60" cy="72.12" r="3.64" fill="#000000"/>
    <circle cx="142.21" cy="80.09" r="3.64" fill="#000000"/>
    <circle cx="123.56" cy="28.83" r="3.64" fill="#000000"/>
    <circle cx="128.18" cy="36.82" r="3.64" fill="#000000"/>
    <circle cx="146.83" cy="88.07" r="3.64" fill="#000000"/>
    <circle cx="132.80" cy="44.82" r="3.64" fill="#000000"/>
    <circle cx="124.09" cy="18.98" r="3.64" fill="#000000"/>
    <circle cx="151.46" cy="96.08" r="3.64" fill="#000000"/>
    <circle cx="137.43" cy="52.85" r="3.64" fill="#000000"/>
    <circle cx="142.07" cy="60.90" r="3.64" fill="#000000"/>
    <circle cx="156.11" cy="104.13" r="3.64" fill="#000000"/>
    <circle cx="132.66" cy="25.74" r="3.64" fill="#000000"/>
    <circle cx="146.72" cy="68.97" r="3.64" fill="#000000"/>
    <circle cx="137.31" cy="33.83" r="3.64" fill="#000000"/>
    <circle cx="133.97" cy="15.88" r="3.64" fill="#000000"/>
    <circle cx="151.39" cy="77.09" r="3.64" fill="#000000"/>
    <circle cx="141.98" cy="41.96" r="3.64" fill="#000000"/>
    <circle cx="146.66" cy="50.12" r="3.64" fill="#000000"/>
    <circle cx="156.07" cy="85.25" r="3.64" fill="#000000"/>
    <circle cx="141.93" cy="23.19" r="3.64" fill="#000000"/>
    <circle cx="151.35" cy="58.33" r="3.64" fill="#000000"/>
    <circle cx="146.62" cy="31.43" r="3.64" fill="#000000"/>
    <circle cx="160.78" cy="93.47" r="3.64" fill="#000000"/>
    <circle cx="144.02" cy="13.39" r="3.64" fill="#000000"/>
    <circle cx="156.06" cy="66.59" r="3.64" fill="#000000"/>
    <circle cx="151.33" cy="39.72" r="3.64" fill="#000000"/>
    <circle cx="165.52" cy="101.78" r="3.64" fill="#000000"/>
    <circle cx="160.79" cy="74.92" r="3.64" fill="#000000"/>
    <circle cx="156.06" cy="48.06" r="3.64" fill="#000000"/>
    <circle cx="151.33" cy="21.20" r="3.64" fill="#000000"/>
    <circle cx="156.06" cy="29.62" r="3.64" fill="#000000"/>
    <circle cx="160.80" cy="56.48" r="3.64" fill="#000000"/>
    <circle cx="154.21" cy="11.51" r="3.64" fill="#000000"/>
    <circle cx="165.55" cy="83.35" r="3.64" fill="#000000"/>
    <circle cx="160.82" cy="38.11" r="3.64" fill="#000000"/>
    <circle cx="165.57" cy="64.99" r="3.64" fill="#000000"/>
    <circle cx="160.83" cy="19.78" r="3.64" fill="#000000"/>
    <circle cx="170.33" cy="91.89" r="3.64" fill="#000000"/>
    <circle cx="165.59" cy="46.69" r="3.64" fill="#000000"/>
    <circle cx="165.60" cy="28.41" r="3.64" fill="#000000"/>
    <circle cx="164.49" cy="10.25" r="3.64" fill="#000000"/>
    <circle cx="170.36" cy="73.62" r="3.64" fill="#000000"/>
    <circle cx="170.37" cy="55.37" r="3.64" fill="#000000"/>
    <circle cx="170.39" cy="37.14" r="3.64" fill="#000000"/>
    <circle cx="175.15" cy="100.60" r="3.64" fill="#000000"/>
    <circle cx="170.40" cy="18.92" r="3.64" fill="#000000"/>
    <circle cx="175.17" cy="82.39" r="3.64" fill="#000000"/>
    <circle cx="175.18" cy="64.19" r="3.64" fill="#000000"/>
    <circle cx="175.19" cy="46.00" r="3.64" fill="#000000"/>
    <circle cx="175.19" cy="27.80" r="3.64" fill="#000000"/>
    <circle cx="174.82" cy="9.62" r="3.64" fill="#000000"/>
    <circle cx="180.00" cy="18.64" r="3.64" fill="#000000"/>
    <circle cx="180.00" cy="36.82" r="3.64" fill="#000000"/>
    <circle cx="180.00" cy="55.00" r="3.64" fill="#000000"/>
    <circle cx="180.00" cy="73.18" r="3.64" fill="#000000"/>
    <circle cx="180.00" cy="91.36" r="3.64" fill="#000000"/>
    <circle cx="185.18" cy="9.62" r="3.64" fill="#000000"/>
    <circle cx="184.81" cy="27.80" r="3.64" fill="#000000"/>
    <circle cx="184.81" cy="46.00" r="3.64" fill="#000000"/>
    <circle cx="184.82" cy="64.19" r="3.64" fill="#000000"/>
    <circle cx="184.83" cy="82.39" r="3.64" fill="#000000"/>
    <circle cx="189.60" cy="18.92" r="3.64" fill="#000000"/>
    <circle cx="184.85" cy="100.60" r="3.64" fill="#000000"/>
    <circle cx="189.61" cy="37.14" r="3.64" fill="#000000"/>
    <circle cx="189.63" cy="55.37" r="3.64" fill="#000000"/>
    <circle cx="189.64" cy="73.62" r="3.64" fill="#000000"/>
    <circle cx="195.51" cy="10.25" r="3.64" fill="#000000"/>
    <circle cx="194.40" cy="28.41" r="3.64" fill="#000000"/>
    <circle cx="194.41" cy="46.69" r="3.64" fill="#000000"/>
    <circle cx="189.67" cy="91.89" r="3.64" fill="#000000"/>
    <circle cx="199.17" cy="19.78" r="3.64" fill="#000000"/>
    <circle cx="194.43" cy="64.99" r="3.64" fill="#000000"/>
    <circle cx="199.18" cy="38.11" r="3.64" fill="#000000"/>
    <circle cx="194.45" cy="83.35" r="3.64" fill="#000000"/>
    <circle cx="205.79" cy="11.51" r="3.64" fill="#000000"/>
    <circle cx="199.20" cy="56.48" r="3.64" fill="#000000"/>
    <circle cx="203.94" cy="29.62" r="3.64" fill="#000000"/>
    <circle cx="208.67" cy="21.20" r="3.64" fill="#000000"/>
    <circle cx="203.94" cy="48.06" r="3.64" fill="#000000"/>
    <circle cx="199.21" cy="74.92" r="3.64" fill="#000000"/>
    <circle cx="194.48" cy="101.78" r="3.64" fill="#000000"/>
    <circle cx="208.67" cy="39.72" r="3.64" fill="#000000"/>
    <circle cx="203.94" cy="66.59" r="3.64" fill="#000000"/>
    <circle cx="215.98" cy="13.39" r="3.64" fill="#000000"/>
    <circle cx="199.22" cy="93.47" r="3.64" fill="#000000"/>
    <circle cx="213.38" cy="31.43" r="3.64" fill="#000000"/>
    <circle cx="208.65" cy="58.33" r="3.64" fill="#000000"/>
    <circle cx="218.07" cy="23.19" r="3.64" fill="#000000"/>
    <circle cx="203.93" cy="85.25" r="3.64" fill="#000000"/>
    <circle cx="213.34" cy="50.12" r="3.64" fill="#000000"/>
    <circle cx="218.02" cy="41.96" r="3.64" fill="#000000"/>
    <circle cx="208.61" cy="77.09" r="3.64" fill="#000000"/>
    <circle cx="226.03" cy="15.88" r="3.64" fill="#000000"/>
    <circle cx="222.69" cy="33.83" r="3.64" fill="#000000"/>
    <circle cx="213.28" cy="68.97" r="3.64" fill="#000000"/>
    <circle cx="227.34" cy="25.74" r="3.64" fill="#000000"/>
    <circle cx="203.89" cy="104.13" r="3.64" fill="#000000"/>
    <circle cx="217.93" cy="60.90" r="3.64" fill="#000000"/>
    <circle cx="222.57" cy="52.85" r="3.64" fill="#000000"/>
    <circle cx="208.54" cy="96.08" r="3.64" fill="#000000"/>
    <circle cx="235.91" cy="18.98" r="3.64" fill="#000000"/>
    <circle cx="227.20" cy="44.82" r="3.64" fill="#000000"/>
    <circle cx="213.17" cy="88.07" r="3.64" fill="#000000"/>
    <circle cx="231.82" cy="36.82" r="3.64" fill="#000000"/>
    <circle cx="236.44" cy="28.83" r="3.64" fill="#000000"/>
    <circle cx="217.79" cy="80.09" r="3.64" fill="#000000"/>
    <circle cx="222.40" cy="72.12" r="3.64" fill="#000000"/>
    <circle cx="226.99" cy="64.17" r="3.64" fill="#000000"/>
    <circle cx="231.59" cy="56.23" r="3.64" fill="#000000"/>
    <circle cx="245.59" cy="22.67" r="3.64" fill="#000000"/>
    <circle cx="236.17" cy="48.30" r="3.64" fill="#000000"/>
    <circle cx="240.75" cy="40.37" r="3.64" fill="#000000"/>
    <circle cx="245.33" cy="32.45" r="3.64" fill="#000000"/>
    <circle cx="212.95" cy="107.60" r="3.64" fill="#000000"/>
    <circle cx="217.52" cy="99.70" r="3.64" fill="#000000"/>
    <circle cx="222.09" cy="91.80" r="3.64" fill="#000000"/>
    <circle cx="226.65" cy="83.91" r="3.64" fill="#000000"/>
    <circle cx="255.02" cy="26.94" r="3.64" fill="#000000"/>
    <circle cx="231.22" cy="76.02" r="3.64" fill="#000000"/>
    <circle cx="235.77" cy="68.13" r="3.64" fill="#000000"/>
    <circle cx="240.33" cy="60.25" r="3.64" fill="#000000"/>
    <circle cx="244.89" cy="52.37" r="3.64" fill="#000000"/>
    <circle cx="249.44" cy="44.48" r="3.64" fill="#000000"/>
    <circle cx="254.00" cy="36.60" r="3.64" fill="#000000"/>
    <circle cx="264.18" cy="31.78" r="3.64" fill="#000000"/>
    <circle cx="262.40" cy="41.26" r="3.64" fill="#000000"/>
    <circle cx="257.86" cy="49.14" r="3.64" fill="#000000"/>
    <circle cx="253.31" cy="57.01" r="3.64" fill="#000000"/>
    <circle cx="248.77" cy="64.89" r="3.64" fill="#000000"/>
    <circle cx="244.22" cy="72.76" r="3.64" fill="#000000"/>
    <circle cx="239.68" cy="80.64" r="3.64" fill="#000000"/>
    <circle cx="235.14" cy="88.51" r="3.64" fill="#000000"/>
    <circle cx="230.59" cy="96.39" r="3.64" fill="#000000"/>
    <circle cx="226.05" cy="104.27" r="3.64" fill="#000000"/>
    <circle cx="221.51" cy="112.15" r="3.64" fill="#000000"/>
    <circle cx="273.02" cy="37.16" r="3.64" fill="#000000"/>
    <circle cx="270.51" cy="46.41" r="3.64" fill="#000000"/>
    <circle cx="265.96" cy="54.31" r="3.64" fill="#000000"/>
    <circle cx="261.40" cy="62.21" r="3.64" fill="#000000"/>
    <circle cx="256.85" cy="70.12" r="3.64" fill="#000000"/>
    <circle cx="252.29" cy="78.02" r="3.64" fill="#000000"/>
    <circle cx="247.73" cy="85.94" r="3.64" fill="#000000"/>
    <circle cx="243.17" cy="93.86" r="3.64" fill="#000000"/>
    <circle cx="281.52" cy="43.08" r="3.64" fill="#000000"/>
    <circle cx="238.61" cy="101.80" r="3.64" fill="#000000"/>
    <circle cx="278.30" cy="52.03" r="3.64" fill="#000000"/>
    <circle cx="234.04" cy="109.74" r="3.64" fill="#000000"/>
    <circle cx="273.72" cy="59.98" r="3.64" fill="#000000"/>
    <circle cx="229.46" cy="117.70" r="3.64" fill="#000000"/>
    <circle cx="269.13" cy="67.94" r="3.64" fill="#000000"/>
    <circle cx="264.53" cy="75.91" r="3.64" fill="#000000"/>
    <circle cx="259.93" cy="83.89" r="3.64" fill="#000000"/>
    <circle cx="289.65" cy="49.50" r="3.64" fill="#000000"/>
    <circle cx="255.32" cy="91.90" r="3.64" fill="#000000"/>
    <circle cx="285.74" cy="58.11" r="3.64" fill="#000000"/>
    <circle cx="250.69" cy="99.92" r="3.64" fill="#000000"/>
    <circle cx="281.10" cy="66.14" r="3.64" fill="#000000"/>
    <circle cx="276.45" cy="74.18" r="3.64" fill="#000000"/>
    <circle cx="246.05" cy="107.97" r="3.64" fill="#000000"/>
    <circle cx="271.78" cy="82.24" r="3.64" fill="#000000"/>
    <circle cx="297.37" cy="56.39" r="3.64" fill="#000000"/>
    <circle cx="241.38" cy="116.05" r="3.64" fill="#000000"/>
    <circle cx="267.09" cy="90.34" r="3.64" fill="#000000"/>
    <circle cx="292.81" cy="64.62" r="3.64" fill="#000000"/>
    <circle cx="288.09" cy="72.74" r="3.64" fill="#000000"/>
    <circle cx="262.38" cy="98.46" r="3.64" fill="#000000"/>
    <circle cx="236.68" cy="124.18" r="3.64" fill="#000000"/>
    <circle cx="283.34" cy="80.89" r="3.64" fill="#000000"/>
    <circle cx="257.63" cy="106.63" r="3.64" fill="#000000"/>
    <circle cx="304.66" cy="63.75" r="3.64" fill="#000000"/>
    <circle cx="278.56" cy="89.08" r="3.64" fill="#000000"/>
    <circle cx="299.48" cy="71.54" r="3.64" fill="#000000"/>
    <circle cx="252.84" cy="114.84" r="3.64" fill="#000000"/>
    <circle cx="273.74" cy="97.31" r="3.64" fill="#000000"/>
    <circle cx="294.64" cy="79.78" r="3.64" fill="#000000"/>
    <circle cx="289.76" cy="88.05" r="3.64" fill="#000000"/>
    <circle cx="268.87" cy="105.59" r="3.64" fill="#000000"/>
    <circle cx="247.98" cy="123.13" r="3.64" fill="#000000"/>
    <circle cx="311.49" cy="71.54" r="3.64" fill="#000000"/>
    <circle cx="305.72" cy="78.84" r="3.64" fill="#000000"/>
    <circle cx="284.83" cy="96.38" r="3.64" fill="#000000"/>
    <circle cx="263.94" cy="113.93" r="3.64" fill="#000000"/>
    <circle cx="243.05" cy="131.50" r="3.64" fill="#000000"/>
    <circle cx="300.73" cy="87.21" r="3.64" fill="#000000"/>
    <circle cx="279.83" cy="104.77" r="3.64" fill="#000000"/>
    <circle cx="258.92" cy="122.36" r="3.64" fill="#000000"/>
    <circle cx="295.69" cy="95.63" r="3.64" fill="#000000"/>
    <circle cx="317.84" cy="79.72" r="3.64" fill="#000000"/>
    <circle cx="311.52" cy="86.50" r="3.64" fill="#000000"/>
    <circle cx="274.75" cy="113.23" r="3.64" fill="#000000"/>
    <circle cx="290.56" cy="104.12" r="3.64" fill="#000000"/>
    <circle cx="306.35" cy="95.01" r="3.64" fill="#000000"/>
    <circle cx="253.78" cy="130.88" r="3.64" fill="#000000"/>
    <circle cx="269.56" cy="121.78" r="3.64" fill="#000000"/>
    <circle cx="285.33" cy="112.68" r="3.64" fill="#000000"/>
    <circle cx="323.67" cy="88.28" r="3.64" fill="#000000"/>
    <circle cx="301.09" cy="103.59" r="3.64" fill="#000000"/>
    <circle cx="316.85" cy="94.50" r="3.64" fill="#000000"/>
    <circle cx="248.48" cy="139.53" r="3.64" fill="#000000"/>
    <circle cx="264.23" cy="130.43" r="3.64" fill="#000000"/>
    <circle cx="279.97" cy="121.34" r="3.64" fill="#000000"/>
    <circle cx="295.71" cy="112.25" r="3.64" fill="#000000"/>
    <circle cx="311.46" cy="103.15" r="3.64" fill="#000000"/>
    <circle cx="328.98" cy="97.17" r="3.64" fill="#000000"/>
    <circle cx="321.69" cy="102.79" r="3.64" fill="#000000"/>
    <circle cx="305.95" cy="111.89" r="3.64" fill="#000000"/>
    <circle cx="290.20" cy="121.00" r="3.64" fill="#000000"/>
    <circle cx="274.45" cy="130.10" r="3.64" fill="#000000"/>
    <circle cx="258.70" cy="139.22" r="3.64" fill="#000000"/>
    <circle cx="316.05" cy="111.60" r="3.64" fill="#000000"/>
    <circle cx="300.28" cy="120.72" r="3.64" fill="#000000"/>
    <circle cx="284.50" cy="129.85" r="3.64" fill="#000000"/>
    <circle cx="333.73" cy="106.37" r="3.64" fill="#000000"/>
    <circle cx="326.04" cy="111.36" r="3.64" fill="#000000"/>
    <circle cx="268.71" cy="139.00" r="3.64" fill="#000000"/>
    <circle cx="310.23" cy="120.50" r="3.64" fill="#000000"/>
    <circle cx="294.41" cy="129.66" r="3.64" fill="#000000"/>
    <circle cx="252.90" cy="148.17" r="3.64" fill="#000000"/>
    <circle cx="320.09" cy="120.32" r="3.64" fill="#000000"/>
    <circle cx="278.57" cy="138.83" r="3.64" fill="#000000"/>
    <circle cx="304.22" cy="129.50" r="3.64" fill="#000000"/>
    <circle cx="337.92" cy="115.84" r="3.64" fill="#000000"/>
    <circle cx="329.86" cy="120.17" r="3.64" fill="#000000"/>
    <circle cx="262.68" cy="148.04" r="3.64" fill="#000000"/>
    <circle cx="288.31" cy="138.71" r="3.64" fill="#000000"/>
    <circle cx="313.94" cy="129.38" r="3.64" fill="#000000"/>
    <circle cx="323.58" cy="129.28" r="3.64" fill="#000000"/>
    <circle cx="297.95" cy="138.62" r="3.64" fill="#000000"/>
    <circle cx="272.33" cy="147.96" r="3.64" fill="#000000"/>
    <circle cx="341.52" cy="125.55" r="3.64" fill="#000000"/>
    <circle cx="333.16" cy="129.20" r="3.64" fill="#000000"/>
    <circle cx="307.52" cy="138.54" r="3.64" fill="#000000"/>
    <circle cx="281.88" cy="147.90" r="3.64" fill="#000000"/>
    <circle cx="317.03" cy="138.49" r="3.64" fill="#000000"/>
    <circle cx="256.23" cy="157.28" r="3.64" fill="#000000"/>
    <circle cx="291.36" cy="147.86" r="3.64" fill="#000000"/>
    <circle cx="326.49" cy="138.44" r="3.64" fill="#000000"/>
    <circle cx="344.53" cy="135.46" r="3.64" fill="#000000"/>
    <circle cx="335.91" cy="138.40" r="3.64" fill="#000000"/>
    <circle cx="300.79" cy="147.82" r="3.64" fill="#000000"/>
    <circle cx="265.67" cy="157.25" r="3.64" fill="#000000"/>
    <circle cx="310.17" cy="147.80" r="3.64" fill="#000000"/>
    <circle cx="275.04" cy="157.24" r="3.64" fill="#000000"/>
    <circle cx="319.51" cy="147.78" r="3.64" fill="#000000"/>
    <circle cx="284.36" cy="157.23" r="3.64" fill="#000000"/>
    <circle cx="328.82" cy="147.77" r="3.64" fill="#000000"/>
    <circle cx="346.93" cy="145.53" r="3.64" fill="#000000"/>
    <circle cx="338.11" cy="147.76" r="3.64" fill="#000000"/>
    <circle cx="293.65" cy="157.22" r="3.64" fill="#000000"/>
    <circle cx="302.91" cy="157.22" r="3.64" fill="#000000"/>
    <circle cx="312.14" cy="157.22" r="3.64" fill="#000000"/>
    <circle cx="258.43" cy="166.72" r="3.64" fill="#000000"/>
    <circle cx="321.36" cy="157.22" r="3.64" fill="#000000"/>
    <circle cx="267.64" cy="166.73" r="3.64" fill="#000000"/>
    <circle cx="330.56" cy="157.22" r="3.64" fill="#000000"/>
    <circle cx="348.72" cy="155.73" r="3.64" fill="#000000"/>
    <circle cx="339.75" cy="157.22" r="3.64" fill="#000000"/>
    <circle cx="276.82" cy="166.74" r="3.64" fill="#000000"/>
    <circle cx="285.99" cy="166.74" r="3.64" fill="#000000"/>
    <circle cx="295.15" cy="166.75" r="3.64" fill="#000000"/>
    <circle cx="304.30" cy="166.75" r="3.64" fill="#000000"/>
    <circle cx="313.44" cy="166.76" r="3.64" fill="#000000"/>
    <circle cx="322.57" cy="166.76" r="3.64" fill="#000000"/>
    <circle cx="331.70" cy="166.77" r="3.64" fill="#000000"/>
    <circle cx="349.88" cy="166.02" r="3.64" fill="#000000"/>
    <circle cx="340.82" cy="166.77" r="3.64" fill="#000000"/>
    <circle cx="259.46" cy="176.37" r="3.64" fill="#000000"/>
    <circle cx="268.56" cy="176.37" r="3.64" fill="#000000"/>
    <circle cx="277.66" cy="176.37" r="3.64" fill="#000000"/>
    <circle cx="286.76" cy="176.37" r="3.64" fill="#000000"/>
    <circle cx="295.85" cy="176.36" r="3.64" fill="#000000"/>
    <circle cx="304.95" cy="176.36" r="3.64" fill="#000000"/>
    <circle cx="314.04" cy="176.36" r="3.64" fill="#000000"/>
    <circle cx="323.14" cy="176.36" r="3.64" fill="#000000"/>
    <circle cx="332.23" cy="176.36" r="3.64" fill="#000000"/>
    <circle cx="341.32" cy="176.36" r="3.64" fill="#000000"/>
    <circle cx="350.42" cy="176.36" r="3.64" fill="#000000"/>
  </g>
</g>
</svg>