<?xml version="1.0" encoding="UTF-8" standalone="no"?>
<svg xmlns:svg="http://www.w3.org/2000/svg"
xmlns="http://www.w3.org/2000/svg" version="1.1"
width="360" height="185">
<!-- Created with the Wikimedia parliament diagram creator (http://parliamentdiagram.toolforge.org/parliamentinputform.html) -->
<g>
<text x="175" y="175" id="seat_number" style="font-size:36px;font-weight:bold;text-align:center;text-anchor:middle;font-family:sans-serif">476</text>
  <rect width="360" height="185" fill="#dddddd00" id="hover-rectangle" />
  <g style="fill:#000000; stroke:none" id="Results" onmouseover="hover(event)">
    <circle cx="9.20" cy="176.67" r="3.33" fill="#000000"/>
    <circle cx="17.53" cy="176.67" r="3.33" fill="#000000"/>
    <circle cx="25.87" cy="176.67" r="3.33" fill="#000000"/>
    <circle cx="34.20" cy="176.67" r="3.33" fill="#000000"/>
    <circle cx="42.54" cy="176.67" r="3.33" fill="#000000"/>
    <circle cx="50.88" cy="176.67" r="3.33" fill="#000000"/>
    <circle cx="59.21" cy="176.67" r="3.33" fill="#000000"/>
    <circle cx="67.55" cy="176.67" r="3.33" fill="#000000"/>
    <circle cx="75.89" cy="176.67" r="3.33" fill="#000000"/>
    <circle cx="84.22" cy="176.67" r="3.33" fill="#000000"/>
    <circle cx="92.56" cy="176.67" r="3.33" fill="#000000"/>
    <circle cx="100.90" cy="176.67" r="3.33" fill="#000000"/>
    <circle cx="9.69" cy="166.68" r="3.33" fill="#000000"/>
    <circle cx="18.04" cy="166.80" r="3.33" fill="#000000"/>
    <circle cx="26.41" cy="166.73" r="3.33" fill="#000000"/>
    <circle cx="34.78" cy="166.65" r="3.33" fill="#000000"/>
    <circle cx="43.14" cy="166.80" r="3.33" fill="#000000"/>
    <circle cx="51.52" cy="166.71" r="3.33" fill="#000000"/>
    <circle cx="59.91" cy="166.62" r="3.33" fill="#000000"/>
    <circle cx="68.28" cy="166.79" r="3.33" fill="#000000"/>
    <circle cx="76.69" cy="166.69" r="3.33" fill="#000000"/>
    <circle cx="10.76" cy="156.74" r="3.33" fill="#000000"/>
    <circle cx="85.11" cy="166.56" r="3.33" fill="#000000"/>
    <circle cx="19.14" cy="156.99" r="3.33" fill="#000000"/>
    <circle cx="27.58" cy="156.85" r="3.33" fill="#000000"/>
    <circle cx="93.50" cy="166.78" r="3.33" fill="#000000"/>
    <circle cx="36.04" cy="156.70" r="3.33" fill="#000000"/>
    <circle cx="44.44" cy="156.99" r="3.33" fill="#000000"/>
    <circle cx="101.97" cy="166.65" r="3.33" fill="#000000"/>
    <circle cx="52.93" cy="156.84" r="3.33" fill="#000000"/>
    <circle cx="61.44" cy="156.66" r="3.33" fill="#000000"/>
    <circle cx="12.41" cy="146.88" r="3.33" fill="#000000"/>
    <circle cx="20.83" cy="147.25" r="3.33" fill="#000000"/>
    <circle cx="69.87" cy="157.02" r="3.33" fill="#000000"/>
    <circle cx="29.39" cy="147.07" r="3.33" fill="#000000"/>
    <circle cx="78.44" cy="156.83" r="3.33" fill="#000000"/>
    <circle cx="37.98" cy="146.86" r="3.33" fill="#000000"/>
    <circle cx="46.44" cy="147.31" r="3.33" fill="#000000"/>
    <circle cx="87.07" cy="156.60" r="3.33" fill="#000000"/>
    <circle cx="14.63" cy="137.13" r="3.33" fill="#000000"/>
    <circle cx="55.09" cy="147.10" r="3.33" fill="#000000"/>
    <circle cx="23.12" cy="137.64" r="3.33" fill="#000000"/>
    <circle cx="95.56" cy="157.07" r="3.33" fill="#000000"/>
    <circle cx="63.80" cy="146.86" r="3.33" fill="#000000"/>
    <circle cx="31.83" cy="137.42" r="3.33" fill="#000000"/>
    <circle cx="72.32" cy="147.42" r="3.33" fill="#000000"/>
    <circle cx="104.30" cy="156.84" r="3.33" fill="#000000"/>
    <circle cx="40.60" cy="137.18" r="3.33" fill="#000000"/>
    <circle cx="49.14" cy="137.80" r="3.33" fill="#000000"/>
    <circle cx="17.43" cy="127.53" r="3.33" fill="#000000"/>
    <circle cx="81.14" cy="147.18" r="3.33" fill="#000000"/>
    <circle cx="25.98" cy="128.19" r="3.33" fill="#000000"/>
    <circle cx="58.01" cy="137.56" r="3.33" fill="#000000"/>
    <circle cx="34.88" cy="127.95" r="3.33" fill="#000000"/>
    <circle cx="90.06" cy="146.91" r="3.33" fill="#000000"/>
    <circle cx="66.97" cy="137.29" r="3.33" fill="#000000"/>
    <circle cx="43.87" cy="127.69" r="3.33" fill="#000000"/>
    <circle cx="20.77" cy="118.11" r="3.33" fill="#000000"/>
    <circle cx="98.70" cy="147.65" r="3.33" fill="#000000"/>
    <circle cx="75.60" cy="138.07" r="3.33" fill="#000000"/>
    <circle cx="52.51" cy="128.50" r="3.33" fill="#000000"/>
    <circle cx="29.41" cy="118.93" r="3.33" fill="#000000"/>
    <circle cx="38.54" cy="118.70" r="3.33" fill="#000000"/>
    <circle cx="61.64" cy="128.27" r="3.33" fill="#000000"/>
    <circle cx="84.75" cy="137.84" r="3.33" fill="#000000"/>
    <circle cx="107.85" cy="147.41" r="3.33" fill="#000000"/>
    <circle cx="24.67" cy="108.90" r="3.33" fill="#000000"/>
    <circle cx="47.79" cy="118.46" r="3.33" fill="#000000"/>
    <circle cx="70.92" cy="128.02" r="3.33" fill="#000000"/>
    <circle cx="33.40" cy="109.89" r="3.33" fill="#000000"/>
    <circle cx="56.54" cy="119.47" r="3.33" fill="#000000"/>
    <circle cx="94.06" cy="137.58" r="3.33" fill="#000000"/>
    <circle cx="79.70" cy="129.05" r="3.33" fill="#000000"/>
    <circle cx="42.79" cy="109.70" r="3.33" fill="#000000"/>
    <circle cx="29.09" cy="99.93" r="3.33" fill="#000000"/>
    <circle cx="65.99" cy="119.29" r="3.33" fill="#000000"/>
    <circle cx="102.89" cy="138.65" r="3.33" fill="#000000"/>
    <circle cx="52.33" cy="109.52" r="3.33" fill="#000000"/>
    <circle cx="37.93" cy="101.11" r="3.33" fill="#000000"/>
    <circle cx="89.24" cy="128.89" r="3.33" fill="#000000"/>
    <circle cx="61.21" cy="110.75" r="3.33" fill="#000000"/>
    <circle cx="75.63" cy="119.11" r="3.33" fill="#000000"/>
    <circle cx="47.61" cy="101.00" r="3.33" fill="#000000"/>
    <circle cx="34.04" cy="91.24" r="3.33" fill="#000000"/>
    <circle cx="112.58" cy="138.51" r="3.33" fill="#000000"/>
    <circle cx="84.57" cy="120.43" r="3.33" fill="#000000"/>
    <circle cx="99.03" cy="128.73" r="3.33" fill="#000000"/>
    <circle cx="71.01" cy="110.67" r="3.33" fill="#000000"/>
    <circle cx="42.99" cy="92.63" r="3.33" fill="#000000"/>
    <circle cx="57.48" cy="100.91" r="3.33" fill="#000000"/>
    <circle cx="66.49" cy="102.40" r="3.33" fill="#000000"/>
    <circle cx="52.98" cy="92.63" r="3.33" fill="#000000"/>
    <circle cx="39.48" cy="82.85" r="3.33" fill="#000000"/>
    <circle cx="108.07" cy="130.18" r="3.33" fill="#000000"/>
    <circle cx="94.56" cy="120.41" r="3.33" fill="#000000"/>
    <circle cx="81.06" cy="110.63" r="3.33" fill="#000000"/>
    <circle cx="48.55" cy="84.47" r="3.33" fill="#000000"/>
    <circle cx="63.20" cy="92.67" r="3.33" fill="#000000"/>
    <circle cx="76.69" cy="102.47" r="3.33" fill="#000000"/>
    <circle cx="90.18" cy="112.27" r="3.33" fill="#000000"/>
    <circle cx="45.40" cy="74.80" r="3.33" fill="#000000"/>
    <circle cx="58.88" cy="84.61" r="3.33" fill="#000000"/>
    <circle cx="104.91" cy="120.46" r="3.33" fill="#000000"/>
    <circle cx="72.36" cy="94.44" r="3.33" fill="#000000"/>
    <circle cx="118.40" cy="130.28" r="3.33" fill="#000000"/>
    <circle cx="54.60" cy="76.66" r="3.33" fill="#000000"/>
    <circle cx="87.19" cy="102.63" r="3.33" fill="#000000"/>
    <circle cx="100.68" cy="112.48" r="3.33" fill="#000000"/>
    <circle cx="69.48" cy="84.85" r="3.33" fill="#000000"/>
    <circle cx="114.18" cy="122.35" r="3.33" fill="#000000"/>
    <circle cx="82.98" cy="94.73" r="3.33" fill="#000000"/>
    <circle cx="51.79" cy="67.10" r="3.33" fill="#000000"/>
    <circle cx="65.29" cy="77.00" r="3.33" fill="#000000"/>
    <circle cx="96.48" cy="104.63" r="3.33" fill="#000000"/>
    <circle cx="78.79" cy="86.92" r="3.33" fill="#000000"/>
    <circle cx="61.11" cy="69.23" r="3.33" fill="#000000"/>
    <circle cx="111.62" cy="112.85" r="3.33" fill="#000000"/>
    <circle cx="93.96" cy="95.16" r="3.33" fill="#000000"/>
    <circle cx="76.29" cy="77.48" r="3.33" fill="#000000"/>
    <circle cx="58.61" cy="59.79" r="3.33" fill="#000000"/>
    <circle cx="72.17" cy="69.82" r="3.33" fill="#000000"/>
    <circle cx="89.85" cy="87.49" r="3.33" fill="#000000"/>
    <circle cx="107.53" cy="105.17" r="3.33" fill="#000000"/>
    <circle cx="125.21" cy="122.86" r="3.33" fill="#000000"/>
    <circle cx="68.06" cy="62.21" r="3.33" fill="#000000"/>
    <circle cx="85.74" cy="79.89" r="3.33" fill="#000000"/>
    <circle cx="103.43" cy="97.58" r="3.33" fill="#000000"/>
    <circle cx="121.13" cy="115.26" r="3.33" fill="#000000"/>
    <circle cx="65.86" cy="52.90" r="3.33" fill="#000000"/>
    <circle cx="83.58" cy="70.59" r="3.33" fill="#000000"/>
    <circle cx="79.50" cy="63.09" r="3.33" fill="#000000"/>
    <circle cx="101.32" cy="88.29" r="3.33" fill="#000000"/>
    <circle cx="75.42" cy="55.62" r="3.33" fill="#000000"/>
    <circle cx="97.26" cy="80.81" r="3.33" fill="#000000"/>
    <circle cx="119.10" cy="106.00" r="3.33" fill="#000000"/>
    <circle cx="93.18" cy="73.38" r="3.33" fill="#000000"/>
    <circle cx="115.05" cy="98.56" r="3.33" fill="#000000"/>
    <circle cx="73.49" cy="46.44" r="3.33" fill="#000000"/>
    <circle cx="110.98" cy="91.16" r="3.33" fill="#000000"/>
    <circle cx="91.33" cy="64.22" r="3.33" fill="#000000"/>
    <circle cx="87.25" cy="56.85" r="3.33" fill="#000000"/>
    <circle cx="83.17" cy="49.50" r="3.33" fill="#000000"/>
    <circle cx="132.92" cy="116.36" r="3.33" fill="#000000"/>
    <circle cx="109.24" cy="82.05" r="3.33" fill="#000000"/>
    <circle cx="128.84" cy="109.01" r="3.33" fill="#000000"/>
    <circle cx="105.16" cy="74.72" r="3.33" fill="#000000"/>
    <circle cx="81.48" cy="40.43" r="3.33" fill="#000000"/>
    <circle cx="101.07" cy="67.41" r="3.33" fill="#000000"/>
    <circle cx="99.50" cy="58.40" r="3.33" fill="#000000"/>
    <circle cx="127.27" cy="99.98" r="3.33" fill="#000000"/>
    <circle cx="95.39" cy="51.12" r="3.33" fill="#000000"/>
    <circle cx="91.28" cy="43.86" r="3.33" fill="#000000"/>
    <circle cx="123.17" cy="92.70" r="3.33" fill="#000000"/>
    <circle cx="119.06" cy="85.43" r="3.33" fill="#000000"/>
    <circle cx="89.82" cy="34.91" r="3.33" fill="#000000"/>
    <circle cx="117.65" cy="76.50" r="3.33" fill="#000000"/>
    <circle cx="113.51" cy="69.26" r="3.33" fill="#000000"/>
    <circle cx="109.37" cy="62.03" r="3.33" fill="#000000"/>
    <circle cx="99.71" cy="38.72" r="3.33" fill="#000000"/>
    <circle cx="103.88" cy="45.94" r="3.33" fill="#000000"/>
    <circle cx="108.05" cy="53.15" r="3.33" fill="#000000"/>
    <circle cx="137.22" cy="103.67" r="3.33" fill="#000000"/>
    <circle cx="141.38" cy="110.89" r="3.33" fill="#000000"/>
    <circle cx="98.46" cy="29.88" r="3.33" fill="#000000"/>
    <circle cx="127.61" cy="80.44" r="3.33" fill="#000000"/>
    <circle cx="131.82" cy="87.65" r="3.33" fill="#000000"/>
    <circle cx="136.03" cy="94.85" r="3.33" fill="#000000"/>
    <circle cx="118.03" cy="57.26" r="3.33" fill="#000000"/>
    <circle cx="122.25" cy="64.46" r="3.33" fill="#000000"/>
    <circle cx="126.49" cy="71.66" r="3.33" fill="#000000"/>
    <circle cx="108.45" cy="34.10" r="3.33" fill="#000000"/>
    <circle cx="112.69" cy="41.30" r="3.33" fill="#000000"/>
    <circle cx="116.94" cy="48.51" r="3.33" fill="#000000"/>
    <circle cx="107.38" cy="25.37" r="3.33" fill="#000000"/>
    <circle cx="146.14" cy="99.32" r="3.33" fill="#000000"/>
    <circle cx="136.57" cy="76.22" r="3.33" fill="#000000"/>
    <circle cx="127.01" cy="53.12" r="3.33" fill="#000000"/>
    <circle cx="117.44" cy="30.02" r="3.33" fill="#000000"/>
    <circle cx="121.77" cy="37.25" r="3.33" fill="#000000"/>
    <circle cx="131.34" cy="60.35" r="3.33" fill="#000000"/>
    <circle cx="140.91" cy="83.45" r="3.33" fill="#000000"/>
    <circle cx="150.48" cy="106.54" r="3.33" fill="#000000"/>
    <circle cx="116.55" cy="21.39" r="3.33" fill="#000000"/>
    <circle cx="126.13" cy="44.48" r="3.33" fill="#000000"/>
    <circle cx="135.70" cy="67.58" r="3.33" fill="#000000"/>
    <circle cx="145.28" cy="90.68" r="3.33" fill="#000000"/>
    <circle cx="126.67" cy="26.50" r="3.33" fill="#000000"/>
    <circle cx="136.26" cy="49.64" r="3.33" fill="#000000"/>
    <circle cx="131.10" cy="33.79" r="3.33" fill="#000000"/>
    <circle cx="125.94" cy="17.94" r="3.33" fill="#000000"/>
    <circle cx="135.57" cy="41.10" r="3.33" fill="#000000"/>
    <circle cx="140.72" cy="56.95" r="3.33" fill="#000000"/>
    <circle cx="145.87" cy="72.80" r="3.33" fill="#000000"/>
    <circle cx="145.22" cy="64.28" r="3.33" fill="#000000"/>
    <circle cx="150.36" cy="80.14" r="3.33" fill="#000000"/>
    <circle cx="155.50" cy="96.00" r="3.33" fill="#000000"/>
    <circle cx="136.10" cy="23.54" r="3.33" fill="#000000"/>
    <circle cx="154.92" cy="87.51" r="3.33" fill="#000000"/>
    <circle cx="135.52" cy="15.06" r="3.33" fill="#000000"/>
    <circle cx="140.64" cy="30.94" r="3.33" fill="#000000"/>
    <circle cx="160.05" cy="103.39" r="3.33" fill="#000000"/>
    <circle cx="145.75" cy="46.83" r="3.33" fill="#000000"/>
    <circle cx="145.22" cy="38.37" r="3.33" fill="#000000"/>
    <circle cx="150.33" cy="54.29" r="3.33" fill="#000000"/>
    <circle cx="155.43" cy="70.22" r="3.33" fill="#000000"/>
    <circle cx="145.68" cy="21.16" r="3.33" fill="#000000"/>
    <circle cx="154.98" cy="61.78" r="3.33" fill="#000000"/>
    <circle cx="145.24" cy="12.74" r="3.33" fill="#000000"/>
    <circle cx="150.33" cy="28.71" r="3.33" fill="#000000"/>
    <circle cx="160.09" cy="77.75" r="3.33" fill="#000000"/>
    <circle cx="155.41" cy="44.72" r="3.33" fill="#000000"/>
    <circle cx="155.04" cy="36.32" r="3.33" fill="#000000"/>
    <circle cx="165.17" cy="93.77" r="3.33" fill="#000000"/>
    <circle cx="164.84" cy="85.37" r="3.33" fill="#000000"/>
    <circle cx="160.12" cy="52.37" r="3.33" fill="#000000"/>
    <circle cx="155.40" cy="19.37" r="3.33" fill="#000000"/>
    <circle cx="155.09" cy="10.99" r="3.33" fill="#000000"/>
    <circle cx="165.18" cy="68.48" r="3.33" fill="#000000"/>
    <circle cx="160.15" cy="27.12" r="3.33" fill="#000000"/>
    <circle cx="169.94" cy="101.47" r="3.33" fill="#000000"/>
    <circle cx="164.92" cy="60.11" r="3.33" fill="#000000"/>
    <circle cx="165.19" cy="43.30" r="3.33" fill="#000000"/>
    <circle cx="164.98" cy="34.94" r="3.33" fill="#000000"/>
    <circle cx="170.00" cy="76.31" r="3.33" fill="#000000"/>
    <circle cx="165.20" cy="18.18" r="3.33" fill="#000000"/>
    <circle cx="165.02" cy="9.82" r="3.33" fill="#000000"/>
    <circle cx="170.03" cy="51.22" r="3.33" fill="#000000"/>
    <circle cx="170.06" cy="26.15" r="3.33" fill="#000000"/>
    <circle cx="175.04" cy="92.64" r="3.33" fill="#000000"/>
    <circle cx="174.93" cy="84.30" r="3.33" fill="#000000"/>
    <circle cx="175.05" cy="67.61" r="3.33" fill="#000000"/>
    <circle cx="174.96" cy="59.27" r="3.33" fill="#000000"/>
    <circle cx="175.06" cy="42.59" r="3.33" fill="#000000"/>
    <circle cx="174.98" cy="34.25" r="3.33" fill="#000000"/>
    <circle cx="175.06" cy="17.58" r="3.33" fill="#000000"/>
    <circle cx="175.00" cy="9.24" r="3.33" fill="#000000"/>
    <circle cx="180.00" cy="25.83" r="3.33" fill="#000000"/>
    <circle cx="180.00" cy="50.83" r="3.33" fill="#000000"/>
    <circle cx="180.00" cy="75.83" r="3.33" fill="#000000"/>
    <circle cx="180.00" cy="100.83" r="3.33" fill="#000000"/>
    <circle cx="185.00" cy="9.24" r="3.33" fill="#000000"/>
    <circle cx="184.94" cy="17.58" r="3.33" fill="#000000"/>
    <circle cx="185.02" cy="34.25" r="3.33" fill="#000000"/>
    <circle cx="184.94" cy="42.59" r="3.33" fill="#000000"/>
    <circle cx="185.04" cy="59.27" r="3.33" fill="#000000"/>
    <circle cx="184.95" cy="67.61" r="3.33" fill="#000000"/>
    <circle cx="185.07" cy="84.30" r="3.33" fill="#000000"/>
    <circle cx="184.96" cy="92.64" r="3.33" fill="#000000"/>
    <circle cx="189.94" cy="26.15" r="3.33" fill="#000000"/>
    <circle cx="189.97" cy="51.22" r="3.33" fill="#000000"/>
    <circle cx="194.98" cy="9.82" r="3.33" fill="#000000"/>
    <circle cx="194.80" cy="18.18" r="3.33" fill="#000000"/>
    <circle cx="190.00" cy="76.31" r="3.33" fill="#000000"/>
    <circle cx="195.02" cy="34.94" r="3.33" fill="#000000"/>
    <circle cx="194.81" cy="43.30" r="3.33" fill="#000000"/>
    <circle cx="195.08" cy="60.11" r="3.33" fill="#000000"/>
    <circle cx="190.06" cy="101.47" r="3.33" fill="#000000"/>
    <circle cx="199.85" cy="27.12" r="3.33" fill="#000000"/>
    <circle cx="194.82" cy="68.48" r="3.33" fill="#000000"/>
    <circle cx="204.91" cy="10.99" r="3.33" fill="#000000"/>
    <circle cx="204.60" cy="19.37" r="3.33" fill="#000000"/>
    <circle cx="199.88" cy="52.37" r="3.33" fill="#000000"/>
    <circle cx="195.16" cy="85.37" r="3.33" fill="#000000"/>
    <circle cx="194.83" cy="93.77" r="3.33" fill="#000000"/>
    <circle cx="204.96" cy="36.32" r="3.33" fill="#000000"/>
    <circle cx="204.59" cy="44.72" r="3.33" fill="#000000"/>
    <circle cx="199.91" cy="77.75" r="3.33" fill="#000000"/>
    <circle cx="209.67" cy="28.71" r="3.33" fill="#000000"/>
    <circle cx="214.76" cy="12.74" r="3.33" fill="#000000"/>
    <circle cx="205.02" cy="61.78" r="3.33" fill="#000000"/>
    <circle cx="214.32" cy="21.16" r="3.33" fill="#000000"/>
    <circle cx="204.57" cy="70.22" r="3.33" fill="#000000"/>
    <circle cx="209.67" cy="54.29" r="3.33" fill="#000000"/>
    <circle cx="214.78" cy="38.37" r="3.33" fill="#000000"/>
    <circle cx="214.25" cy="46.83" r="3.33" fill="#000000"/>
    <circle cx="199.95" cy="103.39" r="3.33" fill="#000000"/>
    <circle cx="219.36" cy="30.94" r="3.33" fill="#000000"/>
    <circle cx="224.48" cy="15.06" r="3.33" fill="#000000"/>
    <circle cx="205.08" cy="87.51" r="3.33" fill="#000000"/>
    <circle cx="223.90" cy="23.54" r="3.33" fill="#000000"/>
    <circle cx="204.50" cy="96.00" r="3.33" fill="#000000"/>
    <circle cx="209.64" cy="80.14" r="3.33" fill="#000000"/>
    <circle cx="214.78" cy="64.28" r="3.33" fill="#000000"/>
    <circle cx="214.13" cy="72.80" r="3.33" fill="#000000"/>
    <circle cx="219.28" cy="56.95" r="3.33" fill="#000000"/>
    <circle cx="224.43" cy="41.10" r="3.33" fill="#000000"/>
    <circle cx="234.06" cy="17.94" r="3.33" fill="#000000"/>
    <circle cx="228.90" cy="33.79" r="3.33" fill="#000000"/>
    <circle cx="223.74" cy="49.64" r="3.33" fill="#000000"/>
    <circle cx="233.33" cy="26.50" r="3.33" fill="#000000"/>
    <circle cx="214.72" cy="90.68" r="3.33" fill="#000000"/>
    <circle cx="224.30" cy="67.58" r="3.33" fill="#000000"/>
    <circle cx="233.87" cy="44.48" r="3.33" fill="#000000"/>
    <circle cx="243.45" cy="21.39" r="3.33" fill="#000000"/>
    <circle cx="209.52" cy="106.54" r="3.33" fill="#000000"/>
    <circle cx="219.09" cy="83.45" r="3.33" fill="#000000"/>
    <circle cx="228.66" cy="60.35" r="3.33" fill="#000000"/>
    <circle cx="238.23" cy="37.25" r="3.33" fill="#000000"/>
    <circle cx="242.56" cy="30.02" r="3.33" fill="#000000"/>
    <circle cx="232.99" cy="53.12" r="3.33" fill="#000000"/>
    <circle cx="223.43" cy="76.22" r="3.33" fill="#000000"/>
    <circle cx="213.86" cy="99.32" r="3.33" fill="#000000"/>
    <circle cx="252.62" cy="25.37" r="3.33" fill="#000000"/>
    <circle cx="243.06" cy="48.51" r="3.33" fill="#000000"/>
    <circle cx="247.31" cy="41.30" r="3.33" fill="#000000"/>
    <circle cx="251.55" cy="34.10" r="3.33" fill="#000000"/>
    <circle cx="233.51" cy="71.66" r="3.33" fill="#000000"/>
    <circle cx="237.75" cy="64.46" r="3.33" fill="#000000"/>
    <circle cx="241.97" cy="57.26" r="3.33" fill="#000000"/>
    <circle cx="223.97" cy="94.85" r="3.33" fill="#000000"/>
    <circle cx="228.18" cy="87.65" r="3.33" fill="#000000"/>
    <circle cx="232.39" cy="80.44" r="3.33" fill="#000000"/>
    <circle cx="261.54" cy="29.88" r="3.33" fill="#000000"/>
    <circle cx="218.62" cy="110.89" r="3.33" fill="#000000"/>
    <circle cx="222.78" cy="103.67" r="3.33" fill="#000000"/>
    <circle cx="251.95" cy="53.15" r="3.33" fill="#000000"/>
    <circle cx="256.12" cy="45.94" r="3.33" fill="#000000"/>
    <circle cx="260.29" cy="38.72" r="3.33" fill="#000000"/>
    <circle cx="250.63" cy="62.03" r="3.33" fill="#000000"/>
    <circle cx="246.49" cy="69.26" r="3.33" fill="#000000"/>
    <circle cx="242.35" cy="76.50" r="3.33" fill="#000000"/>
    <circle cx="270.18" cy="34.91" r="3.33" fill="#000000"/>
    <circle cx="240.94" cy="85.43" r="3.33" fill="#000000"/>
    <circle cx="236.83" cy="92.70" r="3.33" fill="#000000"/>
    <circle cx="268.72" cy="43.86" r="3.33" fill="#000000"/>
    <circle cx="264.61" cy="51.12" r="3.33" fill="#000000"/>
    <circle cx="232.73" cy="99.98" r="3.33" fill="#000000"/>
    <circle cx="260.50" cy="58.40" r="3.33" fill="#000000"/>
    <circle cx="258.93" cy="67.41" r="3.33" fill="#000000"/>
    <circle cx="278.52" cy="40.43" r="3.33" fill="#000000"/>
    <circle cx="254.84" cy="74.72" r="3.33" fill="#000000"/>
    <circle cx="231.16" cy="109.01" r="3.33" fill="#000000"/>
    <circle cx="250.76" cy="82.05" r="3.33" fill="#000000"/>
    <circle cx="227.08" cy="116.36" r="3.33" fill="#000000"/>
    <circle cx="276.83" cy="49.50" r="3.33" fill="#000000"/>
    <circle cx="272.75" cy="56.85" r="3.33" fill="#000000"/>
    <circle cx="268.67" cy="64.22" r="3.33" fill="#000000"/>
    <circle cx="249.02" cy="91.16" r="3.33" fill="#000000"/>
    <circle cx="286.51" cy="46.44" r="3.33" fill="#000000"/>
    <circle cx="244.95" cy="98.56" r="3.33" fill="#000000"/>
    <circle cx="266.82" cy="73.38" r="3.33" fill="#000000"/>
    <circle cx="240.90" cy="106.00" r="3.33" fill="#000000"/>
    <circle cx="262.74" cy="80.81" r="3.33" fill="#000000"/>
    <circle cx="284.58" cy="55.62" r="3.33" fill="#000000"/>
    <circle cx="258.68" cy="88.29" r="3.33" fill="#000000"/>
    <circle cx="280.50" cy="63.09" r="3.33" fill="#000000"/>
    <circle cx="276.42" cy="70.59" r="3.33" fill="#000000"/>
    <circle cx="294.14" cy="52.90" r="3.33" fill="#000000"/>
    <circle cx="238.87" cy="115.26" r="3.33" fill="#000000"/>
    <circle cx="256.57" cy="97.58" r="3.33" fill="#000000"/>
    <circle cx="274.26" cy="79.89" r="3.33" fill="#000000"/>
    <circle cx="291.94" cy="62.21" r="3.33" fill="#000000"/>
    <circle cx="234.79" cy="122.86" r="3.33" fill="#000000"/>
    <circle cx="252.47" cy="105.17" r="3.33" fill="#000000"/>
    <circle cx="270.15" cy="87.49" r="3.33" fill="#000000"/>
    <circle cx="287.83" cy="69.82" r="3.33" fill="#000000"/>
    <circle cx="301.39" cy="59.79" r="3.33" fill="#000000"/>
    <circle cx="283.71" cy="77.48" r="3.33" fill="#000000"/>
    <circle cx="266.04" cy="95.16" r="3.33" fill="#000000"/>
    <circle cx="248.38" cy="112.85" r="3.33" fill="#000000"/>
    <circle cx="298.89" cy="69.23" r="3.33" fill="#000000"/>
    <circle cx="281.21" cy="86.92" r="3.33" fill="#000000"/>
    <circle cx="263.52" cy="104.63" r="3.33" fill="#000000"/>
    <circle cx="294.71" cy="77.00" r="3.33" fill="#000000"/>
    <circle cx="308.21" cy="67.10" r="3.33" fill="#000000"/>
    <circle cx="277.02" cy="94.73" r="3.33" fill="#000000"/>
    <circle cx="245.82" cy="122.35" r="3.33" fill="#000000"/>
    <circle cx="290.52" cy="84.85" r="3.33" fill="#000000"/>
    <circle cx="259.32" cy="112.48" r="3.33" fill="#000000"/>
    <circle cx="272.81" cy="102.63" r="3.33" fill="#000000"/>
    <circle cx="305.40" cy="76.66" r="3.33" fill="#000000"/>
    <circle cx="241.60" cy="130.28" r="3.33" fill="#000000"/>
    <circle cx="287.64" cy="94.44" r="3.33" fill="#000000"/>
    <circle cx="255.09" cy="120.46" r="3.33" fill="#000000"/>
    <circle cx="301.12" cy="84.61" r="3.33" fill="#000000"/>
    <circle cx="314.60" cy="74.80" r="3.33" fill="#000000"/>
    <circle cx="269.82" cy="112.27" r="3.33" fill="#000000"/>
    <circle cx="283.31" cy="102.47" r="3.33" fill="#000000"/>
    <circle cx="296.80" cy="92.67" r="3.33" fill="#000000"/>
    <circle cx="311.45" cy="84.47" r="3.33" fill="#000000"/>
    <circle cx="278.94" cy="110.63" r="3.33" fill="#000000"/>
    <circle cx="265.44" cy="120.41" r="3.33" fill="#000000"/>
    <circle cx="251.93" cy="130.18" r="3.33" fill="#000000"/>
    <circle cx="320.52" cy="82.85" r="3.33" fill="#000000"/>
    <circle cx="307.02" cy="92.63" r="3.33" fill="#000000"/>
    <circle cx="293.51" cy="102.40" r="3.33" fill="#000000"/>
    <circle cx="302.52" cy="100.91" r="3.33" fill="#000000"/>
    <circle cx="317.01" cy="92.63" r="3.33" fill="#000000"/>
    <circle cx="288.99" cy="110.67" r="3.33" fill="#000000"/>
    <circle cx="260.97" cy="128.73" r="3.33" fill="#000000"/>
    <circle cx="275.43" cy="120.43" r="3.33" fill="#000000"/>
    <circle cx="247.42" cy="138.51" r="3.33" fill="#000000"/>
    <circle cx="325.96" cy="91.24" r="3.33" fill="#000000"/>
    <circle cx="312.39" cy="101.00" r="3.33" fill="#000000"/>
    <circle cx="284.37" cy="119.11" r="3.33" fill="#000000"/>
    <circle cx="298.79" cy="110.75" r="3.33" fill="#000000"/>
    <circle cx="270.76" cy="128.89" r="3.33" fill="#000000"/>
    <circle cx="322.07" cy="101.11" r="3.33" fill="#000000"/>
    <circle cx="307.67" cy="109.52" r="3.33" fill="#000000"/>
    <circle cx="257.11" cy="138.65" r="3.33" fill="#000000"/>
    <circle cx="294.01" cy="119.29" r="3.33" fill="#000000"/>
    <circle cx="330.91" cy="99.93" r="3.33" fill="#000000"/>
    <circle cx="317.21" cy="109.70" r="3.33" fill="#000000"/>
    <circle cx="280.30" cy="129.05" r="3.33" fill="#000000"/>
    <circle cx="265.94" cy="137.58" r="3.33" fill="#000000"/>
    <circle cx="303.46" cy="119.47" r="3.33" fill="#000000"/>
    <circle cx="326.60" cy="109.89" r="3.33" fill="#000000"/>
    <circle cx="289.08" cy="128.02" r="3.33" fill="#000000"/>
    <circle cx="312.21" cy="118.46" r="3.33" fill="#000000"/>
    <circle cx="335.33" cy="108.90" r="3.33" fill="#000000"/>
    <circle cx="252.15" cy="147.41" r="3.33" fill="#000000"/>
    <circle cx="275.25" cy="137.84" r="3.33" fill="#000000"/>
    <circle cx="298.36" cy="128.27" r="3.33" fill="#000000"/>
    <circle cx="321.46" cy="118.70" r="3.33" fill="#000000"/>
    <circle cx="330.59" cy="118.93" r="3.33" fill="#000000"/>
    <circle cx="307.49" cy="128.50" r="3.33" fill="#000000"/>
    <circle cx="284.40" cy="138.07" r="3.33" fill="#000000"/>
    <circle cx="261.30" cy="147.65" r="3.33" fill="#000000"/>
    <circle cx="339.23" cy="118.11" r="3.33" fill="#000000"/>
    <circle cx="316.13" cy="127.69" r="3.33" fill="#000000"/>
    <circle cx="293.03" cy="137.29" r="3.33" fill="#000000"/>
    <circle cx="269.94" cy="146.91" r="3.33" fill="#000000"/>
    <circle cx="325.12" cy="127.95" r="3.33" fill="#000000"/>
    <circle cx="301.99" cy="137.56" r="3.33" fill="#000000"/>
    <circle cx="334.02" cy="128.19" r="3.33" fill="#000000"/>
    <circle cx="278.86" cy="147.18" r="3.33" fill="#000000"/>
    <circle cx="342.57" cy="127.53" r="3.33" fill="#000000"/>
    <circle cx="310.86" cy="137.80" r="3.33" fill="#000000"/>
    <circle cx="319.40" cy="137.18" r="3.33" fill="#000000"/>
    <circle cx="255.70" cy="156.84" r="3.33" fill="#000000"/>
    <circle cx="287.68" cy="147.42" r="3.33" fill="#000000"/>
    <circle cx="328.17" cy="137.42" r="3.33" fill="#000000"/>
    <circle cx="296.20" cy="146.86" r="3.33" fill="#000000"/>
    <circle cx="264.44" cy="157.07" r="3.33" fill="#000000"/>
    <circle cx="336.88" cy="137.64" r="3.33" fill="#000000"/>
    <circle cx="304.91" cy="147.10" r="3.33" fill="#000000"/>
    <circle cx="345.37" cy="137.13" r="3.33" fill="#000000"/>
    <circle cx="272.93" cy="156.60" r="3.33" fill="#000000"/>
    <circle cx="313.56" cy="147.31" r="3.33" fill="#000000"/>
    <circle cx="322.02" cy="146.86" r="3.33" fill="#000000"/>
    <circle cx="281.56" cy="156.83" r="3.33" fill="#000000"/>
    <circle cx="330.61" cy="147.07" r="3.33" fill="#000000"/>
    <circle cx="290.13" cy="157.02" r="3.33" fill="#000000"/>
    <circle cx="339.17" cy="147.25" r="3.33" fill="#000000"/>
    <circle cx="347.59" cy="146.88" r="3.33" fill="#000000"/>
    <circle cx="298.56" cy="156.66" r="3.33" fill="#000000"/>
    <circle cx="307.07" cy="156.84" r="3.33" fill="#000000"/>
    <circle cx="258.03" cy="166.65" r="3.33" fill="#000000"/>
    <circle cx="315.56" cy="156.99" r="3.33" fill="#000000"/>
    <circle cx="323.96" cy="156.70" r="3.33" fill="#000000"/>
    <circle cx="266.50" cy="166.78" r="3.33" fill="#000000"/>
    <circle cx="332.42" cy="156.85" r="3.33" fill="#000000"/>
    <circle cx="340.86" cy="156.99" r="3.33" fill="#000000"/>
    <circle cx="274.89" cy="166.56" r="3.33" fill="#000000"/>
    <circle cx="349.24" cy="156.74" r="3.33" fill="#000000"/>
    <circle cx="283.31" cy="166.69" r="3.33" fill="#000000"/>
    <circle cx="291.72" cy="166.79" r="3.33" fill="#000000"/>
    <circle cx="300.09" cy="166.62" r="3.33" fill="#000000"/>
    <circle cx="308.48" cy="166.71" r="3.33" fill="#000000"/>
    <circle cx="316.86" cy="166.80" r="3.33" fill="#000000"/>
    <circle cx="325.22" cy="166.65" r="3.33" fill="#000000"/>
    <circle cx="333.59" cy="166.73" r="3.33" fill="#000000"/>
    <circle cx="341.96" cy="166.80" r="3.33" fill="#000000"/>
    <circle cx="350.31" cy="166.68" r="3.33" fill="#000000"/>
    <circle cx="259.10" cy="176.67" r="3.33" fill="#000000"/>
    <circle cx="267.44" cy="176.67" r="3.33" fill="#000000"/>
    <circle cx="275.78" cy="176.67" r="3.33" fill="#000000"/>
    <circle cx="284.11" cy="176.67" r="3.33" fill="#000000"/>
    <circle cx="292.45" cy="176.67" r="3.33" fill="#000000"/>
    <circle cx="300.79" cy="176.67" r="3.33" fill="#000000"/>
    <circle cx="309.12" cy="176.67" r="3.33" fill="#000000"/>
    <circle cx="317.46" cy="176.67" r="3.33" fill="#000000"/>
    <circle cx="325.80" cy="176.67" r="3.33" fill="#000000"/>
    <circle cx="334.13" cy="176.67" r="3.33" fill="#000000"/>
    <circle cx="342.47" cy="176.67" r="3.33" fill="#000000"/>
    <circle cx="350.80" cy="176.67" r="3.33" fill="#000000"/>
  </g>
</g>
</svg>