<?xml version="1.0" encoding="UTF-8" standalone="no"?>
<svg xmlns:svg="http://www.w3.org/2000/svg"
xmlns="http://www.w3.org/2000/svg" version="1.1"
width="360" height="185">
<!-- Created with the Wikimedia parliament diagram creator (http://parliamentdiagram.toolforge.org/parliamentinputform.html) -->
<g>
<text x="175" y="175" id="seat_number" style="font-size:36px;font-weight:bold;text-align:center;text-anchor:middle;font-family:sans-serif">483</text>
  <rect width="360" height="185" fill="#dddddd00" id="hover-rectangle" />
  <g style="fill:#000000; stroke:none" id="Results" onmouseover="hover(event)">
    <circle cx="9.20" cy="176.67" r="3.33" fill="#000000"/>
    <circle cx="17.53" cy="176.67" r="3.33" fill="#000000"/>
    <circle cx="25.87" cy="176.67" r="3.33" fill="#000000"/>
    <circle cx="34.20" cy="176.67" r="3.33" fill="#000000"/>
    <circle cx="42.54" cy="176.67" r="3.33" fill="#000000"/>
    <circle cx="50.88" cy="176.67" r="3.33" fill="#000000"/>
    <circle cx="59.21" cy="176.67" r="3.33" fill="#000000"/>
    <circle cx="67.55" cy="176.67" r="3.33" fill="#000000"/>
    <circle cx="75.89" cy="176.67" r="3.33" fill="#000000"/>
    <circle cx="84.22" cy="176.67" r="3.33" fill="#000000"/>
    <circle cx="92.56" cy="176.67" r="3.33" fill="#000000"/>
    <circle cx="100.90" cy="176.67" r="3.33" fill="#000000"/>
    <circle cx="9.66" cy="167.04" r="3.33" fill="#000000"/>
    <circle cx="18.04" cy="166.80" r="3.33" fill="#000000"/>
    <circle cx="26.39" cy="166.93" r="3.33" fill="#000000"/>
    <circle cx="34.76" cy="166.87" r="3.33" fill="#000000"/>
    <circle cx="43.14" cy="166.80" r="3.33" fill="#000000"/>
    <circle cx="51.49" cy="166.95" r="3.33" fill="#000000"/>
    <circle cx="59.88" cy="166.88" r="3.33" fill="#000000"/>
    <circle cx="68.28" cy="166.79" r="3.33" fill="#000000"/>
    <circle cx="76.69" cy="166.69" r="3.33" fill="#000000"/>
    <circle cx="10.66" cy="157.46" r="3.33" fill="#000000"/>
    <circle cx="85.07" cy="166.90" r="3.33" fill="#000000"/>
    <circle cx="19.14" cy="156.99" r="3.33" fill="#000000"/>
    <circle cx="27.52" cy="157.25" r="3.33" fill="#000000"/>
    <circle cx="93.50" cy="166.78" r="3.33" fill="#000000"/>
    <circle cx="35.97" cy="157.13" r="3.33" fill="#000000"/>
    <circle cx="44.44" cy="156.99" r="3.33" fill="#000000"/>
    <circle cx="101.97" cy="166.65" r="3.33" fill="#000000"/>
    <circle cx="52.84" cy="157.32" r="3.33" fill="#000000"/>
    <circle cx="12.20" cy="147.95" r="3.33" fill="#000000"/>
    <circle cx="61.34" cy="157.18" r="3.33" fill="#000000"/>
    <circle cx="20.83" cy="147.25" r="3.33" fill="#000000"/>
    <circle cx="69.87" cy="157.02" r="3.33" fill="#000000"/>
    <circle cx="29.26" cy="147.66" r="3.33" fill="#000000"/>
    <circle cx="78.44" cy="156.83" r="3.33" fill="#000000"/>
    <circle cx="37.83" cy="147.50" r="3.33" fill="#000000"/>
    <circle cx="86.90" cy="157.26" r="3.33" fill="#000000"/>
    <circle cx="46.44" cy="147.31" r="3.33" fill="#000000"/>
    <circle cx="14.27" cy="138.54" r="3.33" fill="#000000"/>
    <circle cx="54.91" cy="147.81" r="3.33" fill="#000000"/>
    <circle cx="23.12" cy="137.64" r="3.33" fill="#000000"/>
    <circle cx="95.56" cy="157.07" r="3.33" fill="#000000"/>
    <circle cx="63.58" cy="147.62" r="3.33" fill="#000000"/>
    <circle cx="31.61" cy="138.20" r="3.33" fill="#000000"/>
    <circle cx="40.34" cy="138.01" r="3.33" fill="#000000"/>
    <circle cx="72.32" cy="147.42" r="3.33" fill="#000000"/>
    <circle cx="104.30" cy="156.84" r="3.33" fill="#000000"/>
    <circle cx="16.88" cy="129.26" r="3.33" fill="#000000"/>
    <circle cx="49.14" cy="137.80" r="3.33" fill="#000000"/>
    <circle cx="81.14" cy="147.18" r="3.33" fill="#000000"/>
    <circle cx="25.98" cy="128.19" r="3.33" fill="#000000"/>
    <circle cx="57.69" cy="138.48" r="3.33" fill="#000000"/>
    <circle cx="34.54" cy="128.91" r="3.33" fill="#000000"/>
    <circle cx="89.72" cy="147.86" r="3.33" fill="#000000"/>
    <circle cx="66.60" cy="138.29" r="3.33" fill="#000000"/>
    <circle cx="20.00" cy="120.14" r="3.33" fill="#000000"/>
    <circle cx="43.48" cy="128.71" r="3.33" fill="#000000"/>
    <circle cx="98.70" cy="147.65" r="3.33" fill="#000000"/>
    <circle cx="75.60" cy="138.07" r="3.33" fill="#000000"/>
    <circle cx="52.51" cy="128.50" r="3.33" fill="#000000"/>
    <circle cx="29.41" cy="118.93" r="3.33" fill="#000000"/>
    <circle cx="38.06" cy="119.82" r="3.33" fill="#000000"/>
    <circle cx="61.16" cy="129.39" r="3.33" fill="#000000"/>
    <circle cx="23.63" cy="111.22" r="3.33" fill="#000000"/>
    <circle cx="84.75" cy="137.84" r="3.33" fill="#000000"/>
    <circle cx="107.85" cy="147.41" r="3.33" fill="#000000"/>
    <circle cx="47.24" cy="119.65" r="3.33" fill="#000000"/>
    <circle cx="70.35" cy="129.22" r="3.33" fill="#000000"/>
    <circle cx="93.47" cy="138.80" r="3.33" fill="#000000"/>
    <circle cx="33.40" cy="109.89" r="3.33" fill="#000000"/>
    <circle cx="56.54" cy="119.47" r="3.33" fill="#000000"/>
    <circle cx="42.15" cy="110.97" r="3.33" fill="#000000"/>
    <circle cx="79.70" cy="129.05" r="3.33" fill="#000000"/>
    <circle cx="27.75" cy="102.51" r="3.33" fill="#000000"/>
    <circle cx="65.31" cy="120.58" r="3.33" fill="#000000"/>
    <circle cx="102.89" cy="138.65" r="3.33" fill="#000000"/>
    <circle cx="51.60" cy="110.86" r="3.33" fill="#000000"/>
    <circle cx="37.93" cy="101.11" r="3.33" fill="#000000"/>
    <circle cx="89.24" cy="128.89" r="3.33" fill="#000000"/>
    <circle cx="74.83" cy="120.49" r="3.33" fill="#000000"/>
    <circle cx="32.36" cy="94.05" r="3.33" fill="#000000"/>
    <circle cx="46.79" cy="102.40" r="3.33" fill="#000000"/>
    <circle cx="61.21" cy="110.75" r="3.33" fill="#000000"/>
    <circle cx="98.14" cy="130.17" r="3.33" fill="#000000"/>
    <circle cx="112.58" cy="138.51" r="3.33" fill="#000000"/>
    <circle cx="70.11" cy="112.12" r="3.33" fill="#000000"/>
    <circle cx="84.57" cy="120.43" r="3.33" fill="#000000"/>
    <circle cx="56.54" cy="102.38" r="3.33" fill="#000000"/>
    <circle cx="42.99" cy="92.63" r="3.33" fill="#000000"/>
    <circle cx="37.44" cy="85.86" r="3.33" fill="#000000"/>
    <circle cx="51.96" cy="94.14" r="3.33" fill="#000000"/>
    <circle cx="80.01" cy="112.16" r="3.33" fill="#000000"/>
    <circle cx="66.49" cy="102.40" r="3.33" fill="#000000"/>
    <circle cx="108.07" cy="130.18" r="3.33" fill="#000000"/>
    <circle cx="94.56" cy="120.41" r="3.33" fill="#000000"/>
    <circle cx="48.55" cy="84.47" r="3.33" fill="#000000"/>
    <circle cx="62.04" cy="94.25" r="3.33" fill="#000000"/>
    <circle cx="75.53" cy="104.03" r="3.33" fill="#000000"/>
    <circle cx="42.98" cy="77.98" r="3.33" fill="#000000"/>
    <circle cx="90.18" cy="112.27" r="3.33" fill="#000000"/>
    <circle cx="103.66" cy="122.07" r="3.33" fill="#000000"/>
    <circle cx="57.64" cy="86.22" r="3.33" fill="#000000"/>
    <circle cx="72.36" cy="94.44" r="3.33" fill="#000000"/>
    <circle cx="85.84" cy="104.27" r="3.33" fill="#000000"/>
    <circle cx="118.40" cy="130.28" r="3.33" fill="#000000"/>
    <circle cx="54.60" cy="76.66" r="3.33" fill="#000000"/>
    <circle cx="68.07" cy="86.51" r="3.33" fill="#000000"/>
    <circle cx="48.95" cy="70.41" r="3.33" fill="#000000"/>
    <circle cx="81.55" cy="96.38" r="3.33" fill="#000000"/>
    <circle cx="100.68" cy="112.48" r="3.33" fill="#000000"/>
    <circle cx="63.81" cy="78.67" r="3.33" fill="#000000"/>
    <circle cx="114.18" cy="122.35" r="3.33" fill="#000000"/>
    <circle cx="96.48" cy="104.63" r="3.33" fill="#000000"/>
    <circle cx="78.79" cy="86.92" r="3.33" fill="#000000"/>
    <circle cx="61.11" cy="69.23" r="3.33" fill="#000000"/>
    <circle cx="109.98" cy="114.57" r="3.33" fill="#000000"/>
    <circle cx="55.34" cy="63.20" r="3.33" fill="#000000"/>
    <circle cx="92.30" cy="96.88" r="3.33" fill="#000000"/>
    <circle cx="74.61" cy="79.20" r="3.33" fill="#000000"/>
    <circle cx="88.12" cy="89.21" r="3.33" fill="#000000"/>
    <circle cx="70.44" cy="71.53" r="3.33" fill="#000000"/>
    <circle cx="107.53" cy="105.17" r="3.33" fill="#000000"/>
    <circle cx="125.21" cy="122.86" r="3.33" fill="#000000"/>
    <circle cx="62.12" cy="56.36" r="3.33" fill="#000000"/>
    <circle cx="68.06" cy="62.21" r="3.33" fill="#000000"/>
    <circle cx="85.74" cy="79.89" r="3.33" fill="#000000"/>
    <circle cx="103.43" cy="97.58" r="3.33" fill="#000000"/>
    <circle cx="81.63" cy="72.34" r="3.33" fill="#000000"/>
    <circle cx="121.13" cy="115.26" r="3.33" fill="#000000"/>
    <circle cx="99.33" cy="90.04" r="3.33" fill="#000000"/>
    <circle cx="77.52" cy="64.83" r="3.33" fill="#000000"/>
    <circle cx="117.04" cy="107.75" r="3.33" fill="#000000"/>
    <circle cx="95.22" cy="82.55" r="3.33" fill="#000000"/>
    <circle cx="69.28" cy="49.91" r="3.33" fill="#000000"/>
    <circle cx="75.42" cy="55.62" r="3.33" fill="#000000"/>
    <circle cx="93.18" cy="73.38" r="3.33" fill="#000000"/>
    <circle cx="115.05" cy="98.56" r="3.33" fill="#000000"/>
    <circle cx="89.09" cy="65.97" r="3.33" fill="#000000"/>
    <circle cx="85.00" cy="58.58" r="3.33" fill="#000000"/>
    <circle cx="110.98" cy="91.16" r="3.33" fill="#000000"/>
    <circle cx="106.90" cy="83.79" r="3.33" fill="#000000"/>
    <circle cx="76.79" cy="43.87" r="3.33" fill="#000000"/>
    <circle cx="102.80" cy="76.44" r="3.33" fill="#000000"/>
    <circle cx="83.17" cy="49.50" r="3.33" fill="#000000"/>
    <circle cx="132.92" cy="116.36" r="3.33" fill="#000000"/>
    <circle cx="128.84" cy="109.01" r="3.33" fill="#000000"/>
    <circle cx="124.75" cy="101.69" r="3.33" fill="#000000"/>
    <circle cx="101.07" cy="67.41" r="3.33" fill="#000000"/>
    <circle cx="96.97" cy="60.11" r="3.33" fill="#000000"/>
    <circle cx="92.86" cy="52.82" r="3.33" fill="#000000"/>
    <circle cx="84.63" cy="38.27" r="3.33" fill="#000000"/>
    <circle cx="91.28" cy="43.86" r="3.33" fill="#000000"/>
    <circle cx="123.17" cy="92.70" r="3.33" fill="#000000"/>
    <circle cx="119.06" cy="85.43" r="3.33" fill="#000000"/>
    <circle cx="114.94" cy="78.18" r="3.33" fill="#000000"/>
    <circle cx="110.82" cy="70.92" r="3.33" fill="#000000"/>
    <circle cx="109.37" cy="62.03" r="3.33" fill="#000000"/>
    <circle cx="105.22" cy="54.80" r="3.33" fill="#000000"/>
    <circle cx="101.07" cy="47.57" r="3.33" fill="#000000"/>
    <circle cx="92.77" cy="33.12" r="3.33" fill="#000000"/>
    <circle cx="99.71" cy="38.72" r="3.33" fill="#000000"/>
    <circle cx="133.05" cy="96.46" r="3.33" fill="#000000"/>
    <circle cx="137.22" cy="103.67" r="3.33" fill="#000000"/>
    <circle cx="141.38" cy="110.89" r="3.33" fill="#000000"/>
    <circle cx="119.22" cy="66.02" r="3.33" fill="#000000"/>
    <circle cx="123.42" cy="73.23" r="3.33" fill="#000000"/>
    <circle cx="127.61" cy="80.44" r="3.33" fill="#000000"/>
    <circle cx="131.82" cy="87.65" r="3.33" fill="#000000"/>
    <circle cx="101.19" cy="28.43" r="3.33" fill="#000000"/>
    <circle cx="109.60" cy="42.85" r="3.33" fill="#000000"/>
    <circle cx="113.81" cy="50.05" r="3.33" fill="#000000"/>
    <circle cx="118.03" cy="57.26" r="3.33" fill="#000000"/>
    <circle cx="108.45" cy="34.10" r="3.33" fill="#000000"/>
    <circle cx="109.86" cy="24.23" r="3.33" fill="#000000"/>
    <circle cx="127.98" cy="61.77" r="3.33" fill="#000000"/>
    <circle cx="118.41" cy="38.67" r="3.33" fill="#000000"/>
    <circle cx="141.83" cy="92.09" r="3.33" fill="#000000"/>
    <circle cx="132.27" cy="68.99" r="3.33" fill="#000000"/>
    <circle cx="122.70" cy="45.90" r="3.33" fill="#000000"/>
    <circle cx="146.14" cy="99.32" r="3.33" fill="#000000"/>
    <circle cx="136.57" cy="76.22" r="3.33" fill="#000000"/>
    <circle cx="127.01" cy="53.12" r="3.33" fill="#000000"/>
    <circle cx="117.44" cy="30.02" r="3.33" fill="#000000"/>
    <circle cx="140.91" cy="83.45" r="3.33" fill="#000000"/>
    <circle cx="150.48" cy="106.54" r="3.33" fill="#000000"/>
    <circle cx="118.76" cy="20.52" r="3.33" fill="#000000"/>
    <circle cx="127.46" cy="35.06" r="3.33" fill="#000000"/>
    <circle cx="137.03" cy="58.19" r="3.33" fill="#000000"/>
    <circle cx="131.85" cy="42.35" r="3.33" fill="#000000"/>
    <circle cx="126.67" cy="26.50" r="3.33" fill="#000000"/>
    <circle cx="141.43" cy="65.49" r="3.33" fill="#000000"/>
    <circle cx="136.26" cy="49.64" r="3.33" fill="#000000"/>
    <circle cx="127.84" cy="17.32" r="3.33" fill="#000000"/>
    <circle cx="145.87" cy="72.80" r="3.33" fill="#000000"/>
    <circle cx="151.02" cy="88.65" r="3.33" fill="#000000"/>
    <circle cx="150.36" cy="80.14" r="3.33" fill="#000000"/>
    <circle cx="136.72" cy="32.03" r="3.33" fill="#000000"/>
    <circle cx="155.50" cy="96.00" r="3.33" fill="#000000"/>
    <circle cx="136.10" cy="23.54" r="3.33" fill="#000000"/>
    <circle cx="141.21" cy="39.42" r="3.33" fill="#000000"/>
    <circle cx="146.32" cy="55.30" r="3.33" fill="#000000"/>
    <circle cx="160.05" cy="103.39" r="3.33" fill="#000000"/>
    <circle cx="137.10" cy="14.64" r="3.33" fill="#000000"/>
    <circle cx="145.75" cy="46.83" r="3.33" fill="#000000"/>
    <circle cx="150.85" cy="62.74" r="3.33" fill="#000000"/>
    <circle cx="146.16" cy="29.59" r="3.33" fill="#000000"/>
    <circle cx="155.43" cy="70.22" r="3.33" fill="#000000"/>
    <circle cx="145.68" cy="21.16" r="3.33" fill="#000000"/>
    <circle cx="160.51" cy="86.17" r="3.33" fill="#000000"/>
    <circle cx="150.76" cy="37.13" r="3.33" fill="#000000"/>
    <circle cx="146.49" cy="12.49" r="3.33" fill="#000000"/>
    <circle cx="160.09" cy="77.75" r="3.33" fill="#000000"/>
    <circle cx="155.81" cy="53.12" r="3.33" fill="#000000"/>
    <circle cx="155.41" cy="44.72" r="3.33" fill="#000000"/>
    <circle cx="165.17" cy="93.77" r="3.33" fill="#000000"/>
    <circle cx="160.46" cy="60.76" r="3.33" fill="#000000"/>
    <circle cx="155.73" cy="27.76" r="3.33" fill="#000000"/>
    <circle cx="155.40" cy="19.37" r="3.33" fill="#000000"/>
    <circle cx="155.99" cy="10.86" r="3.33" fill="#000000"/>
    <circle cx="160.43" cy="35.49" r="3.33" fill="#000000"/>
    <circle cx="165.18" cy="68.48" r="3.33" fill="#000000"/>
    <circle cx="169.94" cy="101.47" r="3.33" fill="#000000"/>
    <circle cx="165.43" cy="51.66" r="3.33" fill="#000000"/>
    <circle cx="165.19" cy="43.30" r="3.33" fill="#000000"/>
    <circle cx="170.20" cy="84.67" r="3.33" fill="#000000"/>
    <circle cx="170.00" cy="76.31" r="3.33" fill="#000000"/>
    <circle cx="165.40" cy="26.53" r="3.33" fill="#000000"/>
    <circle cx="165.20" cy="18.18" r="3.33" fill="#000000"/>
    <circle cx="165.56" cy="9.78" r="3.33" fill="#000000"/>
    <circle cx="170.20" cy="59.57" r="3.33" fill="#000000"/>
    <circle cx="170.19" cy="34.50" r="3.33" fill="#000000"/>
    <circle cx="175.04" cy="92.64" r="3.33" fill="#000000"/>
    <circle cx="175.05" cy="67.61" r="3.33" fill="#000000"/>
    <circle cx="175.13" cy="50.93" r="3.33" fill="#000000"/>
    <circle cx="175.06" cy="42.59" r="3.33" fill="#000000"/>
    <circle cx="175.13" cy="25.91" r="3.33" fill="#000000"/>
    <circle cx="175.06" cy="17.58" r="3.33" fill="#000000"/>
    <circle cx="175.18" cy="9.23" r="3.33" fill="#000000"/>
    <circle cx="180.00" cy="34.17" r="3.33" fill="#000000"/>
    <circle cx="180.00" cy="59.17" r="3.33" fill="#000000"/>
    <circle cx="180.00" cy="75.83" r="3.33" fill="#000000"/>
    <circle cx="180.00" cy="84.17" r="3.33" fill="#000000"/>
    <circle cx="180.00" cy="100.83" r="3.33" fill="#000000"/>
    <circle cx="184.82" cy="9.23" r="3.33" fill="#000000"/>
    <circle cx="184.94" cy="17.58" r="3.33" fill="#000000"/>
    <circle cx="184.87" cy="25.91" r="3.33" fill="#000000"/>
    <circle cx="184.94" cy="42.59" r="3.33" fill="#000000"/>
    <circle cx="184.87" cy="50.93" r="3.33" fill="#000000"/>
    <circle cx="184.95" cy="67.61" r="3.33" fill="#000000"/>
    <circle cx="184.96" cy="92.64" r="3.33" fill="#000000"/>
    <circle cx="189.81" cy="34.50" r="3.33" fill="#000000"/>
    <circle cx="189.80" cy="59.57" r="3.33" fill="#000000"/>
    <circle cx="194.44" cy="9.78" r="3.33" fill="#000000"/>
    <circle cx="194.80" cy="18.18" r="3.33" fill="#000000"/>
    <circle cx="194.60" cy="26.53" r="3.33" fill="#000000"/>
    <circle cx="190.00" cy="76.31" r="3.33" fill="#000000"/>
    <circle cx="189.80" cy="84.67" r="3.33" fill="#000000"/>
    <circle cx="194.81" cy="43.30" r="3.33" fill="#000000"/>
    <circle cx="194.57" cy="51.66" r="3.33" fill="#000000"/>
    <circle cx="190.06" cy="101.47" r="3.33" fill="#000000"/>
    <circle cx="194.82" cy="68.48" r="3.33" fill="#000000"/>
    <circle cx="199.57" cy="35.49" r="3.33" fill="#000000"/>
    <circle cx="204.01" cy="10.86" r="3.33" fill="#000000"/>
    <circle cx="204.60" cy="19.37" r="3.33" fill="#000000"/>
    <circle cx="204.27" cy="27.76" r="3.33" fill="#000000"/>
    <circle cx="199.54" cy="60.76" r="3.33" fill="#000000"/>
    <circle cx="194.83" cy="93.77" r="3.33" fill="#000000"/>
    <circle cx="204.59" cy="44.72" r="3.33" fill="#000000"/>
    <circle cx="204.19" cy="53.12" r="3.33" fill="#000000"/>
    <circle cx="199.91" cy="77.75" r="3.33" fill="#000000"/>
    <circle cx="213.51" cy="12.49" r="3.33" fill="#000000"/>
    <circle cx="209.24" cy="37.13" r="3.33" fill="#000000"/>
    <circle cx="199.49" cy="86.17" r="3.33" fill="#000000"/>
    <circle cx="214.32" cy="21.16" r="3.33" fill="#000000"/>
    <circle cx="204.57" cy="70.22" r="3.33" fill="#000000"/>
    <circle cx="213.84" cy="29.59" r="3.33" fill="#000000"/>
    <circle cx="209.15" cy="62.74" r="3.33" fill="#000000"/>
    <circle cx="214.25" cy="46.83" r="3.33" fill="#000000"/>
    <circle cx="222.90" cy="14.64" r="3.33" fill="#000000"/>
    <circle cx="199.95" cy="103.39" r="3.33" fill="#000000"/>
    <circle cx="213.68" cy="55.30" r="3.33" fill="#000000"/>
    <circle cx="218.79" cy="39.42" r="3.33" fill="#000000"/>
    <circle cx="223.90" cy="23.54" r="3.33" fill="#000000"/>
    <circle cx="204.50" cy="96.00" r="3.33" fill="#000000"/>
    <circle cx="223.28" cy="32.03" r="3.33" fill="#000000"/>
    <circle cx="209.64" cy="80.14" r="3.33" fill="#000000"/>
    <circle cx="208.98" cy="88.65" r="3.33" fill="#000000"/>
    <circle cx="214.13" cy="72.80" r="3.33" fill="#000000"/>
    <circle cx="232.16" cy="17.32" r="3.33" fill="#000000"/>
    <circle cx="223.74" cy="49.64" r="3.33" fill="#000000"/>
    <circle cx="218.57" cy="65.49" r="3.33" fill="#000000"/>
    <circle cx="233.33" cy="26.50" r="3.33" fill="#000000"/>
    <circle cx="228.15" cy="42.35" r="3.33" fill="#000000"/>
    <circle cx="222.97" cy="58.19" r="3.33" fill="#000000"/>
    <circle cx="232.54" cy="35.06" r="3.33" fill="#000000"/>
    <circle cx="241.24" cy="20.52" r="3.33" fill="#000000"/>
    <circle cx="209.52" cy="106.54" r="3.33" fill="#000000"/>
    <circle cx="219.09" cy="83.45" r="3.33" fill="#000000"/>
    <circle cx="242.56" cy="30.02" r="3.33" fill="#000000"/>
    <circle cx="232.99" cy="53.12" r="3.33" fill="#000000"/>
    <circle cx="223.43" cy="76.22" r="3.33" fill="#000000"/>
    <circle cx="213.86" cy="99.32" r="3.33" fill="#000000"/>
    <circle cx="237.30" cy="45.90" r="3.33" fill="#000000"/>
    <circle cx="227.73" cy="68.99" r="3.33" fill="#000000"/>
    <circle cx="218.17" cy="92.09" r="3.33" fill="#000000"/>
    <circle cx="241.59" cy="38.67" r="3.33" fill="#000000"/>
    <circle cx="232.02" cy="61.77" r="3.33" fill="#000000"/>
    <circle cx="250.14" cy="24.23" r="3.33" fill="#000000"/>
    <circle cx="251.55" cy="34.10" r="3.33" fill="#000000"/>
    <circle cx="241.97" cy="57.26" r="3.33" fill="#000000"/>
    <circle cx="246.19" cy="50.05" r="3.33" fill="#000000"/>
    <circle cx="250.40" cy="42.85" r="3.33" fill="#000000"/>
    <circle cx="258.81" cy="28.43" r="3.33" fill="#000000"/>
    <circle cx="228.18" cy="87.65" r="3.33" fill="#000000"/>
    <circle cx="232.39" cy="80.44" r="3.33" fill="#000000"/>
    <circle cx="236.58" cy="73.23" r="3.33" fill="#000000"/>
    <circle cx="240.78" cy="66.02" r="3.33" fill="#000000"/>
    <circle cx="218.62" cy="110.89" r="3.33" fill="#000000"/>
    <circle cx="222.78" cy="103.67" r="3.33" fill="#000000"/>
    <circle cx="226.95" cy="96.46" r="3.33" fill="#000000"/>
    <circle cx="260.29" cy="38.72" r="3.33" fill="#000000"/>
    <circle cx="267.23" cy="33.12" r="3.33" fill="#000000"/>
    <circle cx="258.93" cy="47.57" r="3.33" fill="#000000"/>
    <circle cx="254.78" cy="54.80" r="3.33" fill="#000000"/>
    <circle cx="250.63" cy="62.03" r="3.33" fill="#000000"/>
    <circle cx="249.18" cy="70.92" r="3.33" fill="#000000"/>
    <circle cx="245.06" cy="78.18" r="3.33" fill="#000000"/>
    <circle cx="240.94" cy="85.43" r="3.33" fill="#000000"/>
    <circle cx="236.83" cy="92.70" r="3.33" fill="#000000"/>
    <circle cx="268.72" cy="43.86" r="3.33" fill="#000000"/>
    <circle cx="275.37" cy="38.27" r="3.33" fill="#000000"/>
    <circle cx="267.14" cy="52.82" r="3.33" fill="#000000"/>
    <circle cx="263.03" cy="60.11" r="3.33" fill="#000000"/>
    <circle cx="258.93" cy="67.41" r="3.33" fill="#000000"/>
    <circle cx="235.25" cy="101.69" r="3.33" fill="#000000"/>
    <circle cx="231.16" cy="109.01" r="3.33" fill="#000000"/>
    <circle cx="227.08" cy="116.36" r="3.33" fill="#000000"/>
    <circle cx="276.83" cy="49.50" r="3.33" fill="#000000"/>
    <circle cx="257.20" cy="76.44" r="3.33" fill="#000000"/>
    <circle cx="283.21" cy="43.87" r="3.33" fill="#000000"/>
    <circle cx="253.10" cy="83.79" r="3.33" fill="#000000"/>
    <circle cx="249.02" cy="91.16" r="3.33" fill="#000000"/>
    <circle cx="275.00" cy="58.58" r="3.33" fill="#000000"/>
    <circle cx="270.91" cy="65.97" r="3.33" fill="#000000"/>
    <circle cx="244.95" cy="98.56" r="3.33" fill="#000000"/>
    <circle cx="266.82" cy="73.38" r="3.33" fill="#000000"/>
    <circle cx="284.58" cy="55.62" r="3.33" fill="#000000"/>
    <circle cx="290.72" cy="49.91" r="3.33" fill="#000000"/>
    <circle cx="264.78" cy="82.55" r="3.33" fill="#000000"/>
    <circle cx="242.96" cy="107.75" r="3.33" fill="#000000"/>
    <circle cx="282.48" cy="64.83" r="3.33" fill="#000000"/>
    <circle cx="260.67" cy="90.04" r="3.33" fill="#000000"/>
    <circle cx="238.87" cy="115.26" r="3.33" fill="#000000"/>
    <circle cx="278.37" cy="72.34" r="3.33" fill="#000000"/>
    <circle cx="256.57" cy="97.58" r="3.33" fill="#000000"/>
    <circle cx="274.26" cy="79.89" r="3.33" fill="#000000"/>
    <circle cx="291.94" cy="62.21" r="3.33" fill="#000000"/>
    <circle cx="297.88" cy="56.36" r="3.33" fill="#000000"/>
    <circle cx="234.79" cy="122.86" r="3.33" fill="#000000"/>
    <circle cx="252.47" cy="105.17" r="3.33" fill="#000000"/>
    <circle cx="289.56" cy="71.53" r="3.33" fill="#000000"/>
    <circle cx="271.88" cy="89.21" r="3.33" fill="#000000"/>
    <circle cx="285.39" cy="79.20" r="3.33" fill="#000000"/>
    <circle cx="267.70" cy="96.88" r="3.33" fill="#000000"/>
    <circle cx="304.66" cy="63.20" r="3.33" fill="#000000"/>
    <circle cx="250.02" cy="114.57" r="3.33" fill="#000000"/>
    <circle cx="298.89" cy="69.23" r="3.33" fill="#000000"/>
    <circle cx="281.21" cy="86.92" r="3.33" fill="#000000"/>
    <circle cx="263.52" cy="104.63" r="3.33" fill="#000000"/>
    <circle cx="245.82" cy="122.35" r="3.33" fill="#000000"/>
    <circle cx="296.19" cy="78.67" r="3.33" fill="#000000"/>
    <circle cx="259.32" cy="112.48" r="3.33" fill="#000000"/>
    <circle cx="278.45" cy="96.38" r="3.33" fill="#000000"/>
    <circle cx="311.05" cy="70.41" r="3.33" fill="#000000"/>
    <circle cx="291.93" cy="86.51" r="3.33" fill="#000000"/>
    <circle cx="305.40" cy="76.66" r="3.33" fill="#000000"/>
    <circle cx="241.60" cy="130.28" r="3.33" fill="#000000"/>
    <circle cx="274.16" cy="104.27" r="3.33" fill="#000000"/>
    <circle cx="287.64" cy="94.44" r="3.33" fill="#000000"/>
    <circle cx="302.36" cy="86.22" r="3.33" fill="#000000"/>
    <circle cx="256.34" cy="122.07" r="3.33" fill="#000000"/>
    <circle cx="269.82" cy="112.27" r="3.33" fill="#000000"/>
    <circle cx="317.02" cy="77.98" r="3.33" fill="#000000"/>
    <circle cx="284.47" cy="104.03" r="3.33" fill="#000000"/>
    <circle cx="297.96" cy="94.25" r="3.33" fill="#000000"/>
    <circle cx="311.45" cy="84.47" r="3.33" fill="#000000"/>
    <circle cx="265.44" cy="120.41" r="3.33" fill="#000000"/>
    <circle cx="251.93" cy="130.18" r="3.33" fill="#000000"/>
    <circle cx="293.51" cy="102.40" r="3.33" fill="#000000"/>
    <circle cx="279.99" cy="112.16" r="3.33" fill="#000000"/>
    <circle cx="308.04" cy="94.14" r="3.33" fill="#000000"/>
    <circle cx="322.56" cy="85.86" r="3.33" fill="#000000"/>
    <circle cx="317.01" cy="92.63" r="3.33" fill="#000000"/>
    <circle cx="303.46" cy="102.38" r="3.33" fill="#000000"/>
    <circle cx="275.43" cy="120.43" r="3.33" fill="#000000"/>
    <circle cx="289.89" cy="112.12" r="3.33" fill="#000000"/>
    <circle cx="247.42" cy="138.51" r="3.33" fill="#000000"/>
    <circle cx="261.86" cy="130.17" r="3.33" fill="#000000"/>
    <circle cx="298.79" cy="110.75" r="3.33" fill="#000000"/>
    <circle cx="313.21" cy="102.40" r="3.33" fill="#000000"/>
    <circle cx="327.64" cy="94.05" r="3.33" fill="#000000"/>
    <circle cx="285.17" cy="120.49" r="3.33" fill="#000000"/>
    <circle cx="270.76" cy="128.89" r="3.33" fill="#000000"/>
    <circle cx="322.07" cy="101.11" r="3.33" fill="#000000"/>
    <circle cx="308.40" cy="110.86" r="3.33" fill="#000000"/>
    <circle cx="257.11" cy="138.65" r="3.33" fill="#000000"/>
    <circle cx="294.69" cy="120.58" r="3.33" fill="#000000"/>
    <circle cx="332.25" cy="102.51" r="3.33" fill="#000000"/>
    <circle cx="280.30" cy="129.05" r="3.33" fill="#000000"/>
    <circle cx="317.85" cy="110.97" r="3.33" fill="#000000"/>
    <circle cx="303.46" cy="119.47" r="3.33" fill="#000000"/>
    <circle cx="326.60" cy="109.89" r="3.33" fill="#000000"/>
    <circle cx="266.53" cy="138.80" r="3.33" fill="#000000"/>
    <circle cx="289.65" cy="129.22" r="3.33" fill="#000000"/>
    <circle cx="312.76" cy="119.65" r="3.33" fill="#000000"/>
    <circle cx="252.15" cy="147.41" r="3.33" fill="#000000"/>
    <circle cx="275.25" cy="137.84" r="3.33" fill="#000000"/>
    <circle cx="336.37" cy="111.22" r="3.33" fill="#000000"/>
    <circle cx="298.84" cy="129.39" r="3.33" fill="#000000"/>
    <circle cx="321.94" cy="119.82" r="3.33" fill="#000000"/>
    <circle cx="330.59" cy="118.93" r="3.33" fill="#000000"/>
    <circle cx="307.49" cy="128.50" r="3.33" fill="#000000"/>
    <circle cx="284.40" cy="138.07" r="3.33" fill="#000000"/>
    <circle cx="261.30" cy="147.65" r="3.33" fill="#000000"/>
    <circle cx="316.52" cy="128.71" r="3.33" fill="#000000"/>
    <circle cx="340.00" cy="120.14" r="3.33" fill="#000000"/>
    <circle cx="293.40" cy="138.29" r="3.33" fill="#000000"/>
    <circle cx="270.28" cy="147.86" r="3.33" fill="#000000"/>
    <circle cx="325.46" cy="128.91" r="3.33" fill="#000000"/>
    <circle cx="302.31" cy="138.48" r="3.33" fill="#000000"/>
    <circle cx="334.02" cy="128.19" r="3.33" fill="#000000"/>
    <circle cx="278.86" cy="147.18" r="3.33" fill="#000000"/>
    <circle cx="310.86" cy="137.80" r="3.33" fill="#000000"/>
    <circle cx="343.12" cy="129.26" r="3.33" fill="#000000"/>
    <circle cx="255.70" cy="156.84" r="3.33" fill="#000000"/>
    <circle cx="287.68" cy="147.42" r="3.33" fill="#000000"/>
    <circle cx="319.66" cy="138.01" r="3.33" fill="#000000"/>
    <circle cx="328.39" cy="138.20" r="3.33" fill="#000000"/>
    <circle cx="296.42" cy="147.62" r="3.33" fill="#000000"/>
    <circle cx="264.44" cy="157.07" r="3.33" fill="#000000"/>
    <circle cx="336.88" cy="137.64" r="3.33" fill="#000000"/>
    <circle cx="305.09" cy="147.81" r="3.33" fill="#000000"/>
    <circle cx="345.73" cy="138.54" r="3.33" fill="#000000"/>
    <circle cx="313.56" cy="147.31" r="3.33" fill="#000000"/>
    <circle cx="273.10" cy="157.26" r="3.33" fill="#000000"/>
    <circle cx="322.17" cy="147.50" r="3.33" fill="#000000"/>
    <circle cx="281.56" cy="156.83" r="3.33" fill="#000000"/>
    <circle cx="330.74" cy="147.66" r="3.33" fill="#000000"/>
    <circle cx="290.13" cy="157.02" r="3.33" fill="#000000"/>
    <circle cx="339.17" cy="147.25" r="3.33" fill="#000000"/>
    <circle cx="298.66" cy="157.18" r="3.33" fill="#000000"/>
    <circle cx="347.80" cy="147.95" r="3.33" fill="#000000"/>
    <circle cx="307.16" cy="157.32" r="3.33" fill="#000000"/>
    <circle cx="258.03" cy="166.65" r="3.33" fill="#000000"/>
    <circle cx="315.56" cy="156.99" r="3.33" fill="#000000"/>
    <circle cx="324.03" cy="157.13" r="3.33" fill="#000000"/>
    <circle cx="266.50" cy="166.78" r="3.33" fill="#000000"/>
    <circle cx="332.48" cy="157.25" r="3.33" fill="#000000"/>
    <circle cx="340.86" cy="156.99" r="3.33" fill="#000000"/>
    <circle cx="274.93" cy="166.90" r="3.33" fill="#000000"/>
    <circle cx="349.34" cy="157.46" r="3.33" fill="#000000"/>
    <circle cx="283.31" cy="166.69" r="3.33" fill="#000000"/>
    <circle cx="291.72" cy="166.79" r="3.33" fill="#000000"/>
    <circle cx="300.12" cy="166.88" r="3.33" fill="#000000"/>
    <circle cx="308.51" cy="166.95" r="3.33" fill="#000000"/>
    <circle cx="316.86" cy="166.80" r="3.33" fill="#000000"/>
    <circle cx="325.24" cy="166.87" r="3.33" fill="#000000"/>
    <circle cx="333.61" cy="166.93" r="3.33" fill="#000000"/>
    <circle cx="341.96" cy="166.80" r="3.33" fill="#000000"/>
    <circle cx="350.34" cy="167.04" r="3.33" fill="#000000"/>
    <circle cx="259.10" cy="176.67" r="3.33" fill="#000000"/>
    <circle cx="267.44" cy="176.67" r="3.33" fill="#000000"/>
    <circle cx="275.78" cy="176.67" r="3.33" fill="#000000"/>
    <circle cx="284.11" cy="176.67" r="3.33" fill="#000000"/>
    <circle cx="292.45" cy="176.67" r="3.33" fill="#000000"/>
    <circle cx="300.79" cy="176.67" r="3.33" fill="#000000"/>
    <circle cx="309.12" cy="176.67" r="3.33" fill="#000000"/>
    <circle cx="317.46" cy="176.67" r="3.33" fill="#000000"/>
    <circle cx="325.80" cy="176.67" r="3.33" fill="#000000"/>
    <circle cx="334.13" cy="176.67" r="3.33" fill="#000000"/>
    <circle cx="342.47" cy="176.67" r="3.33" fill="#000000"/>
    <circle cx="350.80" cy="176.67" r="3.33" fill="#000000"/>
  </g>
</g>
</svg>