<?xml version="1.0" encoding="UTF-8" standalone="no"?>
<svg xmlns:svg="http://www.w3.org/2000/svg"
xmlns="http://www.w3.org/2000/svg" version="1.1"
width="360" height="185">
<!-- Created with the Wikimedia parliament diagram creator (http://parliamentdiagram.toolforge.org/parliamentinputform.html) -->
<g>
<text x="175" y="175" id="seat_number" style="font-size:36px;font-weight:bold;text-align:center;text-anchor:middle;font-family:sans-serif">538</text>
  <rect width="360" height="185" fill="#dddddd00" id="hover-rectangle" />
  <g style="fill:#000000; stroke:none" id="Results" onmouseover="hover(event)">
    <circle cx="9.20" cy="176.67" r="3.33" fill="#000000"/>
    <circle cx="17.53" cy="176.67" r="3.33" fill="#000000"/>
    <circle cx="25.87" cy="176.67" r="3.33" fill="#000000"/>
    <circle cx="34.20" cy="176.67" r="3.33" fill="#000000"/>
    <circle cx="42.54" cy="176.67" r="3.33" fill="#000000"/>
    <circle cx="50.88" cy="176.67" r="3.33" fill="#000000"/>
    <circle cx="59.21" cy="176.67" r="3.33" fill="#000000"/>
    <circle cx="67.55" cy="176.67" r="3.33" fill="#000000"/>
    <circle cx="75.89" cy="176.67" r="3.33" fill="#000000"/>
    <circle cx="84.22" cy="176.67" r="3.33" fill="#000000"/>
    <circle cx="92.56" cy="176.67" r="3.33" fill="#000000"/>
    <circle cx="100.90" cy="176.67" r="3.33" fill="#000000"/>
    <circle cx="9.56" cy="168.39" r="3.33" fill="#000000"/>
    <circle cx="17.96" cy="167.84" r="3.33" fill="#000000"/>
    <circle cx="26.31" cy="167.83" r="3.33" fill="#000000"/>
    <circle cx="34.68" cy="167.83" r="3.33" fill="#000000"/>
    <circle cx="43.04" cy="167.82" r="3.33" fill="#000000"/>
    <circle cx="51.41" cy="167.82" r="3.33" fill="#000000"/>
    <circle cx="59.78" cy="167.81" r="3.33" fill="#000000"/>
    <circle cx="68.16" cy="167.80" r="3.33" fill="#000000"/>
    <circle cx="10.32" cy="160.15" r="3.33" fill="#000000"/>
    <circle cx="76.55" cy="167.79" r="3.33" fill="#000000"/>
    <circle cx="84.95" cy="167.78" r="3.33" fill="#000000"/>
    <circle cx="18.86" cy="159.05" r="3.33" fill="#000000"/>
    <circle cx="27.26" cy="159.04" r="3.33" fill="#000000"/>
    <circle cx="93.36" cy="167.77" r="3.33" fill="#000000"/>
    <circle cx="35.68" cy="159.03" r="3.33" fill="#000000"/>
    <circle cx="44.11" cy="159.03" r="3.33" fill="#000000"/>
    <circle cx="101.79" cy="167.75" r="3.33" fill="#000000"/>
    <circle cx="52.55" cy="159.02" r="3.33" fill="#000000"/>
    <circle cx="11.49" cy="151.95" r="3.33" fill="#000000"/>
    <circle cx="61.00" cy="159.01" r="3.33" fill="#000000"/>
    <circle cx="20.23" cy="150.32" r="3.33" fill="#000000"/>
    <circle cx="69.48" cy="159.01" r="3.33" fill="#000000"/>
    <circle cx="28.72" cy="150.32" r="3.33" fill="#000000"/>
    <circle cx="77.97" cy="159.00" r="3.33" fill="#000000"/>
    <circle cx="37.22" cy="150.32" r="3.33" fill="#000000"/>
    <circle cx="13.04" cy="143.82" r="3.33" fill="#000000"/>
    <circle cx="45.74" cy="150.32" r="3.33" fill="#000000"/>
    <circle cx="86.50" cy="159.00" r="3.33" fill="#000000"/>
    <circle cx="54.29" cy="150.33" r="3.33" fill="#000000"/>
    <circle cx="22.08" cy="141.67" r="3.33" fill="#000000"/>
    <circle cx="95.06" cy="158.99" r="3.33" fill="#000000"/>
    <circle cx="62.86" cy="150.33" r="3.33" fill="#000000"/>
    <circle cx="30.67" cy="141.69" r="3.33" fill="#000000"/>
    <circle cx="14.99" cy="135.77" r="3.33" fill="#000000"/>
    <circle cx="39.28" cy="141.71" r="3.33" fill="#000000"/>
    <circle cx="71.48" cy="150.35" r="3.33" fill="#000000"/>
    <circle cx="103.67" cy="158.99" r="3.33" fill="#000000"/>
    <circle cx="47.93" cy="141.74" r="3.33" fill="#000000"/>
    <circle cx="80.14" cy="150.37" r="3.33" fill="#000000"/>
    <circle cx="24.40" cy="133.14" r="3.33" fill="#000000"/>
    <circle cx="56.62" cy="141.77" r="3.33" fill="#000000"/>
    <circle cx="33.11" cy="133.19" r="3.33" fill="#000000"/>
    <circle cx="17.33" cy="127.82" r="3.33" fill="#000000"/>
    <circle cx="88.85" cy="150.40" r="3.33" fill="#000000"/>
    <circle cx="65.36" cy="141.81" r="3.33" fill="#000000"/>
    <circle cx="41.87" cy="133.24" r="3.33" fill="#000000"/>
    <circle cx="97.64" cy="150.44" r="3.33" fill="#000000"/>
    <circle cx="74.16" cy="141.87" r="3.33" fill="#000000"/>
    <circle cx="50.67" cy="133.31" r="3.33" fill="#000000"/>
    <circle cx="27.18" cy="124.75" r="3.33" fill="#000000"/>
    <circle cx="20.05" cy="120.00" r="3.33" fill="#000000"/>
    <circle cx="36.04" cy="124.84" r="3.33" fill="#000000"/>
    <circle cx="59.53" cy="133.40" r="3.33" fill="#000000"/>
    <circle cx="83.03" cy="141.95" r="3.33" fill="#000000"/>
    <circle cx="106.53" cy="150.50" r="3.33" fill="#000000"/>
    <circle cx="44.96" cy="124.95" r="3.33" fill="#000000"/>
    <circle cx="68.47" cy="133.50" r="3.33" fill="#000000"/>
    <circle cx="30.41" cy="116.53" r="3.33" fill="#000000"/>
    <circle cx="92.00" cy="142.05" r="3.33" fill="#000000"/>
    <circle cx="23.14" cy="112.32" r="3.33" fill="#000000"/>
    <circle cx="53.94" cy="125.08" r="3.33" fill="#000000"/>
    <circle cx="39.44" cy="116.68" r="3.33" fill="#000000"/>
    <circle cx="77.50" cy="133.63" r="3.33" fill="#000000"/>
    <circle cx="63.02" cy="125.24" r="3.33" fill="#000000"/>
    <circle cx="101.09" cy="142.19" r="3.33" fill="#000000"/>
    <circle cx="48.54" cy="116.86" r="3.33" fill="#000000"/>
    <circle cx="34.08" cy="108.49" r="3.33" fill="#000000"/>
    <circle cx="26.61" cy="104.80" r="3.33" fill="#000000"/>
    <circle cx="86.64" cy="133.81" r="3.33" fill="#000000"/>
    <circle cx="72.19" cy="125.44" r="3.33" fill="#000000"/>
    <circle cx="57.74" cy="117.08" r="3.33" fill="#000000"/>
    <circle cx="43.30" cy="108.72" r="3.33" fill="#000000"/>
    <circle cx="110.34" cy="142.39" r="3.33" fill="#000000"/>
    <circle cx="95.91" cy="134.04" r="3.33" fill="#000000"/>
    <circle cx="81.48" cy="125.69" r="3.33" fill="#000000"/>
    <circle cx="30.43" cy="97.46" r="3.33" fill="#000000"/>
    <circle cx="67.05" cy="117.34" r="3.33" fill="#000000"/>
    <circle cx="52.62" cy="109.00" r="3.33" fill="#000000"/>
    <circle cx="38.18" cy="100.66" r="3.33" fill="#000000"/>
    <circle cx="47.61" cy="101.00" r="3.33" fill="#000000"/>
    <circle cx="62.05" cy="109.33" r="3.33" fill="#000000"/>
    <circle cx="76.48" cy="117.67" r="3.33" fill="#000000"/>
    <circle cx="90.92" cy="126.00" r="3.33" fill="#000000"/>
    <circle cx="105.36" cy="134.34" r="3.33" fill="#000000"/>
    <circle cx="34.61" cy="90.31" r="3.33" fill="#000000"/>
    <circle cx="42.71" cy="93.07" r="3.33" fill="#000000"/>
    <circle cx="57.16" cy="101.40" r="3.33" fill="#000000"/>
    <circle cx="71.61" cy="109.74" r="3.33" fill="#000000"/>
    <circle cx="86.08" cy="118.08" r="3.33" fill="#000000"/>
    <circle cx="100.55" cy="126.42" r="3.33" fill="#000000"/>
    <circle cx="52.36" cy="93.54" r="3.33" fill="#000000"/>
    <circle cx="39.13" cy="83.37" r="3.33" fill="#000000"/>
    <circle cx="66.84" cy="101.89" r="3.33" fill="#000000"/>
    <circle cx="115.03" cy="134.76" r="3.33" fill="#000000"/>
    <circle cx="81.34" cy="110.24" r="3.33" fill="#000000"/>
    <circle cx="47.64" cy="85.73" r="3.33" fill="#000000"/>
    <circle cx="62.15" cy="94.10" r="3.33" fill="#000000"/>
    <circle cx="95.86" cy="118.60" r="3.33" fill="#000000"/>
    <circle cx="76.69" cy="102.47" r="3.33" fill="#000000"/>
    <circle cx="43.97" cy="76.65" r="3.33" fill="#000000"/>
    <circle cx="110.40" cy="126.96" r="3.33" fill="#000000"/>
    <circle cx="57.53" cy="86.36" r="3.33" fill="#000000"/>
    <circle cx="91.26" cy="110.86" r="3.33" fill="#000000"/>
    <circle cx="72.11" cy="94.76" r="3.33" fill="#000000"/>
    <circle cx="52.96" cy="78.67" r="3.33" fill="#000000"/>
    <circle cx="105.87" cy="119.26" r="3.33" fill="#000000"/>
    <circle cx="86.73" cy="103.18" r="3.33" fill="#000000"/>
    <circle cx="67.58" cy="87.10" r="3.33" fill="#000000"/>
    <circle cx="49.14" cy="70.18" r="3.33" fill="#000000"/>
    <circle cx="63.10" cy="79.49" r="3.33" fill="#000000"/>
    <circle cx="82.25" cy="95.56" r="3.33" fill="#000000"/>
    <circle cx="101.41" cy="111.64" r="3.33" fill="#000000"/>
    <circle cx="120.56" cy="127.71" r="3.33" fill="#000000"/>
    <circle cx="58.66" cy="71.92" r="3.33" fill="#000000"/>
    <circle cx="77.82" cy="87.99" r="3.33" fill="#000000"/>
    <circle cx="96.99" cy="104.06" r="3.33" fill="#000000"/>
    <circle cx="54.62" cy="63.97" r="3.33" fill="#000000"/>
    <circle cx="73.42" cy="80.46" r="3.33" fill="#000000"/>
    <circle cx="116.18" cy="120.14" r="3.33" fill="#000000"/>
    <circle cx="92.62" cy="96.54" r="3.33" fill="#000000"/>
    <circle cx="69.06" cy="72.95" r="3.33" fill="#000000"/>
    <circle cx="111.84" cy="112.64" r="3.33" fill="#000000"/>
    <circle cx="88.28" cy="89.06" r="3.33" fill="#000000"/>
    <circle cx="64.71" cy="65.48" r="3.33" fill="#000000"/>
    <circle cx="60.39" cy="58.03" r="3.33" fill="#000000"/>
    <circle cx="83.96" cy="81.60" r="3.33" fill="#000000"/>
    <circle cx="107.53" cy="105.17" r="3.33" fill="#000000"/>
    <circle cx="79.66" cy="74.17" r="3.33" fill="#000000"/>
    <circle cx="103.25" cy="97.75" r="3.33" fill="#000000"/>
    <circle cx="75.38" cy="66.77" r="3.33" fill="#000000"/>
    <circle cx="126.85" cy="121.33" r="3.33" fill="#000000"/>
    <circle cx="98.98" cy="90.35" r="3.33" fill="#000000"/>
    <circle cx="71.11" cy="59.38" r="3.33" fill="#000000"/>
    <circle cx="66.44" cy="52.38" r="3.33" fill="#000000"/>
    <circle cx="94.73" cy="82.98" r="3.33" fill="#000000"/>
    <circle cx="122.62" cy="113.94" r="3.33" fill="#000000"/>
    <circle cx="90.49" cy="75.62" r="3.33" fill="#000000"/>
    <circle cx="118.40" cy="106.59" r="3.33" fill="#000000"/>
    <circle cx="86.26" cy="68.28" r="3.33" fill="#000000"/>
    <circle cx="82.04" cy="60.95" r="3.33" fill="#000000"/>
    <circle cx="114.18" cy="99.26" r="3.33" fill="#000000"/>
    <circle cx="77.83" cy="53.64" r="3.33" fill="#000000"/>
    <circle cx="72.76" cy="47.02" r="3.33" fill="#000000"/>
    <circle cx="109.98" cy="91.95" r="3.33" fill="#000000"/>
    <circle cx="105.78" cy="84.64" r="3.33" fill="#000000"/>
    <circle cx="101.59" cy="77.35" r="3.33" fill="#000000"/>
    <circle cx="97.40" cy="70.07" r="3.33" fill="#000000"/>
    <circle cx="93.21" cy="62.80" r="3.33" fill="#000000"/>
    <circle cx="89.03" cy="55.53" r="3.33" fill="#000000"/>
    <circle cx="79.33" cy="41.98" r="3.33" fill="#000000"/>
    <circle cx="84.85" cy="48.27" r="3.33" fill="#000000"/>
    <circle cx="133.82" cy="115.70" r="3.33" fill="#000000"/>
    <circle cx="129.65" cy="108.44" r="3.33" fill="#000000"/>
    <circle cx="125.49" cy="101.18" r="3.33" fill="#000000"/>
    <circle cx="121.32" cy="93.93" r="3.33" fill="#000000"/>
    <circle cx="117.15" cy="86.69" r="3.33" fill="#000000"/>
    <circle cx="112.98" cy="79.45" r="3.33" fill="#000000"/>
    <circle cx="108.82" cy="72.22" r="3.33" fill="#000000"/>
    <circle cx="86.13" cy="37.27" r="3.33" fill="#000000"/>
    <circle cx="104.65" cy="64.98" r="3.33" fill="#000000"/>
    <circle cx="100.48" cy="57.75" r="3.33" fill="#000000"/>
    <circle cx="96.32" cy="50.52" r="3.33" fill="#000000"/>
    <circle cx="92.15" cy="43.29" r="3.33" fill="#000000"/>
    <circle cx="93.16" cy="32.89" r="3.33" fill="#000000"/>
    <circle cx="99.71" cy="38.72" r="3.33" fill="#000000"/>
    <circle cx="103.88" cy="45.94" r="3.33" fill="#000000"/>
    <circle cx="108.05" cy="53.15" r="3.33" fill="#000000"/>
    <circle cx="112.21" cy="60.37" r="3.33" fill="#000000"/>
    <circle cx="116.38" cy="67.59" r="3.33" fill="#000000"/>
    <circle cx="120.55" cy="74.80" r="3.33" fill="#000000"/>
    <circle cx="124.71" cy="82.02" r="3.33" fill="#000000"/>
    <circle cx="128.88" cy="89.24" r="3.33" fill="#000000"/>
    <circle cx="133.05" cy="96.46" r="3.33" fill="#000000"/>
    <circle cx="137.22" cy="103.67" r="3.33" fill="#000000"/>
    <circle cx="141.38" cy="110.89" r="3.33" fill="#000000"/>
    <circle cx="100.39" cy="28.85" r="3.33" fill="#000000"/>
    <circle cx="107.51" cy="34.56" r="3.33" fill="#000000"/>
    <circle cx="111.69" cy="41.79" r="3.33" fill="#000000"/>
    <circle cx="115.88" cy="49.02" r="3.33" fill="#000000"/>
    <circle cx="120.06" cy="56.25" r="3.33" fill="#000000"/>
    <circle cx="124.24" cy="63.49" r="3.33" fill="#000000"/>
    <circle cx="128.43" cy="70.72" r="3.33" fill="#000000"/>
    <circle cx="107.81" cy="25.17" r="3.33" fill="#000000"/>
    <circle cx="132.62" cy="77.96" r="3.33" fill="#000000"/>
    <circle cx="136.82" cy="85.21" r="3.33" fill="#000000"/>
    <circle cx="141.02" cy="92.45" r="3.33" fill="#000000"/>
    <circle cx="145.22" cy="99.71" r="3.33" fill="#000000"/>
    <circle cx="115.53" cy="30.84" r="3.33" fill="#000000"/>
    <circle cx="119.73" cy="38.10" r="3.33" fill="#000000"/>
    <circle cx="149.44" cy="106.97" r="3.33" fill="#000000"/>
    <circle cx="123.94" cy="45.37" r="3.33" fill="#000000"/>
    <circle cx="115.40" cy="21.85" r="3.33" fill="#000000"/>
    <circle cx="128.15" cy="52.65" r="3.33" fill="#000000"/>
    <circle cx="132.37" cy="59.94" r="3.33" fill="#000000"/>
    <circle cx="136.59" cy="67.23" r="3.33" fill="#000000"/>
    <circle cx="140.83" cy="74.54" r="3.33" fill="#000000"/>
    <circle cx="123.73" cy="27.55" r="3.33" fill="#000000"/>
    <circle cx="127.97" cy="34.88" r="3.33" fill="#000000"/>
    <circle cx="145.07" cy="81.86" r="3.33" fill="#000000"/>
    <circle cx="123.14" cy="18.91" r="3.33" fill="#000000"/>
    <circle cx="132.21" cy="42.22" r="3.33" fill="#000000"/>
    <circle cx="149.32" cy="89.21" r="3.33" fill="#000000"/>
    <circle cx="136.46" cy="49.58" r="3.33" fill="#000000"/>
    <circle cx="140.72" cy="56.95" r="3.33" fill="#000000"/>
    <circle cx="153.60" cy="96.58" r="3.33" fill="#000000"/>
    <circle cx="132.11" cy="24.72" r="3.33" fill="#000000"/>
    <circle cx="144.99" cy="64.35" r="3.33" fill="#000000"/>
    <circle cx="131.01" cy="16.34" r="3.33" fill="#000000"/>
    <circle cx="136.38" cy="32.13" r="3.33" fill="#000000"/>
    <circle cx="157.89" cy="103.98" r="3.33" fill="#000000"/>
    <circle cx="149.28" cy="71.78" r="3.33" fill="#000000"/>
    <circle cx="140.66" cy="39.57" r="3.33" fill="#000000"/>
    <circle cx="144.95" cy="47.04" r="3.33" fill="#000000"/>
    <circle cx="153.58" cy="79.24" r="3.33" fill="#000000"/>
    <circle cx="140.62" cy="22.34" r="3.33" fill="#000000"/>
    <circle cx="139.00" cy="14.16" r="3.33" fill="#000000"/>
    <circle cx="149.26" cy="54.55" r="3.33" fill="#000000"/>
    <circle cx="157.90" cy="86.75" r="3.33" fill="#000000"/>
    <circle cx="144.93" cy="29.88" r="3.33" fill="#000000"/>
    <circle cx="153.58" cy="62.09" r="3.33" fill="#000000"/>
    <circle cx="149.25" cy="37.45" r="3.33" fill="#000000"/>
    <circle cx="162.24" cy="94.32" r="3.33" fill="#000000"/>
    <circle cx="157.92" cy="69.69" r="3.33" fill="#000000"/>
    <circle cx="147.08" cy="12.37" r="3.33" fill="#000000"/>
    <circle cx="153.58" cy="45.06" r="3.33" fill="#000000"/>
    <circle cx="149.25" cy="20.44" r="3.33" fill="#000000"/>
    <circle cx="153.59" cy="28.11" r="3.33" fill="#000000"/>
    <circle cx="157.94" cy="52.73" r="3.33" fill="#000000"/>
    <circle cx="162.28" cy="77.35" r="3.33" fill="#000000"/>
    <circle cx="166.62" cy="101.97" r="3.33" fill="#000000"/>
    <circle cx="157.95" cy="35.84" r="3.33" fill="#000000"/>
    <circle cx="162.30" cy="60.47" r="3.33" fill="#000000"/>
    <circle cx="155.24" cy="10.97" r="3.33" fill="#000000"/>
    <circle cx="166.66" cy="85.10" r="3.33" fill="#000000"/>
    <circle cx="157.97" cy="19.00" r="3.33" fill="#000000"/>
    <circle cx="162.33" cy="43.64" r="3.33" fill="#000000"/>
    <circle cx="166.69" cy="68.29" r="3.33" fill="#000000"/>
    <circle cx="162.35" cy="26.85" r="3.33" fill="#000000"/>
    <circle cx="166.72" cy="51.52" r="3.33" fill="#000000"/>
    <circle cx="171.07" cy="92.96" r="3.33" fill="#000000"/>
    <circle cx="163.46" cy="9.97" r="3.33" fill="#000000"/>
    <circle cx="166.74" cy="34.77" r="3.33" fill="#000000"/>
    <circle cx="171.11" cy="76.21" r="3.33" fill="#000000"/>
    <circle cx="166.76" cy="18.04" r="3.33" fill="#000000"/>
    <circle cx="171.13" cy="59.49" r="3.33" fill="#000000"/>
    <circle cx="171.15" cy="42.79" r="3.33" fill="#000000"/>
    <circle cx="171.16" cy="26.09" r="3.33" fill="#000000"/>
    <circle cx="175.52" cy="100.96" r="3.33" fill="#000000"/>
    <circle cx="171.72" cy="9.37" r="3.33" fill="#000000"/>
    <circle cx="175.54" cy="84.27" r="3.33" fill="#000000"/>
    <circle cx="175.56" cy="67.59" r="3.33" fill="#000000"/>
    <circle cx="175.57" cy="50.91" r="3.33" fill="#000000"/>
    <circle cx="175.57" cy="34.23" r="3.33" fill="#000000"/>
    <circle cx="175.58" cy="17.56" r="3.33" fill="#000000"/>
    <circle cx="180.00" cy="92.50" r="3.33" fill="#000000"/>
    <circle cx="180.00" cy="9.17" r="3.33" fill="#000000"/>
    <circle cx="180.00" cy="25.83" r="3.33" fill="#000000"/>
    <circle cx="180.00" cy="42.50" r="3.33" fill="#000000"/>
    <circle cx="180.00" cy="59.17" r="3.33" fill="#000000"/>
    <circle cx="180.00" cy="75.83" r="3.33" fill="#000000"/>
    <circle cx="184.42" cy="17.56" r="3.33" fill="#000000"/>
    <circle cx="184.43" cy="34.23" r="3.33" fill="#000000"/>
    <circle cx="184.43" cy="50.91" r="3.33" fill="#000000"/>
    <circle cx="184.44" cy="67.59" r="3.33" fill="#000000"/>
    <circle cx="184.46" cy="84.27" r="3.33" fill="#000000"/>
    <circle cx="188.28" cy="9.37" r="3.33" fill="#000000"/>
    <circle cx="184.48" cy="100.96" r="3.33" fill="#000000"/>
    <circle cx="188.84" cy="26.09" r="3.33" fill="#000000"/>
    <circle cx="188.85" cy="42.79" r="3.33" fill="#000000"/>
    <circle cx="188.87" cy="59.49" r="3.33" fill="#000000"/>
    <circle cx="193.24" cy="18.04" r="3.33" fill="#000000"/>
    <circle cx="188.89" cy="76.21" r="3.33" fill="#000000"/>
    <circle cx="193.26" cy="34.77" r="3.33" fill="#000000"/>
    <circle cx="196.54" cy="9.97" r="3.33" fill="#000000"/>
    <circle cx="188.93" cy="92.96" r="3.33" fill="#000000"/>
    <circle cx="193.28" cy="51.52" r="3.33" fill="#000000"/>
    <circle cx="197.65" cy="26.85" r="3.33" fill="#000000"/>
    <circle cx="193.31" cy="68.29" r="3.33" fill="#000000"/>
    <circle cx="197.67" cy="43.64" r="3.33" fill="#000000"/>
    <circle cx="202.03" cy="19.00" r="3.33" fill="#000000"/>
    <circle cx="193.34" cy="85.10" r="3.33" fill="#000000"/>
    <circle cx="204.76" cy="10.97" r="3.33" fill="#000000"/>
    <circle cx="197.70" cy="60.47" r="3.33" fill="#000000"/>
    <circle cx="202.05" cy="35.84" r="3.33" fill="#000000"/>
    <circle cx="193.38" cy="101.97" r="3.33" fill="#000000"/>
    <circle cx="197.72" cy="77.35" r="3.33" fill="#000000"/>
    <circle cx="202.06" cy="52.73" r="3.33" fill="#000000"/>
    <circle cx="206.41" cy="28.11" r="3.33" fill="#000000"/>
    <circle cx="210.75" cy="20.44" r="3.33" fill="#000000"/>
    <circle cx="206.42" cy="45.06" r="3.33" fill="#000000"/>
    <circle cx="212.92" cy="12.37" r="3.33" fill="#000000"/>
    <circle cx="202.08" cy="69.69" r="3.33" fill="#000000"/>
    <circle cx="197.76" cy="94.32" r="3.33" fill="#000000"/>
    <circle cx="210.75" cy="37.45" r="3.33" fill="#000000"/>
    <circle cx="206.42" cy="62.09" r="3.33" fill="#000000"/>
    <circle cx="215.07" cy="29.88" r="3.33" fill="#000000"/>
    <circle cx="202.10" cy="86.75" r="3.33" fill="#000000"/>
    <circle cx="210.74" cy="54.55" r="3.33" fill="#000000"/>
    <circle cx="221.00" cy="14.16" r="3.33" fill="#000000"/>
    <circle cx="219.38" cy="22.34" r="3.33" fill="#000000"/>
    <circle cx="206.42" cy="79.24" r="3.33" fill="#000000"/>
    <circle cx="215.05" cy="47.04" r="3.33" fill="#000000"/>
    <circle cx="219.34" cy="39.57" r="3.33" fill="#000000"/>
    <circle cx="210.72" cy="71.78" r="3.33" fill="#000000"/>
    <circle cx="202.11" cy="103.98" r="3.33" fill="#000000"/>
    <circle cx="223.62" cy="32.13" r="3.33" fill="#000000"/>
    <circle cx="228.99" cy="16.34" r="3.33" fill="#000000"/>
    <circle cx="215.01" cy="64.35" r="3.33" fill="#000000"/>
    <circle cx="227.89" cy="24.72" r="3.33" fill="#000000"/>
    <circle cx="206.40" cy="96.58" r="3.33" fill="#000000"/>
    <circle cx="219.28" cy="56.95" r="3.33" fill="#000000"/>
    <circle cx="223.54" cy="49.58" r="3.33" fill="#000000"/>
    <circle cx="210.68" cy="89.21" r="3.33" fill="#000000"/>
    <circle cx="227.79" cy="42.22" r="3.33" fill="#000000"/>
    <circle cx="236.86" cy="18.91" r="3.33" fill="#000000"/>
    <circle cx="214.93" cy="81.86" r="3.33" fill="#000000"/>
    <circle cx="232.03" cy="34.88" r="3.33" fill="#000000"/>
    <circle cx="236.27" cy="27.55" r="3.33" fill="#000000"/>
    <circle cx="219.17" cy="74.54" r="3.33" fill="#000000"/>
    <circle cx="223.41" cy="67.23" r="3.33" fill="#000000"/>
    <circle cx="227.63" cy="59.94" r="3.33" fill="#000000"/>
    <circle cx="231.85" cy="52.65" r="3.33" fill="#000000"/>
    <circle cx="244.60" cy="21.85" r="3.33" fill="#000000"/>
    <circle cx="236.06" cy="45.37" r="3.33" fill="#000000"/>
    <circle cx="210.56" cy="106.97" r="3.33" fill="#000000"/>
    <circle cx="240.27" cy="38.10" r="3.33" fill="#000000"/>
    <circle cx="244.47" cy="30.84" r="3.33" fill="#000000"/>
    <circle cx="214.78" cy="99.71" r="3.33" fill="#000000"/>
    <circle cx="218.98" cy="92.45" r="3.33" fill="#000000"/>
    <circle cx="223.18" cy="85.21" r="3.33" fill="#000000"/>
    <circle cx="227.38" cy="77.96" r="3.33" fill="#000000"/>
    <circle cx="252.19" cy="25.17" r="3.33" fill="#000000"/>
    <circle cx="231.57" cy="70.72" r="3.33" fill="#000000"/>
    <circle cx="235.76" cy="63.49" r="3.33" fill="#000000"/>
    <circle cx="239.94" cy="56.25" r="3.33" fill="#000000"/>
    <circle cx="244.12" cy="49.02" r="3.33" fill="#000000"/>
    <circle cx="248.31" cy="41.79" r="3.33" fill="#000000"/>
    <circle cx="252.49" cy="34.56" r="3.33" fill="#000000"/>
    <circle cx="259.61" cy="28.85" r="3.33" fill="#000000"/>
    <circle cx="218.62" cy="110.89" r="3.33" fill="#000000"/>
    <circle cx="222.78" cy="103.67" r="3.33" fill="#000000"/>
    <circle cx="226.95" cy="96.46" r="3.33" fill="#000000"/>
    <circle cx="231.12" cy="89.24" r="3.33" fill="#000000"/>
    <circle cx="235.29" cy="82.02" r="3.33" fill="#000000"/>
    <circle cx="239.45" cy="74.80" r="3.33" fill="#000000"/>
    <circle cx="243.62" cy="67.59" r="3.33" fill="#000000"/>
    <circle cx="247.79" cy="60.37" r="3.33" fill="#000000"/>
    <circle cx="251.95" cy="53.15" r="3.33" fill="#000000"/>
    <circle cx="256.12" cy="45.94" r="3.33" fill="#000000"/>
    <circle cx="260.29" cy="38.72" r="3.33" fill="#000000"/>
    <circle cx="266.84" cy="32.89" r="3.33" fill="#000000"/>
    <circle cx="267.85" cy="43.29" r="3.33" fill="#000000"/>
    <circle cx="263.68" cy="50.52" r="3.33" fill="#000000"/>
    <circle cx="259.52" cy="57.75" r="3.33" fill="#000000"/>
    <circle cx="255.35" cy="64.98" r="3.33" fill="#000000"/>
    <circle cx="273.87" cy="37.27" r="3.33" fill="#000000"/>
    <circle cx="251.18" cy="72.22" r="3.33" fill="#000000"/>
    <circle cx="247.02" cy="79.45" r="3.33" fill="#000000"/>
    <circle cx="242.85" cy="86.69" r="3.33" fill="#000000"/>
    <circle cx="238.68" cy="93.93" r="3.33" fill="#000000"/>
    <circle cx="234.51" cy="101.18" r="3.33" fill="#000000"/>
    <circle cx="230.35" cy="108.44" r="3.33" fill="#000000"/>
    <circle cx="226.18" cy="115.70" r="3.33" fill="#000000"/>
    <circle cx="275.15" cy="48.27" r="3.33" fill="#000000"/>
    <circle cx="280.67" cy="41.98" r="3.33" fill="#000000"/>
    <circle cx="270.97" cy="55.53" r="3.33" fill="#000000"/>
    <circle cx="266.79" cy="62.80" r="3.33" fill="#000000"/>
    <circle cx="262.60" cy="70.07" r="3.33" fill="#000000"/>
    <circle cx="258.41" cy="77.35" r="3.33" fill="#000000"/>
    <circle cx="254.22" cy="84.64" r="3.33" fill="#000000"/>
    <circle cx="250.02" cy="91.95" r="3.33" fill="#000000"/>
    <circle cx="287.24" cy="47.02" r="3.33" fill="#000000"/>
    <circle cx="282.17" cy="53.64" r="3.33" fill="#000000"/>
    <circle cx="245.82" cy="99.26" r="3.33" fill="#000000"/>
    <circle cx="277.96" cy="60.95" r="3.33" fill="#000000"/>
    <circle cx="273.74" cy="68.28" r="3.33" fill="#000000"/>
    <circle cx="241.60" cy="106.59" r="3.33" fill="#000000"/>
    <circle cx="269.51" cy="75.62" r="3.33" fill="#000000"/>
    <circle cx="237.38" cy="113.94" r="3.33" fill="#000000"/>
    <circle cx="265.27" cy="82.98" r="3.33" fill="#000000"/>
    <circle cx="293.56" cy="52.38" r="3.33" fill="#000000"/>
    <circle cx="288.89" cy="59.38" r="3.33" fill="#000000"/>
    <circle cx="261.02" cy="90.35" r="3.33" fill="#000000"/>
    <circle cx="233.15" cy="121.33" r="3.33" fill="#000000"/>
    <circle cx="284.62" cy="66.77" r="3.33" fill="#000000"/>
    <circle cx="256.75" cy="97.75" r="3.33" fill="#000000"/>
    <circle cx="280.34" cy="74.17" r="3.33" fill="#000000"/>
    <circle cx="252.47" cy="105.17" r="3.33" fill="#000000"/>
    <circle cx="276.04" cy="81.60" r="3.33" fill="#000000"/>
    <circle cx="299.61" cy="58.03" r="3.33" fill="#000000"/>
    <circle cx="295.29" cy="65.48" r="3.33" fill="#000000"/>
    <circle cx="271.72" cy="89.06" r="3.33" fill="#000000"/>
    <circle cx="248.16" cy="112.64" r="3.33" fill="#000000"/>
    <circle cx="290.94" cy="72.95" r="3.33" fill="#000000"/>
    <circle cx="267.38" cy="96.54" r="3.33" fill="#000000"/>
    <circle cx="243.82" cy="120.14" r="3.33" fill="#000000"/>
    <circle cx="286.58" cy="80.46" r="3.33" fill="#000000"/>
    <circle cx="305.38" cy="63.97" r="3.33" fill="#000000"/>
    <circle cx="263.01" cy="104.06" r="3.33" fill="#000000"/>
    <circle cx="282.18" cy="87.99" r="3.33" fill="#000000"/>
    <circle cx="301.34" cy="71.92" r="3.33" fill="#000000"/>
    <circle cx="239.44" cy="127.71" r="3.33" fill="#000000"/>
    <circle cx="258.59" cy="111.64" r="3.33" fill="#000000"/>
    <circle cx="277.75" cy="95.56" r="3.33" fill="#000000"/>
    <circle cx="296.90" cy="79.49" r="3.33" fill="#000000"/>
    <circle cx="310.86" cy="70.18" r="3.33" fill="#000000"/>
    <circle cx="292.42" cy="87.10" r="3.33" fill="#000000"/>
    <circle cx="273.27" cy="103.18" r="3.33" fill="#000000"/>
    <circle cx="254.13" cy="119.26" r="3.33" fill="#000000"/>
    <circle cx="307.04" cy="78.67" r="3.33" fill="#000000"/>
    <circle cx="287.89" cy="94.76" r="3.33" fill="#000000"/>
    <circle cx="268.74" cy="110.86" r="3.33" fill="#000000"/>
    <circle cx="302.47" cy="86.36" r="3.33" fill="#000000"/>
    <circle cx="249.60" cy="126.96" r="3.33" fill="#000000"/>
    <circle cx="316.03" cy="76.65" r="3.33" fill="#000000"/>
    <circle cx="283.31" cy="102.47" r="3.33" fill="#000000"/>
    <circle cx="264.14" cy="118.60" r="3.33" fill="#000000"/>
    <circle cx="297.85" cy="94.10" r="3.33" fill="#000000"/>
    <circle cx="312.36" cy="85.73" r="3.33" fill="#000000"/>
    <circle cx="278.66" cy="110.24" r="3.33" fill="#000000"/>
    <circle cx="244.97" cy="134.76" r="3.33" fill="#000000"/>
    <circle cx="293.16" cy="101.89" r="3.33" fill="#000000"/>
    <circle cx="320.87" cy="83.37" r="3.33" fill="#000000"/>
    <circle cx="307.64" cy="93.54" r="3.33" fill="#000000"/>
    <circle cx="259.45" cy="126.42" r="3.33" fill="#000000"/>
    <circle cx="273.92" cy="118.08" r="3.33" fill="#000000"/>
    <circle cx="288.39" cy="109.74" r="3.33" fill="#000000"/>
    <circle cx="302.84" cy="101.40" r="3.33" fill="#000000"/>
    <circle cx="317.29" cy="93.07" r="3.33" fill="#000000"/>
    <circle cx="325.39" cy="90.31" r="3.33" fill="#000000"/>
    <circle cx="254.64" cy="134.34" r="3.33" fill="#000000"/>
    <circle cx="269.08" cy="126.00" r="3.33" fill="#000000"/>
    <circle cx="283.52" cy="117.67" r="3.33" fill="#000000"/>
    <circle cx="297.95" cy="109.33" r="3.33" fill="#000000"/>
    <circle cx="312.39" cy="101.00" r="3.33" fill="#000000"/>
    <circle cx="321.82" cy="100.66" r="3.33" fill="#000000"/>
    <circle cx="307.38" cy="109.00" r="3.33" fill="#000000"/>
    <circle cx="292.95" cy="117.34" r="3.33" fill="#000000"/>
    <circle cx="329.57" cy="97.46" r="3.33" fill="#000000"/>
    <circle cx="278.52" cy="125.69" r="3.33" fill="#000000"/>
    <circle cx="264.09" cy="134.04" r="3.33" fill="#000000"/>
    <circle cx="249.66" cy="142.39" r="3.33" fill="#000000"/>
    <circle cx="316.70" cy="108.72" r="3.33" fill="#000000"/>
    <circle cx="302.26" cy="117.08" r="3.33" fill="#000000"/>
    <circle cx="287.81" cy="125.44" r="3.33" fill="#000000"/>
    <circle cx="273.36" cy="133.81" r="3.33" fill="#000000"/>
    <circle cx="333.39" cy="104.80" r="3.33" fill="#000000"/>
    <circle cx="325.92" cy="108.49" r="3.33" fill="#000000"/>
    <circle cx="311.46" cy="116.86" r="3.33" fill="#000000"/>
    <circle cx="258.91" cy="142.19" r="3.33" fill="#000000"/>
    <circle cx="296.98" cy="125.24" r="3.33" fill="#000000"/>
    <circle cx="282.50" cy="133.63" r="3.33" fill="#000000"/>
    <circle cx="320.56" cy="116.68" r="3.33" fill="#000000"/>
    <circle cx="306.06" cy="125.08" r="3.33" fill="#000000"/>
    <circle cx="336.86" cy="112.32" r="3.33" fill="#000000"/>
    <circle cx="268.00" cy="142.05" r="3.33" fill="#000000"/>
    <circle cx="329.59" cy="116.53" r="3.33" fill="#000000"/>
    <circle cx="291.53" cy="133.50" r="3.33" fill="#000000"/>
    <circle cx="315.04" cy="124.95" r="3.33" fill="#000000"/>
    <circle cx="253.47" cy="150.50" r="3.33" fill="#000000"/>
    <circle cx="276.97" cy="141.95" r="3.33" fill="#000000"/>
    <circle cx="300.47" cy="133.40" r="3.33" fill="#000000"/>
    <circle cx="323.96" cy="124.84" r="3.33" fill="#000000"/>
    <circle cx="339.95" cy="120.00" r="3.33" fill="#000000"/>
    <circle cx="332.82" cy="124.75" r="3.33" fill="#000000"/>
    <circle cx="309.33" cy="133.31" r="3.33" fill="#000000"/>
    <circle cx="285.84" cy="141.87" r="3.33" fill="#000000"/>
    <circle cx="262.36" cy="150.44" r="3.33" fill="#000000"/>
    <circle cx="318.13" cy="133.24" r="3.33" fill="#000000"/>
    <circle cx="294.64" cy="141.81" r="3.33" fill="#000000"/>
    <circle cx="271.15" cy="150.40" r="3.33" fill="#000000"/>
    <circle cx="342.67" cy="127.82" r="3.33" fill="#000000"/>
    <circle cx="326.89" cy="133.19" r="3.33" fill="#000000"/>
    <circle cx="303.38" cy="141.77" r="3.33" fill="#000000"/>
    <circle cx="335.60" cy="133.14" r="3.33" fill="#000000"/>
    <circle cx="279.86" cy="150.37" r="3.33" fill="#000000"/>
    <circle cx="312.07" cy="141.74" r="3.33" fill="#000000"/>
    <circle cx="256.33" cy="158.99" r="3.33" fill="#000000"/>
    <circle cx="288.52" cy="150.35" r="3.33" fill="#000000"/>
    <circle cx="320.72" cy="141.71" r="3.33" fill="#000000"/>
    <circle cx="345.01" cy="135.77" r="3.33" fill="#000000"/>
    <circle cx="329.33" cy="141.69" r="3.33" fill="#000000"/>
    <circle cx="297.14" cy="150.33" r="3.33" fill="#000000"/>
    <circle cx="264.94" cy="158.99" r="3.33" fill="#000000"/>
    <circle cx="337.92" cy="141.67" r="3.33" fill="#000000"/>
    <circle cx="305.71" cy="150.33" r="3.33" fill="#000000"/>
    <circle cx="273.50" cy="159.00" r="3.33" fill="#000000"/>
    <circle cx="314.26" cy="150.32" r="3.33" fill="#000000"/>
    <circle cx="346.96" cy="143.82" r="3.33" fill="#000000"/>
    <circle cx="322.78" cy="150.32" r="3.33" fill="#000000"/>
    <circle cx="282.03" cy="159.00" r="3.33" fill="#000000"/>
    <circle cx="331.28" cy="150.32" r="3.33" fill="#000000"/>
    <circle cx="290.52" cy="159.01" r="3.33" fill="#000000"/>
    <circle cx="339.77" cy="150.32" r="3.33" fill="#000000"/>
    <circle cx="299.00" cy="159.01" r="3.33" fill="#000000"/>
    <circle cx="348.51" cy="151.95" r="3.33" fill="#000000"/>
    <circle cx="307.45" cy="159.02" r="3.33" fill="#000000"/>
    <circle cx="258.21" cy="167.75" r="3.33" fill="#000000"/>
    <circle cx="315.89" cy="159.03" r="3.33" fill="#000000"/>
    <circle cx="324.32" cy="159.03" r="3.33" fill="#000000"/>
    <circle cx="266.64" cy="167.77" r="3.33" fill="#000000"/>
    <circle cx="332.74" cy="159.04" r="3.33" fill="#000000"/>
    <circle cx="341.14" cy="159.05" r="3.33" fill="#000000"/>
    <circle cx="275.05" cy="167.78" r="3.33" fill="#000000"/>
    <circle cx="283.45" cy="167.79" r="3.33" fill="#000000"/>
    <circle cx="349.68" cy="160.15" r="3.33" fill="#000000"/>
    <circle cx="291.84" cy="167.80" r="3.33" fill="#000000"/>
    <circle cx="300.22" cy="167.81" r="3.33" fill="#000000"/>
    <circle cx="308.59" cy="167.82" r="3.33" fill="#000000"/>
    <circle cx="316.96" cy="167.82" r="3.33" fill="#000000"/>
    <circle cx="325.32" cy="167.83" r="3.33" fill="#000000"/>
    <circle cx="333.69" cy="167.83" r="3.33" fill="#000000"/>
    <circle cx="342.04" cy="167.84" r="3.33" fill="#000000"/>
    <circle cx="350.44" cy="168.39" r="3.33" fill="#000000"/>
    <circle cx="259.10" cy="176.67" r="3.33" fill="#000000"/>
    <circle cx="267.44" cy="176.67" r="3.33" fill="#000000"/>
    <circle cx="275.78" cy="176.67" r="3.33" fill="#000000"/>
    <circle cx="284.11" cy="176.67" r="3.33" fill="#000000"/>
    <circle cx="292.45" cy="176.67" r="3.33" fill="#000000"/>
    <circle cx="300.79" cy="176.67" r="3.33" fill="#000000"/>
    <circle cx="309.12" cy="176.67" r="3.33" fill="#000000"/>
    <circle cx="317.46" cy="176.67" r="3.33" fill="#000000"/>
    <circle cx="325.80" cy="176.67" r="3.33" fill="#000000"/>
    <circle cx="334.13" cy="176.67" r="3.33" fill="#000000"/>
    <circle cx="342.47" cy="176.67" r="3.33" fill="#000000"/>
    <circle cx="350.80" cy="176.67" r="3.33" fill="#000000"/>
  </g>
</g>
</svg>
